<?xml version="1.0" standalone="no"?>
<!DOCTYPE svg PUBLIC "-//W3C//DTD SVG 1.1//EN" "http://www.w3.org/Graphics/SVG/1.1/DTD/svg11.dtd" >
<svg>
<metadata>
Created by FontForge 20090914 at Fri Aug  5 16:35:23 2022
 By www-data
Copyright (C) 1993, Teslefantic. All rights reserved.
</metadata>
<defs>
<font id="Uk_Antique" horiz-adv-x="280" >
  <font-face 
    font-family="Uk_Antique"
    font-weight="400"
    font-stretch="normal"
    units-per-em="1000"
    panose-1="0 0 0 0 0 0 0 0 0 0"
    ascent="800"
    descent="-200"
    x-height="462"
    cap-height="700"
    bbox="-14 -232 1348 882.002"
    underline-thickness="56"
    underline-position="-204"
    unicode-range="U+0020-U+2122"
  />
<missing-glyph horiz-adv-x="768" 
d="M48 0v768h672v-768h-672zM672 48v672h-576v-672h576z" />
    <glyph glyph-name=".notdef" horiz-adv-x="768" 
d="M48 0v768h672v-768h-672zM672 48v672h-576v-672h576z" />
    <glyph glyph-name="space" unicode=" " horiz-adv-x="351" 
 />
    <glyph glyph-name="exclam" unicode="!" 
d="M163 182l-45.001 -0.00195312c0 67.333 -0.666992 114.333 -2 141c-3.33301 36 -6.66602 74 -9.99902 114s-6.66602 75.667 -9.99902 107s-5 55 -5 71c0 26.667 2 47 6 61c7.33301 25.333 21.666 38 42.999 38c20.667 0 34.667 -12 42 -36
c4.66699 -15.333 7 -36.333 7 -63c0 -21.333 -1.83301 -49.166 -5.5 -83.499s-7 -68.833 -10 -103.5s-5.5 -69.667 -7.5 -105s-3 -69.666 -3 -102.999v-38zM90.999 34.998c0 16 5.33203 28.167 15.999 36.5s21.667 12.5 33 12.5c12.667 0 24 -4.66699 34 -14s15 -21 15 -35
s-4.66699 -25.667 -14 -35s-21 -14 -35 -14c-11.333 0 -21.666 3.66699 -30.999 11c-12 9.33301 -18 22 -18 38z" />
    <glyph glyph-name="quotedbl" unicode="&#x22;" horiz-adv-x="395" 
d="M145 714l-28 -221h-39l-28 221h95zM322 714l-29 -221h-38l-29 221h96z" />
    <glyph glyph-name="numbersign" unicode="#" horiz-adv-x="910" 
d="M772 231l-16 -63h-168l-45 -168h-63l45 168h-238l-45 -168h-63l45 168h-168l16 63h168l64 238h-168l17 63h168l45 168h63l-45 -168h238l45 168h63l-45 -168h169l-17 -63h-169l-64 -238h168zM367 469l-64 -238h238l64 238h-238z" />
    <glyph glyph-name="dollar" unicode="$" horiz-adv-x="700" 
d="M334 -98l-0.00195312 84.001c-36.667 0 -72.167 7.16699 -106.5 21.5s-64.166 33.5 -89.499 57.5c-12 10 -21.667 21.5 -29 34.5s-11 26.5 -11 40.5c0 17.333 4.83301 31.166 14.5 41.499s20.834 15.5 33.501 15.5c17.333 0 31.166 -5.5 41.499 -16.5
s17.5 -28.167 21.5 -51.5c4.66699 -35.333 21.334 -62 50.001 -80c22 -14 47 -21 75 -21v301c-81.333 40 -135.333 75.333 -162 106c-24 28 -36 59 -36 93c0 42 16 80.667 48 116c37.333 40.667 87.333 64 150 70v56h42v-56c46 -4.66699 87 -17 123 -37
c42 -24 63 -52 63 -84s-14.667 -48 -44 -48c-11.333 0 -21.333 3.33301 -30 10s-16.167 20.334 -22.5 41.001s-16.833 37.167 -31.5 49.5s-34 20.5 -58 24.5v-252c51.333 -26 89.333 -47.333 114 -64c36 -24 63 -49.667 81 -77c20.667 -30.667 31 -65.334 31 -104.001
c0 -50.667 -22.833 -94.5 -68.5 -131.5s-98.167 -55.5 -157.5 -55.5v-84h-42zM333.998 436.001v236c-33.333 0 -62.333 -9.66699 -87 -29s-37 -42.666 -37 -69.999c0 -26.667 9.5 -51.334 28.5 -74.001s50.833 -43.667 95.5 -63zM375.998 311.001v-283.002
c40 4 73.667 16.333 101 37c32 24 48 55.667 48 95c0 32.667 -11.167 59.834 -33.5 81.501s-60.833 44.834 -115.5 69.501z" />
    <glyph glyph-name="percent" unicode="%" horiz-adv-x="1044" 
d="M126 580c0 43.333 13.668 82.999 41.001 118.999c32.667 42.667 75.667 64 129 64c50 0 91.667 -19.333 125 -58c31.333 -36 47 -77.667 47 -125s-15.667 -89 -47 -125c-33.333 -38.667 -75 -58 -125 -58c-52.667 0 -95.334 21.333 -128.001 64
c-28 36.667 -42 76.334 -42 119.001zM212.001 604.999l0.000976562 -50.001c0 -44.667 7.16699 -78.667 21.5 -102s35.833 -35 64.5 -35c31.333 0 54 16.333 68 49c10.667 24.667 16 54.334 16 89.001v48c0 44 -7.33301 78 -22 102s-35.334 36 -62.001 36
c-27.333 0 -48.5 -12 -63.5 -36s-22.5 -57.667 -22.5 -101zM296.002 -141.002l-40 19l487 963l40 -21zM580.002 136.998c0 48 16.333 90.333 49 127s72.667 55 120 55c49.333 0 90.333 -19.333 123 -58c30.667 -36 46 -77.667 46 -125c0 -46.667 -15.333 -88 -46 -124
c-33.333 -39.333 -74.333 -59 -123 -59c-46.667 0 -86.5 18.5 -119.5 55.5s-49.5 79.833 -49.5 128.5zM666.002 159.998v-49.001c0 -44.667 6.83301 -78.667 20.5 -102s34.5 -35 62.5 -35c55.333 0 83 45.667 83 137v48c0 43.333 -7.5 77.333 -22.5 102s-35.167 37 -60.5 37
c-22 0 -40 -8.66699 -54 -26c-19.333 -23.333 -29 -60.666 -29 -111.999z" />
    <glyph glyph-name="ampersand" unicode="&#x26;" horiz-adv-x="710" 
d="M468 389l177.002 -0.00195312v-25c-32.667 -4.66699 -60.667 -25 -84 -61c-1.33301 -2 -22 -43 -62 -123l48 -75c16 -24.667 33.833 -44.167 53.5 -58.5s37.167 -21.5 52.5 -21.5h12v-25h-145l-68 103h-4c-35.333 -42 -67 -71.333 -95 -88
c-32.667 -19.333 -72.334 -29 -119.001 -29c-56.667 0 -101.667 15.667 -135 47s-50 71.333 -50 120c0 43.333 12.667 83.333 38 120c30.667 44 87 90.333 169 139c-19.333 26.667 -33 49 -41 67c-10.667 23.333 -16 47 -16 71c0 46.667 14 85.667 42 117s65.333 47 112 47
c38 0 69.333 -13 94 -39c22.667 -24 34 -52.667 34 -86c0 -36 -14.333 -69 -43 -99c-20.667 -21.333 -52.667 -43.666 -96 -66.999l133 -206c12 24 21.333 45.167 28 63.5s10 34.5 10 48.5c0 9.33301 -3.33301 16.833 -10 22.5s-18.334 9.83398 -35.001 12.501v25z
M297.002 492.998l27 -43c30 16 54.833 37.833 74.5 65.5s29.5 55.167 29.5 82.5c0 22.667 -7.33301 40.667 -22 54s-33 20 -55 20c-24.667 0 -46.167 -6.83301 -64.5 -20.5s-27.5 -34.5 -27.5 -62.5c0 -23.333 12.667 -55.333 38 -96zM279.002 380.998l-7.99902 -0.998047
c-42 -28 -74 -59.333 -96 -94s-33 -69.334 -33 -104.001c0 -38.667 13.667 -70 41 -94s62.666 -36 105.999 -36c22 0 43.667 6.66699 65 20c24.667 15.333 48.667 39.666 72 72.999z" />
    <glyph glyph-name="quotesingle" unicode="'" horiz-adv-x="219" 
d="M146 714l-29 -221h-38l-29 221h96z" />
    <glyph glyph-name="parenleft" unicode="(" horiz-adv-x="388" 
d="M299 819l19.001 -18c-42 -40 -74.667 -91.667 -98 -155c-29.333 -79.333 -44 -178 -44 -296c0 -128 16.667 -233 50 -315c22 -54 52.667 -99.333 92 -136l-19 -18c-82.667 69.333 -143.334 149 -182.001 239c-31.333 73.333 -47 150 -47 230c0 76 14 148.667 42 218
c38.667 95.333 101 179 187 251z" />
    <glyph glyph-name="parenright" unicode=")" horiz-adv-x="388" 
d="M71 801l19 17.999c86 -71.333 148 -154.666 186 -249.999c28 -70 42 -143 42 -219c0 -81.333 -15 -157.666 -45 -228.999c-38 -90 -99 -170 -183 -240l-20 18c38.667 36 69 81 91 135c34 83.333 51 188.666 51 315.999s-16.667 232 -50 314
c-22 54 -52.333 99.667 -91 137z" />
    <glyph glyph-name="asterisk" unicode="*" horiz-adv-x="526" 
d="M225 532c-4 8.66699 -14.999 16.3291 -32.999 22.9961s-34.333 10 -49 10c-18 0 -30.5 2.33301 -37.5 7s-10.5 12 -10.5 22c0 10.667 2.33301 20.5 7 29.5s10.667 13.5 18 13.5c12 0 21.833 -2.33301 29.5 -7s14.667 -12.167 21 -22.5s16.666 -21.666 30.999 -33.999
s26.5 -18.5 36.5 -18.5c7.33301 0 12.333 4.66699 15 14v18l-3 30c-2.66699 14.667 -7.16699 26.667 -13.5 36s-9.5 18 -9.5 26c0 14.667 6 25 18 31c5.33301 2.66699 11 4 17 4c9.33301 0 18 -3.33301 26 -10s12 -15 12 -25c0 -12 -4.5 -23.5 -13.5 -34.5
s-13.5 -30.167 -13.5 -57.5c0 -12 0.666992 -20.5 2 -25.5s5.66602 -7.5 12.999 -7.5c8.66699 0 20.667 6.33301 36 19s26.333 24.667 33 36c4.66699 8.66699 10.834 15.334 18.501 20.001s17.834 7 30.501 7c8 0 14.167 -4.83301 18.5 -14.5s6.5 -19.5 6.5 -29.5
c0 -12 -4.66699 -19.667 -14 -23s-20.666 -5 -33.999 -5c-10 0 -17.167 -0.333008 -21.5 -1s-12.5 -3.66699 -24.5 -9s-20.333 -9.66602 -25 -12.999c-8 -6 -12 -13.667 -12 -23c0 -8.66699 8.83301 -16.167 26.5 -22.5s36.167 -9.5 55.5 -9.5
c16.667 0 28.834 -2.33301 36.501 -7s11.5 -12.334 11.5 -23.001c0 -13.333 -0.666992 -22 -2 -26c-4 -11.333 -11.667 -17 -23 -17c-12 0 -21.833 2.33301 -29.5 7s-14.167 11.334 -19.5 20.001c-8.66699 14.667 -20 27.5 -34 38.5s-25.667 16.5 -35 16.5
c-7.33301 0 -12.333 -4.66699 -15 -14v-18l3 -30c2 -11.333 6.5 -22.666 13.5 -33.999s10.5 -20.666 10.5 -27.999c0 -10.667 -3.83301 -19.167 -11.5 -25.5s-15.834 -9.5 -24.501 -9.5c-8 0 -16.167 3 -24.5 9s-12.5 14.667 -12.5 26c0 7.33301 3.16699 15.5 9.5 24.5
s10.833 21.5 13.5 37.5l3 30v18c-2 10 -6.66699 15 -14 15c-9.33301 0 -21 -5.5 -35 -16.5s-25.333 -23.833 -34 -38.5c-4.66699 -8 -10.834 -14.5 -18.501 -19.5s-17.834 -7.5 -30.501 -7.5c-9.33301 0 -15.833 3.16699 -19.5 9.5s-5.5 17.5 -5.5 33.5
c0 12 4.5 19.833 13.5 23.5s20.5 5.5 34.5 5.5s30.333 3.66699 49 11s29.667 14.666 33 21.999c2 4.66699 2 9 0 13z" />
    <glyph glyph-name="plus" unicode="+" horiz-adv-x="672" 
d="M371 84h-70v231h-231v70h231v231h70v-231h231v-70h-231v-231z" />
    <glyph glyph-name="comma" unicode="," 
d="M108 -143l-13.999 14.998c16 14.667 28.5 28.5 37.5 41.5s14.833 27.833 17.5 44.5v19c-2 8.66699 -5.33301 14.5 -10 17.5s-11.834 5.16699 -21.501 6.5s-17.667 6.16602 -24 14.499s-9.5 17.833 -9.5 28.5c0 14.667 4.66699 27.334 14 38.001s21.333 16 36 16
c16.667 0 31.167 -7 43.5 -21s18.5 -35.667 18.5 -65c0 -33.333 -9.66699 -64.666 -29 -93.999c-15.333 -23.333 -35 -43.666 -59 -60.999z" />
    <glyph glyph-name="hyphen" unicode="-" 
d="M42 213v63h196v-63h-196z" />
    <glyph glyph-name="period" unicode="." 
d="M91 35c0 12.667 4.66699 24 14 34s21 15 35 15c12.667 0 24 -4.66699 34 -14s15 -21 15 -35s-4.66699 -25.667 -14 -35s-21 -14 -35 -14c-12.667 0 -24 4.66699 -34 14s-15 21 -15 35z" />
    <glyph glyph-name="slash" unicode="/" horiz-adv-x="781" 
d="M166 -141l-40 19l489 963l40 -21z" />
    <glyph glyph-name="zero" unicode="0" horiz-adv-x="526" 
d="M26 348c0 116 24.665 207.666 73.998 274.999c44.667 60.667 99.334 91 164.001 91c64 0 118 -30 162 -90c49.333 -67.333 74 -158.666 74 -273.999c0 -101.333 -19.333 -185.333 -58 -252c-43.333 -74.667 -102.666 -112 -177.999 -112
c-76.667 0 -136.667 37.333 -180 112c-38.667 66.667 -58 150 -58 250zM263.998 671.999c-57.333 0 -97.666 -36.667 -120.999 -110c-16.667 -52 -25 -122.667 -25 -212c0 -125.333 17 -214.333 51 -267c23.333 -36.667 54.666 -55 93.999 -55c40.667 0 73 20.333 97 61
c32 54 48 141 48 261c0 95.333 -9 169 -27 221c-23.333 67.333 -62.333 101 -117 101z" />
    <glyph glyph-name="one" unicode="1" horiz-adv-x="526" 
d="M251 700l46.9971 -0.000976562v-577c0 -33.333 5.83301 -57.666 17.5 -72.999s31.834 -23 60.501 -23v-27h-236v27c52 0 78 32 78 96v428c0 21.333 -2.66699 35.666 -8 42.999c-9.33301 12.667 -30.666 19 -63.999 19v25c26 3.33301 47.833 9.83301 65.5 19.5
s30.834 23.834 39.501 42.501z" />
    <glyph glyph-name="two" unicode="2" horiz-adv-x="526" 
d="M414 0l-372 -0.00195312v38c124 120.667 211.333 219.334 262 296.001c44 66.667 66 126 66 178c0 44.667 -12 82 -36 112c-26 32 -61 48 -105 48c-35.333 0 -65 -11.333 -89 -34c-21.333 -20 -32 -42.667 -32 -68c0 -12.667 3.33301 -23.667 10 -33
c3.33301 -4.66699 10.333 -12.334 21 -23.001c7.33301 -7.33301 13.333 -14.666 18 -21.999c7.33301 -11.333 11 -22.333 11 -33c0 -12 -3.5 -21.833 -10.5 -29.5s-14.833 -11.5 -23.5 -11.5c-19.333 0 -35.666 8.33301 -48.999 25c-15.333 19.333 -23 47 -23 83
c0 55.333 19.333 100.5 58 135.5s84 52.5 136 52.5c58.667 0 107.667 -20 147 -60s59 -86.333 59 -139c0 -39.333 -10 -76.666 -30 -111.999c-15.333 -27.333 -41 -59.666 -77 -96.999l-100 -99l-81 -81c-12 -12.667 -26.333 -29.334 -43 -50.001h201
c18.667 0 35 3.33301 49 10c23.333 11.333 41.666 32.333 54.999 63h24z" />
    <glyph glyph-name="three" unicode="3" horiz-adv-x="527" 
d="M302 388l0.00292969 -5.99805c49.333 0 90 -19.333 122 -58c29.333 -36 44 -79.333 44 -130c0 -56 -20.333 -104 -61 -144c-43.333 -42.667 -98 -64 -164 -64c-54.667 0 -100.834 15.833 -138.501 47.5s-56.5 68.5 -56.5 110.5c0 22.667 5 40 15 52s21.333 18 34 18
c9.33301 0 17.833 -3.5 25.5 -10.5s11.5 -16.167 11.5 -27.5c0 -8.66699 -0.666992 -15.667 -2 -21s-5.33301 -17.333 -12 -36c-4 -12 -6 -21.333 -6 -28c0 -20 13.667 -36 41 -48c22.667 -10 48 -15 76 -15c42 0 76 13.333 102 40c28.667 30 43 72 43 126
c0 47.333 -10.667 84.666 -32 111.999c-24 30.667 -58.333 46 -103 46h-27h-33v42h23c37.333 0 70.666 11.333 99.999 34c35.333 27.333 53 63.666 53 108.999c0 40.667 -11 73.334 -33 98.001s-52.333 37 -91 37c-32 0 -57.667 -7 -77 -21c-15.333 -11.333 -23 -23 -23 -35
c0 -9.33301 1.66699 -17.666 5 -24.999s5 -17 5 -29s-2.83301 -21.833 -8.5 -29.5s-13.834 -11.5 -24.501 -11.5c-12.667 0 -22.167 4 -28.5 12s-9.5 18 -9.5 30c0 35.333 16.667 68.666 50 99.999c36 34 79 51 129 51c46.667 0 88.667 -15.833 126 -47.5
s56 -71.834 56 -120.501c0 -37.333 -12 -70 -36 -98s-55.667 -48 -95 -60z" />
    <glyph glyph-name="four" unicode="4" horiz-adv-x="528" 
d="M480 245v-42h-100v-78c0 -34.667 5.83301 -59.667 17.5 -75s32.5 -23 62.5 -23v-27h-241v27c54 0 81 32.667 81 98v78h-272v20l296 477h56v-455h100zM300 245v336h-7l-201 -336h208z" />
    <glyph glyph-name="five" unicode="5" horiz-adv-x="527" 
d="M430 731l-41.998 -102.003h-240v-224c24 20.667 44 34.667 60 42s36.667 11 62 11c54 0 101.667 -21.667 143 -65c44 -46 66 -102 66 -168c0 -64 -22.5 -119.833 -67.5 -167.5s-101.5 -71.5 -169.5 -71.5c-49.333 0 -91.333 14 -126 42
c-38 30.667 -57 70.334 -57 119.001c0 20.667 5.16699 38.834 15.5 54.501s23.166 23.5 38.499 23.5c10 0 18.167 -3.5 24.5 -10.5s9.5 -15.833 9.5 -26.5c0 -8.66699 -1 -15.834 -3 -21.501s-5.5 -13.5 -10.5 -23.5s-8.5 -18 -10.5 -24s-3 -12.667 -3 -20
c0 -20 10.833 -36.833 32.5 -50.5s50.167 -20.5 85.5 -20.5c54.667 0 94.667 23 120 69c19.333 34.667 29 77.334 29 128.001c0 75.333 -17.333 129 -52 161c-22 20 -48.667 30 -80 30c-24.667 0 -48.5 -6.5 -71.5 -19.5s-36.5 -31.167 -40.5 -54.5h-37v358h203l28 1
c13.333 0 24 1.33301 32 4c13.333 4.66699 24.666 13.334 33.999 26.001h27z" />
    <glyph glyph-name="six" unicode="6" horiz-adv-x="527" 
d="M141 382c22 22.667 45.332 38.668 69.999 48.001s49.667 14 75 14c50.667 0 95.334 -19.667 134.001 -59c41.333 -42 62 -93 62 -153c0 -72 -20 -131 -60 -177s-90.667 -69 -152 -69c-76 0 -133.667 38 -173 114c-32.667 62.667 -49 138 -49 226c0 122 25.667 219 77 291
c46 64.667 101.667 97 167 97c36.667 0 70 -10.5 100 -31.5s45 -45.167 45 -72.5c0 -16 -3 -27.333 -9 -34s-13.667 -10 -23 -10c-14.667 0 -26.667 6.66699 -36 20c-4.66699 7.33301 -8.66699 16.666 -12 27.999c-5.33301 20.667 -13 35 -23 43c-12 10 -27.333 15 -46 15
c-54 0 -93 -28.667 -117 -86c-20 -48 -30 -116 -30 -204zM272.999 402.001c-32 0 -59 -10.332 -81 -30.999c-34 -32 -51 -85.333 -51 -160c0 -58.667 11.5 -103.834 34.5 -135.501s54.5 -47.5 94.5 -47.5c44.667 0 77 21.333 97 64c15.333 33.333 23 78.333 23 135
c0 65.333 -12.667 112.333 -38 141c-20 22.667 -46.333 34 -79 34z" />
    <glyph glyph-name="seven" unicode="7" horiz-adv-x="527" 
d="M107 700l372 -0.000976562v-47c-46 -57.333 -84.833 -115.333 -116.5 -174s-57.5 -121 -77.5 -187c-12 -38 -23.5 -86.833 -34.5 -146.5s-16.5 -108.167 -16.5 -145.5h-90l14 65c9.33301 49.333 20 94 32 134c20 65.333 46 130 78 194
c39.333 78.667 88.333 155.667 147 231h-216c-19.333 0 -37 -3.66699 -53 -11c-24.667 -11.333 -45.667 -30.666 -63 -57.999h-24z" />
    <glyph glyph-name="eight" unicode="8" horiz-adv-x="526" 
d="M330 395v-5.99902c45.333 -21.333 79.666 -46.666 102.999 -75.999c26.667 -33.333 40 -73.333 40 -120c0 -56.667 -18.667 -104.667 -56 -144c-39.333 -42 -89.666 -63 -150.999 -63c-58 0 -107.333 17.667 -148 53c-43.333 38 -65 86.667 -65 146
c0 42.667 13.333 80 40 112c24.667 29.333 60.667 54 108 74v6c-36 11.333 -64.333 31.166 -85 59.499s-31 60.5 -31 96.5c0 48.667 16.5 91 49.5 127s76.167 54 129.5 54c50.667 0 92.667 -16.333 126 -49s50 -71.334 50 -116.001c0 -28.667 -7.33301 -55 -22 -79
c-18.667 -30.667 -48 -55.667 -88 -75zM303 408.001c28.667 18 50 41.667 64 71c10.667 22 16 43.667 16 65c0 34.667 -9.66699 64 -29 88c-22 26.667 -52 40 -90 40c-38.667 0 -68.667 -11 -90 -33c-18 -18 -27 -39 -27 -63c0 -33.333 15.667 -65 47 -95
c24 -22.667 60.333 -47 109 -73zM228 352.001c-37.333 -20 -65.167 -46.333 -83.5 -79s-27.5 -66.334 -27.5 -101.001c0 -41.333 15 -75.666 45 -102.999s65 -41 105 -41c46.667 0 83.667 15.667 111 47c22.667 26 34 54.333 34 85c0 50.667 -26 94 -78 130
c-8.66699 6 -44 26.667 -106 62z" />
    <glyph glyph-name="nine" unicode="9" horiz-adv-x="527" 
d="M387 319c-17.333 -18 -35.666 -32 -54.999 -42c-27.333 -14 -57.333 -21 -90 -21c-52 0 -97.333 19.667 -136 59c-40.667 41.333 -61 92.333 -61 153c0 70.667 19.667 129.334 59 176.001s90.333 70 153 70c76 0 133.667 -38 173 -114c32.667 -62.667 49 -138 49 -226
c0 -121.333 -26 -218.333 -78 -291c-46.667 -64.667 -102 -97 -166 -97c-34.667 0 -67.5 10.667 -98.5 32s-46.5 45.333 -46.5 72c0 15.333 3.16699 26.5 9.5 33.5s14.166 10.5 23.499 10.5c10.667 0 20.167 -3.5 28.5 -10.5s14.833 -20 19.5 -39s12.667 -33.167 24 -42.5
s26 -14 44 -14c54.667 0 94 28.667 118 86c20 47.333 30 115.666 30 204.999zM255 298c35.333 0 64.333 12.668 87 38.001c30 33.333 45 84.333 45 153c0 59.333 -11.5 104.666 -34.5 135.999s-54.833 47 -95.5 47c-44.667 0 -76.667 -21.333 -96 -64
c-15.333 -34 -23 -79 -23 -135c0 -45.333 6.33301 -82 19 -110c19.333 -43.333 52 -65 98 -65z" />
    <glyph glyph-name="colon" unicode=":" 
d="M91 413c0 13.333 4.83301 24.833 14.5 34.5s21.167 14.5 34.5 14.5c12.667 0 24 -4.66699 34 -14s15 -21 15 -35s-4.66699 -25.667 -14 -35s-21 -14 -35 -14c-13.333 0 -24.833 5.16699 -34.5 15.5s-14.5 21.5 -14.5 33.5zM91 35c0 12.667 4.66699 24 14 34s21 15 35 15
c12.667 0 24 -4.66699 34 -14s15 -21 15 -35s-4.66699 -25.667 -14 -35s-21 -14 -35 -14c-12.667 0 -24 4.66699 -34 14s-15 21 -15 35z" />
    <glyph glyph-name="semicolon" unicode=";" 
d="M98 413c0 13.333 4.83301 24.833 14.5 34.5s21.167 14.5 34.5 14.5c12.667 0 24 -4.66699 34 -14s15 -21 15 -35s-4.66699 -25.667 -14 -35s-21 -14 -35 -14c-13.333 0 -24.833 5.16699 -34.5 15.5s-14.5 21.5 -14.5 33.5zM108 -143l-14 14.9971
c16 14.667 28.5 28.5 37.5 41.5s14.833 27.833 17.5 44.5v19c-2 12 -9 19.333 -21 22c-17.333 4.66699 -28.333 9.33398 -33 14.001c-7.33301 7.33301 -11 17.666 -11 30.999c0 14.667 4.66699 27.334 14 38.001s21.333 16 36 16c16.667 0 31.167 -7 43.5 -21
s18.5 -35.667 18.5 -65c0 -33.333 -9.66699 -64.666 -29 -93.999c-15.333 -23.333 -35 -43.666 -59 -60.999z" />
    <glyph glyph-name="less" unicode="&#x3c;" horiz-adv-x="672" 
d="M70 350l461 266l29 -54l-367 -212l367 -212l-29 -54z" />
    <glyph glyph-name="equal" unicode="=" horiz-adv-x="672" 
d="M70 413v70h532v-70h-532zM70 217v70h532v-70h-532z" />
    <glyph glyph-name="greater" unicode="&#x3e;" horiz-adv-x="672" 
d="M602 350l-461 -266l-29 54l367 212l-367 212l29 54z" />
    <glyph glyph-name="question" unicode="?" horiz-adv-x="484" 
d="M159 182l-0.00195312 209.999c6 -1.33301 25 -2.66602 57 -3.99902s48.667 -2 50 -2c19.333 0 36 11.667 50 35c10.667 18 16 39 16 63c0 44 -13.667 87 -41 129s-56 63 -86 63c-11.333 0 -21 -3 -29 -9c-4 -2.66699 -9.66699 -8.66699 -17 -18s-13 -15.666 -17 -18.999
c-8 -6.66699 -16.667 -10 -26 -10c-10 0 -17.833 3.66699 -23.5 11s-8.5 19.666 -8.5 36.999c0 14 10.167 25.167 30.5 33.5s41.5 12.5 63.5 12.5c52 0 101 -24.667 147 -74c50 -53.333 75 -115 75 -185c0 -54.667 -16.333 -95.667 -49 -123c-26.667 -22 -61 -33 -103 -33
c-9.33301 0 -16.666 0.333008 -21.999 1s-13.666 2 -24.999 4v-122h-42zM135.998 34.999c0 16.667 5.16699 29 15.5 37s21.5 12 33.5 12c13.333 0 24.833 -4.83301 34.5 -14.5s14.5 -21.167 14.5 -34.5s-5.16699 -24.833 -15.5 -34.5s-21.5 -14.5 -33.5 -14.5
s-22.667 3.66699 -32 11c-11.333 9.33301 -17 22 -17 38z" />
    <glyph glyph-name="at" unicode="@" horiz-adv-x="939" 
d="M736 568l-83.001 -274.999c-6.66699 -22 -11.5 -40 -14.5 -54s-4.5 -24 -4.5 -30c0 -22.667 5.66699 -39.667 17 -51c8.66699 -8.66699 19 -13 31 -13c44 0 86 24 126 72c45.333 54 68 119.667 68 197c0 102 -36.333 186.333 -109 253c-74.667 68.667 -171 103 -289 103
c-121.333 0 -220.333 -45.333 -297 -136c-69.333 -82 -104 -176 -104 -282c0 -116 39.333 -215.333 118 -298s174 -124 286 -124c42 0 80 4 114 12c60 14 112 40.667 156 80l22 -28c-50.667 -37.333 -102 -64 -154 -80c-42 -12.667 -87 -19 -135 -19
c-141.333 0 -255.666 52 -342.999 156c-75.333 89.333 -113 190 -113 302c0 122.667 42 228 126 316c86.667 90.667 194 136 322 136c117.333 0 216.666 -32.333 297.999 -97c91.333 -72.667 137 -170.667 137 -294c0 -82.667 -22 -153.334 -66 -212.001
c-46 -61.333 -103.667 -92 -173 -92c-21.333 0 -40.666 3.66699 -57.999 11c-24.667 10 -44.667 27.333 -60 52c-24 -18.667 -46.833 -32.167 -68.5 -40.5s-45.834 -12.5 -72.501 -12.5c-47.333 0 -86 17 -116 51s-45 80 -45 138c0 71.333 23.667 134 71 188
c52 59.333 117.333 89 196 89c20.667 0 39.334 -3.66699 56.001 -11c23.333 -10 44.333 -28 63 -54l15 47h83zM545.999 218.001l68.001 240c-5.33301 30 -17.166 53.5 -35.499 70.5s-38.833 25.5 -61.5 25.5c-42.667 0 -81.334 -25.833 -116.001 -77.5
s-52 -110.167 -52 -175.5c0 -48 5.33301 -83 16 -105c13.333 -26.667 36.333 -40 69 -40c25.333 0 48.666 7 69.999 21c16 10 30 23.667 42 41z" />
    <glyph glyph-name="A" unicode="A" horiz-adv-x="691" 
d="M230 621l0.000976562 25c39.333 10.667 66 23.334 80 38.001c11.333 11.333 19.333 28 24 50h43l183 -599c11.333 -36.667 23 -61.667 35 -75c14.667 -16.667 38.334 -27.667 71.001 -33v-27h-236v27c25.333 0 42.666 3.33301 51.999 10s14 16.334 14 29.001
c0 5.33301 -0.666992 10.666 -2 15.999l-7 28l-30 106h-250l-36 -106c-2.66699 -6.66699 -4.33398 -14.334 -5.00098 -23.001s-1 -17.334 -1 -26.001c0 -9.33301 4.66699 -16.666 14 -21.999s22 -9.33301 38 -12v-27h-200v27c27.333 6 49.5 16.5 66.5 31.5
s29.5 34.167 37.5 57.5l156 447c2 6.66699 3.66699 12.667 5 18s2 10 2 14c0 8.66699 -2.5 15.667 -7.5 21s-13.167 8 -24.5 8c-6.66699 0 -14 -1 -22 -3zM441.001 258l-105 336l-5 1l-111 -337h221z" />
    <glyph glyph-name="B" unicode="B" horiz-adv-x="656" 
d="M45 700l301 -0.000976562c79.333 0 137.333 -18.667 174 -56c27.333 -28 41 -63.333 41 -106s-14.333 -78.667 -43 -108c-26 -26.667 -59.667 -44 -101 -52l-2 -5c69.333 -10 120.666 -36.333 153.999 -79c25.333 -32.667 38 -69 38 -109
c0 -49.333 -16.333 -90.666 -49 -123.999c-39.333 -40.667 -97.666 -61 -174.999 -61h-338v27c30.667 0 51.667 10.667 63 32c7.33301 14 11 35 11 63v456c0 31.333 -5.66699 55 -17 71s-30.333 24 -57 24v27zM199 384.999h124c60 0 102.667 17 128 51
c18 24 27 55.667 27 95c0 53.333 -21 90 -63 110c-24 11.333 -55.667 17 -95 17h-67c-21.333 0 -36.333 -5.66699 -45 -17c-6 -8 -9 -17.667 -9 -29v-227zM199 342.999v-267c0 -14 8 -23.667 24 -29c10 -3.33301 23.333 -5 40 -5h70c60 0 105.333 12 136 36s46 60 46 108
c0 52 -15.5 91.167 -46.5 117.5s-78.167 39.5 -141.5 39.5h-128z" />
    <glyph glyph-name="C" unicode="C" horiz-adv-x="673" 
d="M590 551l-25 0.00195312c-13.333 36 -37.5 65.167 -72.5 87.5s-72.5 33.5 -112.5 33.5c-66 0 -120.333 -23.667 -163 -71c-50.667 -56.667 -76 -140.334 -76 -251.001c0 -89.333 20.333 -164 61 -224c44 -65.333 103.333 -98 178 -98c53.333 0 100 13.667 140 41
s66 65.666 78 114.999h25l-6 -140c-27.333 -18 -60 -32.167 -98 -42.5s-79 -15.5 -123 -15.5h-16c-96 0 -176.333 38.333 -241 115c-60 71.333 -90 153.666 -90 246.999c0 94 30.667 176 92 246c70.667 80.667 164.667 121 282 121c34 0 64 -3.16699 90 -9.5
s50 -15.166 72 -26.499z" />
    <glyph glyph-name="D" unicode="D" horiz-adv-x="733" 
d="M320 700c84.667 0 162 -22.667 232 -68c92 -59.333 138 -143 138 -251c0 -50.667 -10 -105.667 -30 -165c-23.333 -68.667 -61 -120.667 -113 -156c-58.667 -40 -135.334 -60 -230.001 -60h-272v27c26.667 0 45.834 7.83301 57.501 23.5s17.5 39.5 17.5 71.5v456
c0 31.333 -4.66699 54 -14 68c-12 18 -32.333 27 -61 27v27h275zM200 586v-475.999c0 -29.333 5.33301 -48 16 -56s31.334 -12 62.001 -12c109.333 0 189 24.667 239 74s75 124.666 75 225.999c0 127.333 -34 216.333 -102 267c-44 32.667 -101.667 49 -173 49h-57
c-26.667 0 -44.334 -8.33301 -53.001 -25c-4.66699 -9.33301 -7 -25 -7 -47z" />
    <glyph glyph-name="E" unicode="E" horiz-adv-x="629" 
d="M535 700l22 -137.001h-25c-12 36 -36.333 62 -73 78c-26 11.333 -54 17 -84 17h-122c-18.667 0 -32.334 -3.66699 -41.001 -11s-13 -20.666 -13 -39.999v-205h156c32 0 53.333 3.66699 64 11c14 9.33301 21 28 21 56h26v-179h-26v7c0 16 -5.5 30.5 -16.5 43.5
s-25.5 19.5 -43.5 19.5h-181v-254c0 -29.333 6.5 -47.333 19.5 -54s39.167 -10 78.5 -10h76c44.667 0 81.167 7.66699 109.5 23s52.5 41 72.5 77h25l-23 -142h-512v27c30.667 0 51.667 10.667 63 32c7.33301 14 11 35 11 63v456c0 29.333 -3.33301 50.333 -10 63
c-11.333 21.333 -32.666 32 -63.999 32v27h490z" />
    <glyph glyph-name="F" unicode="F" horiz-adv-x="573" 
d="M532 700l20.001 -137h-25c-10 25.333 -24.667 46 -44 62c-27.333 22 -62 33 -104 33h-126c-24.667 0 -41.334 -6.33301 -50.001 -19c-5.33301 -8 -8 -19.667 -8 -35v-202h145c24 0 42.333 5.16699 55 15.5s19 27.5 19 51.5h26v-179h-26v14
c0 18.667 -6.33301 32.667 -19 42s-31 14 -55 14h-145v-238c0 -33.333 5.83301 -57.5 17.5 -72.5s31.5 -22.5 59.5 -22.5v-27h-227v27c28.667 0 48 9 58 27c8 14 12 36.667 12 68v456c0 30.667 -4 53 -12 67c-10.667 18.667 -30 28 -58 28v27h487z" />
    <glyph glyph-name="G" unicode="G" horiz-adv-x="752" 
d="M696 399l0.000976562 -27.002c-24 -3.33301 -41.167 -11.666 -51.5 -24.999s-15.5 -33.666 -15.5 -60.999v-135c0 -30 4.83301 -52 14.5 -66s27.167 -22.333 52.5 -25c-38 -19.333 -80 -35.666 -126 -48.999c-58.667 -16.667 -115.667 -25 -171 -25
c-103.333 0 -187.5 33.5 -252.5 100.5s-97.5 154.5 -97.5 262.5c0 114.667 37 205.334 111 272.001c68.667 62 155.667 93 261 93c40 0 74 -3 102 -9s55.333 -15.667 82 -29l6 -126h-26c-13.333 39.333 -39.333 69.5 -78 90.5s-79 31.5 -121 31.5c-76 0 -135 -27 -177 -81
c-45.333 -58.667 -68 -139.334 -68 -242.001c0 -97.333 24 -176 72 -236c45.333 -56.667 101.666 -85 168.999 -85c74 0 123.333 15 148 45c12.667 15.333 19 37.333 19 66v126v16c0 11.333 -0.5 20.166 -1.5 26.499s-3.83301 15.5 -8.5 27.5c-5.33301 10 -12.5 18 -21.5 24
s-22.833 10.333 -41.5 13v27h220z" />
    <glyph glyph-name="H" unicode="H" horiz-adv-x="762" 
d="M273 700v-26.998c-26 0 -44.833 -7.83301 -56.5 -23.5s-17.5 -39.5 -17.5 -71.5v-179h365v179c0 32.667 -5.5 56.667 -16.5 72s-30.167 23 -57.5 23v27h227v-27c-30 0 -50.333 -10 -61 -30c-8 -14.667 -12 -36.334 -12 -65.001v-456c0 -37.333 6.66699 -63 20 -77
c11.333 -12 29 -18 53 -18v-27h-227v27c26 0 44.833 7.83301 56.5 23.5s17.5 39.5 17.5 71.5v235h-365v-235c0 -32.667 5.5 -56.667 16.5 -72s30.167 -23 57.5 -23v-27h-228v27c31.333 0 52.333 10 63 30c7.33301 13.333 11 35 11 65v456
c0 29.333 -3.66699 50.666 -11 63.999c-11.333 20.667 -32.333 31 -63 31v27h228z" />
    <glyph glyph-name="I" unicode="I" horiz-adv-x="320" 
d="M45 700h230v-27c-32 0 -53.333 -10.333 -64 -31c-7.33301 -14 -11 -35.333 -11 -64v-456c0 -29.333 3.33301 -50.333 10 -63c11.333 -21.333 33 -32 65 -32v-27h-230v27c32 0 53.667 11.667 65 35c6.66699 14 10 34 10 60v456c0 35.333 -6 60 -18 74s-31 21 -57 21v27z
" />
    <glyph glyph-name="J" unicode="J" horiz-adv-x="473" 
d="M428 700l0.00195312 -27c-28.667 0 -48.334 -8 -59.001 -24s-16 -39.667 -16 -71v-383c0 -68.667 -13 -120 -39 -154c-28 -36.667 -70.333 -55 -127 -55c-36.667 0 -71.334 10.667 -104.001 32c-36.667 24 -55 53.333 -55 88c0 19.333 4.5 33.5 13.5 42.5
s20.167 13.5 33.5 13.5s24.333 -5.33301 33 -16c11.333 -13.333 17 -34 17 -62c0 -22.667 8.66699 -38.667 26 -48c10 -5.33301 20.667 -8 32 -8c30 0 52.333 8.33301 67 25s22 42 22 76l1 40v409c0 31.333 -4.66699 54 -14 68c-12 18 -32 27 -60 27v27h229z" />
    <glyph glyph-name="K" unicode="K" horiz-adv-x="639" 
d="M275 700v-27c-28.667 0 -48.334 -8 -59.001 -24s-16 -39.667 -16 -71v-260l241 266l17 22c4.66699 4.66699 8.83398 10.334 12.501 17.001s5.5 12.667 5.5 18c0 9.33301 -4.83301 16.833 -14.5 22.5s-20.834 8.5 -33.501 8.5l-15 1v27h221v-27
c-30 -4 -56.333 -14 -79 -30c-13.333 -9.33301 -30 -25 -50 -47l-157 -171l188 -323l20 -30c10 -14.667 22.167 -25.834 36.5 -33.501s29.833 -11.5 46.5 -11.5v-27h-216v27h14c13.333 0 22.333 1.83301 27 5.5s7 8.5 7 14.5c0 5.33301 -2.66699 13.666 -8 24.999l-13 25
l-159 267l-91 -100v-142c0 -31.333 4.66699 -54 14 -68c12 -18 32.333 -27 61 -27v-27h-230v27c28 0 48 9 60 27c10 15.333 15 38 15 68v456c0 30.667 -4.66699 53.334 -14 68.001c-11.333 18 -31.666 27 -60.999 27v27h230z" />
    <glyph glyph-name="L" unicode="L" horiz-adv-x="575" 
d="M54 700l218.999 -0.000976562v-27c-48.667 0 -73 -28.667 -73 -86v-464c0 -30 3.5 -51 10.5 -63s22.5 -18 46.5 -18h88c44.667 0 81.334 6.66699 110.001 20c33.333 16 60 42.667 80 80h26l-24 -142h-492v27c30 0 50.667 8.66699 62 26c8.66699 13.333 13 36.333 13 69
v475c0 28.667 -8 49.334 -24 62.001c-11.333 9.33301 -25.333 14 -42 14v27z" />
    <glyph glyph-name="M" unicode="M" horiz-adv-x="944" 
d="M304 700l153 -477.002h6l176 477h163v-27c-25.333 0 -42.833 -4.16699 -52.5 -12.5s-14.5 -20.166 -14.5 -35.499c0 -4.66699 0.166992 -8.66699 0.5 -12s1.5 -10 3.5 -20l87 -465c4.66699 -26 10.667 -45.333 18 -58c16 -28.667 39.333 -43 70 -43h5v-27h-242v27
c26.667 0 45.834 4 57.501 12s17.5 17.667 17.5 29c0 10 -1 20.833 -3 32.5l-5 28.5l-87 456h-5l-191 -508h-39l-169 508h-4l-91 -459l-3.5 -20.5c-1 -5.66699 -1.5 -11.167 -1.5 -16.5c0 -19.333 4.33301 -33.666 13 -42.999c11.333 -12.667 31 -19 59 -19v-27h-208v27
c26.667 2.66699 46.5 11.667 59.5 27s22.833 39 29.5 71l88 456c1.33301 8.66699 2.66602 16.834 3.99902 24.501s2 14.167 2 19.5c0 15.333 -4 26.666 -12 33.999c-10.667 9.33301 -28 14 -52 14v27h168z" />
    <glyph glyph-name="N" unicode="N" horiz-adv-x="762" 
d="M717 700l0.000976562 -26.999c-32.667 -4.66699 -54.334 -15.334 -65.001 -32.001c-6 -9.33301 -9 -24 -9 -44v-13l-1 -15v-583h-55l-413 614h-6v-505c0 -20.667 7.66699 -37.167 23 -49.5s34.333 -18.5 57 -18.5v-27h-203v27c32 0 54 9.33301 66 28
c10 15.333 15 39 15 71v456c0 34 -9.33301 58.667 -28 74c-14 11.333 -31.667 17 -53 17v27h173l375 -570h7v435c0 44 -7.66699 74.333 -23 91c-10 10.667 -24 16 -42 16l-15 1v27h197z" />
    <glyph glyph-name="O" unicode="O" horiz-adv-x="756" 
d="M49 361c0 119.333 40.333 211.667 121 277c62.667 50.667 131.667 76 207 76c45.333 0 91 -10.667 137 -32c56 -26 100.333 -62.667 133 -110c40 -58 60 -128.333 60 -211c0 -122.667 -37.667 -218.667 -113 -288c-62.667 -58 -135 -87 -217 -87
c-79.333 0 -150.333 28.667 -213 86c-76.667 70 -115 166.333 -115 289zM378 672.001c-58.667 0 -109.668 -22 -153.001 -66c-55.333 -56 -83 -138.333 -83 -247c0 -96.667 19.667 -175 59 -235c42 -64 101 -96 177 -96c82 0 144 37 186 111c34 60 51 133.333 51 220
c0 108.667 -27.667 191 -83 247c-43.333 44 -94.666 66 -153.999 66z" />
    <glyph glyph-name="P" unicode="P" horiz-adv-x="614" 
d="M198 264l0.000976562 -144c0 -62 26.667 -93 80 -93v-27h-233v27c31.333 0 52.333 10.667 63 32c6.66699 12.667 10 33 10 61v460c0 28 -3.33301 48.333 -10 61c-11.333 21.333 -32.333 32 -63 32v27h295c94 0 161.333 -24.667 202 -74c29.333 -35.333 44 -83 44 -143
c0 -84 -31.333 -144.333 -94 -181c-40.667 -24 -89.334 -36 -146.001 -36l-44 -2h-104zM198.001 579l-0.00195312 -273h79c62.667 0 108.334 7 137.001 21c52.667 26 79 78 79 156c0 75.333 -25.333 126.333 -76 153c-27.333 14.667 -64.666 22 -111.999 22
c-50 0 -81.333 -5 -94 -15c-8 -6 -12 -20 -12 -42v-12z" />
    <glyph glyph-name="Q" unicode="Q" horiz-adv-x="756" 
d="M650 -72l24 0.00390625c-6.66699 -29.333 -20.334 -53.666 -41.001 -72.999s-45.667 -29 -75 -29c-30 0 -58 11 -84 33c-33.333 28.667 -58 71 -74 127c-6 -0.666992 -14.667 -1 -26 -1c-86.667 0 -161.334 33 -224.001 99c-67.333 71.333 -101 163.666 -101 276.999
c0 119.333 40.333 211.666 121 276.999c62.667 50.667 132 76 208 76c80.667 0 152.334 -27 215.001 -81c76 -65.333 114 -156 114 -272c0 -80.667 -18.667 -153.334 -56 -218.001c-42 -72.667 -99.667 -119.334 -173 -140.001c8 -28 18.667 -51.667 32 -71
c20.667 -30.667 45.334 -46 74.001 -46c11.333 0 23.333 4.16699 36 12.5s22.667 18.166 30 29.499zM282 151.004v25.0029c5.33301 2 11.333 3.33301 18 4s13 1 19 1c36.667 0 65 -8.83301 85 -26.5s39 -53.5 57 -107.5c47.333 20 84.833 58.167 112.5 114.5
s41.5 124.166 41.5 203.499c0 103.333 -26 182.666 -78 237.999c-43.333 46 -95.666 69 -156.999 69c-55.333 0 -104 -18.667 -146 -56c-61.333 -54.667 -92 -140.334 -92 -257.001c0 -90.667 16.667 -165 50 -223c41.333 -72 102.666 -108 183.999 -108h12
c-12 51.333 -23.833 84.833 -35.5 100.5s-26.167 23.5 -43.5 23.5z" />
    <glyph glyph-name="R" unicode="R" horiz-adv-x="642" 
d="M332 700c96.667 0 165.335 -26.665 206.002 -79.998c26 -34 39 -75 39 -123c0 -54 -17.667 -98.333 -53 -133c-28 -27.333 -63 -46 -105 -56l120 -206l20 -30c10 -14.667 22.167 -25.834 36.5 -33.501s29.833 -11.5 46.5 -11.5v-27h-223v27h13
c15.333 0 26.833 1.33301 34.5 4s11.5 8 11.5 16c0 6 -2.83301 13.5 -8.5 22.5l-17.5 27.5l-115 195c-4.66699 -0.666992 -8.83398 -1 -12.501 -1h-7.5h-18c-6.66699 0 -13.667 0.333008 -21 1h-11c-18.667 0 -41 2.33301 -67 7v-177c0 -29.333 3.33301 -50.333 10 -63
c11.333 -21.333 33 -32 65 -32v-27h-230v27c30 0 50.667 9 62 27c8.66699 14 13 36.667 13 68v455c0 30 -5.33301 52.167 -16 66.5s-30.334 24.166 -59.001 29.499v27h287zM200.001 609.002v-271c27.333 -4 52.333 -6 75 -6c68 0 120 15.833 156 47.5s54 72.167 54 121.5
c0 62.667 -23.333 107 -70 133c-28.667 16 -64 24 -106 24c-42.667 0 -71.5 -2.83301 -86.5 -8.5s-22.5 -19.167 -22.5 -40.5z" />
    <glyph glyph-name="S" unicode="S" horiz-adv-x="620" 
d="M490 547l-24.998 0.000976562c-11.333 37.333 -35 67.5 -71 90.5s-72 34.5 -108 34.5c-38 0 -68.5 -9.16699 -91.5 -27.5s-34.5 -43.166 -34.5 -74.499c0 -30 9.66699 -55.667 29 -77s68 -49.5 146 -84.5s129.333 -62.833 154 -83.5c40.667 -34 61 -79.667 61 -137
c0 -49.333 -17.333 -93.333 -52 -132c-42 -46.667 -98.667 -70 -170 -70c-44.667 0 -85.5 5.33301 -122.5 16s-79.833 28.334 -128.5 53.001l-7 132h25c9.33301 -42.667 35.833 -79.834 79.5 -111.501s90.167 -47.5 139.5 -47.5c47.333 0 85.666 12 114.999 36
s44 54.667 44 92c0 51.333 -25 91.666 -75 120.999c-13.333 8 -43 22 -89 42c-78.667 34.667 -132.667 65.667 -162 93c-36 33.333 -54 76 -54 128c0 51.333 19.167 93.166 57.5 125.499s89.166 48.5 152.499 48.5c27.333 0 55.333 -4 84 -12s59.667 -21.667 93 -41z" />
    <glyph glyph-name="T" unicode="T" horiz-adv-x="594" 
d="M182 0v26.9971c28 0 47.5 7.33301 58.5 22s16.5 38.334 16.5 71.001v470c0 28.667 -4.66699 47.167 -14 55.5s-24.666 12.5 -45.999 12.5c-26 0 -50.333 -5.33301 -73 -16c-32 -15.333 -59.333 -40.333 -82 -75h-25l30 133h500l30 -133h-25
c-20.667 32 -44.5 55.167 -71.5 69.5s-54.5 21.5 -82.5 21.5c-22 0 -37 -3.33301 -45 -10c-10.667 -9.33301 -16 -28.666 -16 -57.999v-470c0 -31.333 5.66699 -54.666 17 -69.999s30.666 -23 57.999 -23v-27h-230z" />
    <glyph glyph-name="U" unicode="U" horiz-adv-x="753" 
d="M708 700l0.000976562 -27c-31.333 0 -53 -10.667 -65 -32c-6.66699 -12 -10 -28.333 -10 -49v-341c0 -65.333 -11.333 -118 -34 -158c-40 -71.333 -112.667 -107 -218 -107c-109.333 0 -184.333 30.667 -225 92c-24.667 37.333 -37 91 -37 161v339
c0 29.333 -3.33301 50.333 -10 63c-11.333 21.333 -32.666 32 -63.999 32v27h229v-27c-28.667 0 -48.334 -8 -59.001 -24s-16 -39.667 -16 -71v-348c0 -70.667 12.333 -121 37 -151c28 -34 77.667 -51 149 -51c88.667 0 148.667 31.333 180 94c17.333 34.667 26 83 26 145
v305c0 34.667 -4 59 -12 73c-10.667 18.667 -31.334 28 -62.001 28v27h191z" />
    <glyph glyph-name="V" unicode="V" horiz-adv-x="709" 
d="M241 700l-0.000976562 -27.001l-15 -3c-13.333 0 -22.666 -3 -27.999 -9s-8 -12.333 -8 -19l5 -23l167 -503h6l169 453c2 6 4.66699 13.333 8 22s5 16.334 5 23.001c0 18 -6 32.333 -18 43s-26 16 -42 16v27h202v-27c-23.333 0 -42.833 -6.66699 -58.5 -20
s-28.167 -32.333 -37.5 -57l-224 -610h-54l-208 605c-9.33301 28 -21 48 -35 60s-33.333 19.333 -58 22v27h224z" />
    <glyph glyph-name="W" unicode="W" horiz-adv-x="955" 
d="M238 700l-0.00390625 -26.998c-13.333 0 -24.166 -2.83301 -32.499 -8.5s-12.5 -12.834 -12.5 -21.501c0 -9.33301 0.5 -18.333 1.5 -27s4.5 -22.334 10.5 -41.001l141 -452h5l116 363l-28 102c-8 28.667 -18.333 49.334 -31 62.001c-15.333 15.333 -36 23 -62 23v27h225
v-27c-22.667 -4 -37.667 -9.16699 -45 -15.5s-11 -17.833 -11 -34.5c0 -3.33301 0.833008 -8.5 2.5 -15.5s3.83398 -15.167 6.50098 -24.5l130 -448h6l138 430l4 16l5 17c2 7.33301 3.66699 13.666 5 18.999s2 11 2 17c0 11.333 -4.16699 20.833 -12.5 28.5
s-18.166 11.5 -29.499 11.5l-15 -1v27h181v-27h-6c-23.333 0 -43.333 -14.333 -60 -43c-8 -13.333 -17.333 -37.333 -28 -72l-187 -572h-43l-123 419h-5l-132 -419h-51l-180 586c-11.333 38 -27.666 65.333 -48.999 82c-12 9.33301 -27 15.333 -45 18l-12 1v27h221z" />
    <glyph glyph-name="X" unicode="X" horiz-adv-x="700" 
d="M54 700l230.999 0.000976562v-27c-17.333 -1.33301 -29.666 -3 -36.999 -5s-12.333 -5.66699 -15 -11c-1.33301 -2.66699 -1.33301 -7 0 -13c1.33301 -5.33301 7.66602 -17 18.999 -35l107 -173l114 162c10.667 14.667 17 24 19 28c6 10 9 17.667 9 23
c0 6.66699 -2.33301 11.334 -7 14.001s-11.334 4.66699 -20.001 6l-31 4v27h208v-27c-33.333 -6 -58.666 -13.833 -75.999 -23.5s-35.333 -27.834 -54 -54.501l-138 -197l187 -299c12 -20 24 -34.667 36 -44c18.667 -14.667 43 -24 73 -28v-27h-245v27
c20 2.66699 32.667 4.66699 38 6c13.333 4 20 10 20 18c0 8.66699 -2.16699 17.5 -6.5 26.5s-10.833 20.5 -19.5 34.5l-132 216l-139 -202c-10.667 -15.333 -18.334 -29 -23.001 -41c-1.33301 -4 -2.66602 -8.66699 -3.99902 -14c0 -12.667 4.16699 -23.167 12.5 -31.5
s23.833 -12.5 46.5 -12.5v-27h-206v27c18.667 5.33301 36.334 14.333 53.001 27c23.333 17.333 45.333 41.333 66 72l167 245l-146 236c-12.667 19.333 -29 35.166 -49 47.499s-39.333 18.5 -58 18.5v27z" />
    <glyph glyph-name="Y" unicode="Y" horiz-adv-x="654" 
d="M223 0v27c25.333 0 44.166 6.16699 56.499 18.5s18.5 34.5 18.5 66.5v184l-180 313c-13.333 23.333 -27.5 39.833 -42.5 49.5s-34.5 14.5 -58.5 14.5v27h229v-27c-22 0 -36.5 -1.83301 -43.5 -5.5s-10.5 -9.5 -10.5 -17.5c0 -5.33301 2.66699 -14 8 -26s10 -22 14 -30
l142 -241h5l125 238c2.66699 4.66699 7.16699 15.167 13.5 31.5s9.5 26.5 9.5 30.5c0 8 -3.16699 13 -9.5 15s-17.5 3.66699 -33.5 5v27h171v-27l-21 -4c-17.333 -2 -29.333 -5 -36 -9c-11.333 -6.66699 -23.666 -21 -36.999 -43c-10 -16.667 -16.167 -27.5 -18.5 -32.5
l-7.5 -15.5l-139 -277v-180c0 -26.667 3.33301 -45.667 10 -57c11.333 -18.667 33 -28 65 -28v-27h-230z" />
    <glyph glyph-name="Z" unicode="Z" horiz-adv-x="656" 
d="M553 149h25.998l-47 -149h-487l421 658h-103c-54.667 0 -100.667 -6.33301 -138 -19c-45.333 -15.333 -83.666 -41.333 -114.999 -78h-26l48 139h462l-419 -658h90c66.667 0 118.334 4.33301 155.001 13c68.667 16 113 47.333 133 94z" />
    <glyph glyph-name="bracketleft" unicode="[" horiz-adv-x="316" 
d="M246 819v-25.001h-20c-34 0 -55.333 -3.16699 -64 -9.5s-13 -24.5 -13 -54.5v-779c0 -19.333 5.33301 -31.666 16 -36.999s28.667 -8 54 -8h27v-25h-176v938h176z" />
    <glyph glyph-name="backslash" unicode="\" horiz-adv-x="781" 
d="M616 -141l-490 961l40 21l489 -963z" />
    <glyph glyph-name="bracketright" unicode="]" horiz-adv-x="316" 
d="M70 819h176.001v-938h-176v25c45.333 0 72.666 2.83301 81.999 8.5s14 17.834 14 36.501v798c0 21.333 -5.33301 34.166 -16 38.499s-31 6.5 -61 6.5h-19v25z" />
    <glyph glyph-name="asciicircum" unicode="^" horiz-adv-x="398" 
d="M339 557l-14 -18.999c-28 15.333 -52.333 30.666 -73 45.999l-53 42c-50 -40 -91.667 -69.333 -125 -88l-15 18c24.667 15.333 49 36.333 73 63s43 53.667 57 81h21c12.667 -24 25.334 -44 38.001 -60c8 -10 20.667 -23.333 38 -40l28 -25
c9.33301 -8 17.666 -14 24.999 -18z" />
    <glyph glyph-name="underscore" unicode="_" horiz-adv-x="532" 
d="M0 -70v70h532v-70h-532z" />
    <glyph glyph-name="grave" unicode="`" horiz-adv-x="279" 
d="M25 700h118l55 -143h-22z" />
    <glyph glyph-name="a" unicode="a" horiz-adv-x="480" 
d="M385 355v-273.003c0 -20.667 3.5 -36 10.5 -46s19.5 -15 37.5 -15h8v-21h-116v47h-4c-44 -25.333 -76.5 -41.333 -97.5 -48s-42.5 -10 -64.5 -10c-40 0 -69.667 13 -89 39c-14 19.333 -21 42.333 -21 69c0 48.667 35 91.334 105 128.001c26 13.333 62.667 29.333 110 48
l61 25v13c0 42 -3.33301 71 -10 87c-11.333 26 -34 39 -68 39c-40 0 -67 -14 -81 -42c-3.33301 -6.66699 -6.5 -17.167 -9.5 -31.5s-7.5 -25.166 -13.5 -32.499s-15.667 -11 -29 -11c-8.66699 0 -16 2.66699 -22 8c-8.66699 7.33301 -13 18 -13 32c0 30 17 56.333 51 79
s75 34 123 34c34 0 61.333 -6 82 -18c33.333 -19.333 50 -52.666 50 -99.999zM325 91.9971l-0.000976562 164c-82.667 -34 -137.167 -62.833 -163.5 -86.5s-39.5 -48.167 -39.5 -73.5c0 -16 5.83301 -29.833 17.5 -41.5s28.834 -17.5 51.501 -17.5
c20 0 43.667 6.33301 71 19c20.667 9.33301 41.667 21.333 63 36z" />
    <glyph glyph-name="b" unicode="b" horiz-adv-x="509" 
d="M155 722v-313.998c14.667 19.333 32.834 35 54.501 47s46.5 18 74.5 18c51.333 0 93.5 -22 126.5 -66s49.5 -98.333 49.5 -163s-16 -121.667 -48 -171c-36.667 -56 -85.667 -84 -147 -84c-20.667 0 -38.5 2.66699 -53.5 8s-36.167 20 -63.5 44h-5l-26 -52h-22v607
c0 16.667 -3 29 -9 37s-16.333 12 -31 12h-10v21c19.333 5.33301 34.666 11.666 45.999 18.999c14 9.33301 26.333 21.666 37 36.999h27zM155 345.002l0.000976562 -223c0 -31.333 11 -56 33 -74c18.667 -15.333 43.667 -23 75 -23c50 0 85 27.333 105 82
c12.667 34 19 78 19 132c0 62 -11.667 110.5 -35 145.5s-53 52.5 -89 52.5c-24.667 0 -48.834 -9.83301 -72.501 -29.5s-35.5 -40.5 -35.5 -62.5z" />
    <glyph glyph-name="c" unicode="c" horiz-adv-x="468" 
d="M404 94l22.001 -21.002c-28 -27.333 -54 -47.333 -78 -60c-29.333 -16 -59.333 -24 -90 -24c-58.667 0 -108.167 23.833 -148.5 71.5s-60.5 102.834 -60.5 165.501c0 64.667 19.5 122 58.5 172s88.167 75 147.5 75c37.333 0 71 -11.167 101 -33.5s45 -48.833 45 -79.5
c0 -16 -3.83301 -27.5 -11.5 -34.5s-16.5 -10.5 -26.5 -10.5c-16.667 0 -28.667 6.66699 -36 20c-4.66699 8.66699 -8 21.834 -10 39.501s-6 30.834 -12 39.501c-11.333 15.333 -31 23 -59 23c-45.333 0 -78.666 -22 -99.999 -66c-16 -33.333 -24 -75.666 -24 -126.999
c0 -56.667 16.667 -105.334 50 -146.001s73 -61 119 -61c21.333 0 41.666 5.16699 60.999 15.5s36.666 24.166 51.999 41.499z" />
    <glyph glyph-name="d" unicode="d" horiz-adv-x="504" 
d="M380 722l24.002 0.00390625v-653c0 -14.667 4 -26.334 12 -35.001s19.333 -13 34 -13h9v-21h-115v60h-4c-10 -20 -26 -36.833 -48 -50.5s-46 -20.5 -72 -20.5c-49.333 0 -89.666 19.333 -120.999 58c-33.333 40.667 -50 95 -50 163s13.333 126 40 174
c32.667 59.333 79.667 89 141 89c45.333 0 81.666 -14.667 108.999 -44h5v171c0 17.333 -2.83301 29.166 -8.5 35.499s-15.834 9.5 -30.501 9.5h-8v21c19.333 5.33301 34.666 11.666 45.999 18.999c14 9.33301 26.333 21.666 37 36.999zM344.002 143.004v204
c0 19.333 -7 37.333 -21 54c-20 24 -48.333 36 -85 36c-44.667 0 -76.667 -25.333 -96 -76c-13.333 -34.667 -20 -76 -20 -124c0 -70 12.667 -124 38 -162c22 -33.333 49.333 -50 82 -50c26 0 49.5 11.5 70.5 34.5s31.5 50.833 31.5 83.5z" />
    <glyph glyph-name="e" unicode="e" horiz-adv-x="476" 
d="M412 98l15 -21c-34 -32.667 -65.667 -56 -95 -70c-25.333 -12 -52 -18 -80 -18c-58.667 0 -107.167 24 -145.5 72s-57.5 104.667 -57.5 170c0 72 18.667 130.333 56 175s82.333 67 135 67c52 0 94.667 -22.5 128 -67.5s50 -99.5 50 -163.5h-297
c0 -52 10.667 -96.333 32 -133c27.333 -47.333 68 -71 122 -71c26.667 0 51.667 5.66699 75 17c17.333 8.66699 38 23 62 43zM121 278l225 -0.000976562c0 48.667 -11 87.334 -33 116.001s-49 43 -81 43c-30.667 0 -55.667 -11.333 -75 -34c-24 -28 -36 -69.667 -36 -125z
" />
    <glyph glyph-name="f" unicode="f" horiz-adv-x="285" 
d="M45 472l70.001 0.000976562c0 10 -1 21.333 -3 34l-5.5 35.5c-1.66699 11 -3.5 25.5 -5.5 43.5s-3 33 -3 45c0 25.333 10 47 30 65s44 27 72 27c26.667 0 48.167 -5 64.5 -15s24.5 -21.667 24.5 -35c0 -8.66699 -2 -16 -6 -22c-6 -8.66699 -15.667 -13 -29 -13
c-9.33301 0 -17 1.33301 -23 4s-12.667 6.5 -20 11.5s-13 8.5 -17 10.5c-10.667 6 -19.334 9 -26.001 9c-10 0 -18.5 -3.5 -25.5 -10.5s-10.5 -16.5 -10.5 -28.5c0 -17.333 5 -42.833 15 -76.5s19.667 -61.834 29 -84.501h74v-24h-74v-379c0 -14.667 4 -26.334 12 -35.001
s19.333 -13 34 -13h16v-21h-184v21h15c14 0 25.333 4.33301 34 13s13 20.334 13 35.001v379h-71v24z" />
    <glyph glyph-name="g" unicode="g" horiz-adv-x="542" 
d="M130 162c-40 34.667 -60.0029 79.0039 -60.0029 133.004c0 45.333 14 84.666 42 117.999c34 40 81.333 60 142 60c28.667 0 52.334 -2.66699 71.001 -8c30 -8.66699 57.333 -24.334 82 -47.001c11.333 18.667 25.833 34.334 43.5 47.001s35.5 19 53.5 19
c16 0 28.167 -3.83301 36.5 -11.5s12.5 -16.834 12.5 -27.501c0 -12 -2.33301 -21.667 -7 -29c-6.66699 -10.667 -16.667 -16 -30 -16c-9.33301 0 -17.666 2 -24.999 6c-10.667 6 -16.667 9 -18 9h-9c-7.33301 -1.33301 -14.666 -6.33301 -21.999 -15l-9 -9
c8 -12.667 14.167 -27.5 18.5 -44.5s6.5 -33.833 6.5 -50.5c0 -48.667 -16.5 -89.834 -49.5 -123.501s-76.833 -50.5 -131.5 -50.5c-22 0 -42.167 2 -60.5 6s-37.5 11.333 -57.5 22c-15.333 -5.33301 -28.5 -13.833 -39.5 -25.5s-16.5 -23.5 -16.5 -35.5
c0 -15.333 7.83301 -26.5 23.5 -33.5s49.834 -15.5 102.501 -25.5l86 -16c67.333 -12.667 113.833 -26.834 139.5 -42.501s38.5 -38.167 38.5 -67.5c0 -46 -27 -81.333 -81 -106c-44 -20 -95.667 -30 -155 -30c-69.333 0 -122.333 11.333 -159 34
c-32.667 20 -49 46.667 -49 80c0 20.667 8 39 24 55c12.667 12.667 31.667 25.334 57 38.001v6c-21.333 4 -39 14.333 -53 31s-21 36 -21 58c0 20 9.33301 39.333 28 58c11.333 11.333 26.666 22.666 45.999 33.999zM142.997 295.004c0 -45.333 12.665 -80.333 37.998 -105
c22 -21.333 49.333 -32 82 -32c30.667 0 57.334 10.667 80.001 32c26 24.667 39 58.667 39 102c0 40 -10 73.667 -30 101c-22 29.333 -50.667 44 -86 44c-37.333 0 -67.166 -13.833 -89.499 -41.5s-33.5 -61.167 -33.5 -100.5zM184.995 -37.9961
c-2.66699 0.666992 -6.33398 1 -11.001 1c-18 0 -35 -7.33301 -51 -22s-24 -29.334 -24 -44.001c0 -24 12.667 -44.667 38 -62c30.667 -20.667 73.334 -31 128.001 -31c34.667 0 67.667 5.33301 99 16c42.667 14.667 65.667 35 69 61v10c-2 10 -12 18.667 -30 26
c-8.66699 3.33301 -22.667 7.33301 -42 12c-32 6.66699 -60 11.834 -84 15.501s-54.667 9.5 -92 17.5z" />
    <glyph glyph-name="h" unicode="h" horiz-adv-x="532" 
d="M161 364l0.000976562 -295.002c0 -14.667 4.33301 -26.334 13 -35.001s20 -13 34 -13h9v-21h-172v21h9c17.333 0 29.5 5 36.5 15s10.5 25.333 10.5 46v511c0 19.333 -3.16699 32.833 -9.5 40.5s-15.833 11.5 -28.5 11.5h-9v21c38 10.667 65.333 29.334 82 56.001h25v-318
h5c31.333 20.667 59 36.334 83 47.001c33.333 14.667 64.333 22 93 22c34 0 57.5 -8.16699 70.5 -24.5s19.5 -43.166 19.5 -80.499v-299c0 -14.667 4 -26.334 12 -35.001s19.333 -13 34 -13h9v-21h-170v21h8c15.333 0 27 4.33301 35 13s12 20.334 12 35.001v300
c0 16 -3.66699 28.333 -11 37c-10 11.333 -26 17 -48 17c-23.333 0 -49.333 -5.83301 -78 -17.5s-53.334 -25.5 -74.001 -41.5z" />
    <glyph glyph-name="i" unicode="i" horiz-adv-x="260" 
d="M45 21h8c14 0 25.333 4.33301 34 13s13 20.334 13 35.001v288c-0.666992 10 -2 17.333 -4 22c-6 15.333 -17 23 -33 23h-10v21c16 3.33301 32 10 48 20s27.667 22 35 36h24v-410c0 -14.667 4.33301 -26.334 13 -35.001s20 -13 34 -13h8v-21h-170v21zM85 620
c0 14 4.33301 25.667 13 35s20.334 14 35.001 14c16 0 28 -5.16699 36 -15.5s12 -21.5 12 -33.5s-4.5 -23.167 -13.5 -33.5s-20.5 -15.5 -34.5 -15.5c-12.667 0 -23.834 4.5 -33.501 13.5s-14.5 20.833 -14.5 35.5z" />
    <glyph glyph-name="j" unicode="j" horiz-adv-x="275" 
d="M63 404v20.999c15.333 4 29.333 10 42 18c17.333 10.667 31 23.667 41 39h24v-548c0 -52 -12.667 -92.333 -38 -121c-22 -24.667 -49.333 -37 -82 -37c-18.667 0 -34 5 -46 15s-18 22.667 -18 38c0 11.333 3.83301 20.5 11.5 27.5s17.167 10.5 28.5 10.5
c10 0 18.333 -1.83301 25 -5.5s13.667 -10.5 21 -20.5l10 -13.5c3.33301 -4.33301 8 -6.5 14 -6.5c12 0 19.667 6 23 18c1.33301 4.66699 2 12.334 2 23.001c0 44.667 -1.33301 73.667 -4 87s-5 24.333 -7 33v381c0 12 -3.5 21.833 -10.5 29.5s-16.167 11.5 -27.5 11.5h-9z
M95 619.999c0 14 4.33301 25.667 13 35s20.334 14 35.001 14c16 0 28 -5.16699 36 -15.5s12 -21.5 12 -33.5s-4.5 -23.167 -13.5 -33.5s-20.5 -15.5 -34.5 -15.5c-12.667 0 -23.834 4.5 -33.501 13.5s-14.5 20.833 -14.5 35.5z" />
    <glyph glyph-name="k" unicode="k" horiz-adv-x="518" 
d="M161 722v-495.999h5l153 148c14.667 14.667 25.167 26.167 31.5 34.5s9.5 14.166 9.5 17.499c0 10 -8.66699 15 -26 15h-10v21h155v-21c-24 -3.33301 -49.667 -15.333 -77 -36c-10.667 -8 -24.667 -20.667 -42 -38l-72 -73l125 -206
c11.333 -18.667 23.833 -34.5 37.5 -47.5s26.167 -19.5 37.5 -19.5h8v-21h-172v21h12c16 0 25.333 2.33301 28 7c2.66699 4 2.66699 10 0 18c-0.666992 2.66699 -6.66699 13.667 -18 33l-105 170l-80 -81v-99c0 -14.667 4.33301 -26.334 13 -35.001s20 -13 34 -13h9v-21
h-172v21h9c17.333 0 29.5 5 36.5 15s10.5 25.333 10.5 46v504c0 20 -2.5 34.833 -7.5 44.5s-15.167 14.5 -30.5 14.5h-9v21c38 10.667 65.333 29.334 82 56.001h25z" />
    <glyph glyph-name="l" unicode="l" horiz-adv-x="262" 
d="M54 645v21.002c17.333 5.33301 29.333 9.66602 36 12.999c17.333 8.66699 32.666 23 45.999 43h25v-653c0 -14.667 4.33301 -26.334 13 -35.001s20 -13 34 -13h9v-21h-172v21h8c18.667 0 31.334 5 38.001 15s10 25.333 10 46v519c0 10 -1.66699 18.333 -5 25
c-6.66699 12.667 -17.667 19 -33 19h-9z" />
    <glyph glyph-name="m" unicode="m" horiz-adv-x="824" 
d="M161 411l4.00098 0.00390625c36.667 19.333 68.334 33.666 95.001 42.999c36 12.667 69.667 19 101 19c24.667 0 44.334 -4.83301 59.001 -14.5s22 -23.167 22 -40.5v-5h4c40 20.667 72 35 96 43c32.667 11.333 64.334 17 95.001 17c34 0 56.833 -6.83301 68.5 -20.5
s17.5 -37.167 17.5 -70.5v-313c0 -14.667 4.33301 -26.334 13 -35.001s20 -13 34 -13h9v-21h-172v21h9c18 0 30.333 5 37 15s10 25.333 10 46v287c0 36 -20 54 -60 54c-24.667 0 -52.334 -5.66699 -83.001 -17c-20 -7.33301 -46 -19 -78 -35v-302
c0 -14.667 4.33301 -26.334 13 -35.001s20 -13 34 -13h9v-21h-172v21h9c18 0 30.333 5 37 15s10 25.333 10 46v285c0 22 -8.33301 37.667 -25 47c-10.667 6 -22.334 9 -35.001 9c-22.667 0 -47.334 -4 -74.001 -12s-55.667 -21.667 -87 -41v-301
c0 -14.667 4.33301 -26.334 13 -35.001s20 -13 34 -13h9v-21h-172v21h9c17.333 0 29.5 5 36.5 15s10.5 25.333 10.5 46v263c0 22.667 -3.16699 38.167 -9.5 46.5s-15.833 12.5 -28.5 12.5h-9v21c16 4 30 9.66699 42 17c17.333 10 30.666 23.333 39.999 40h25v-71z" />
    <glyph glyph-name="n" unicode="n" horiz-adv-x="541" 
d="M161 370l0.00195312 -300.998c0 -18.667 6 -32 18 -40c8 -5.33301 17.667 -8 29 -8h9v-21h-172v21h9c10 0 19 2.66699 27 8c13.333 8.66699 20 22 20 40v276c0 22.667 -3.16699 38.167 -9.5 46.5s-15.833 12.5 -28.5 12.5h-10v21c18 4.66699 34.5 12.167 49.5 22.5
s26.167 21.833 33.5 34.5h25v-71h4c41.333 20 73 34 95 42c36.667 13.333 70 20 100 20c37.333 0 61.333 -14.333 72 -43c5.33301 -14.667 8 -44.334 8 -89.001v-272c0 -14.667 4.33301 -26.334 13 -35.001s20 -13 34 -13h9v-21h-172v21h9c10.667 0 19.667 2.33301 27 7
c12.667 8 19 21.667 19 41v298c0 20.667 -5.33301 35.167 -16 43.5s-25.334 12.5 -44.001 12.5c-20 0 -40 -2.66699 -60 -8c-32.667 -8.66699 -65.334 -23.667 -98.001 -45z" />
    <glyph glyph-name="o" unicode="o" horiz-adv-x="502" 
d="M251 473c66 0 117.667 -27.999 155 -83.999c31.333 -46.667 47 -99.334 47 -158.001c0 -59.333 -15 -111.666 -45 -156.999c-37.333 -56.667 -89.333 -85 -156 -85c-68 0 -120.667 28.333 -158 85c-30 45.333 -45 97.666 -45 156.999c0 58 15.667 110.333 47 157
c38 56.667 89.667 85 155 85zM251 437.001c-34.667 0 -63.668 -14.666 -87.001 -43.999c-28 -35.333 -42 -89.333 -42 -162c0 -78.667 16.333 -135.334 49 -170.001c22.667 -24 49.334 -36 80.001 -36c40 0 72 19.333 96 58c22 36 33 85.333 33 148
c0 72.667 -14 126.667 -42 162c-23.333 29.333 -52.333 44 -87 44z" />
    <glyph glyph-name="p" unicode="p" horiz-adv-x="517" 
d="M135 483l26.9961 0.000976562v-69h5c16.667 21.333 35.334 36.5 56.001 45.5s42 13.5 64 13.5c51.333 0 94.333 -20.167 129 -60.5s52 -93.833 52 -160.5c0 -68 -17 -127.667 -51 -179c-37.333 -56 -84.333 -84 -141 -84c-20.667 0 -40.5 4 -59.5 12
s-35.5 20.667 -49.5 38h-5v-197c0 -19.333 7.33301 -33 22 -41c8.66699 -4.66699 17.334 -7 26.001 -7h16v-21h-181v21h9c17.333 0 29.666 5.33301 36.999 16s11 26 11 46v498c0 19.333 -4.16699 32.666 -12.5 39.999s-18.166 11 -29.499 11h-10v21
c20.667 6.66699 37.334 14 50.001 22s24.334 19.667 35.001 35zM161.996 344.001v-227c0 -23.333 11.5 -44.5 34.5 -63.5s47.167 -28.5 72.5 -28.5c30 0 56 11.667 78 35c32 34 48 87 48 159c0 60.667 -10.667 111 -32 151c-24 44.667 -56.333 67 -97 67
c-25.333 0 -49 -9 -71 -27s-33 -40 -33 -66z" />
    <glyph glyph-name="q" unicode="q" horiz-adv-x="511" 
d="M287 -227v20.999c25.333 0 42.166 4.16699 50.499 12.5s12.5 24.5 12.5 48.5v197h-6c-14 -20 -30.833 -35.5 -50.5 -46.5s-41.834 -16.5 -66.501 -16.5c-54.667 0 -98 20.833 -130 62.5s-48 94.834 -48 159.501c0 79.333 19.333 144 58 194c36 46 78.667 69 128 69
c14.667 0 28.834 -1.66699 42.501 -5s27.834 -9.33301 42.501 -18l10 -4l17 -10h7l12 15l24 35h20v-645c0 -14.667 3.66699 -25.667 11 -33s22.333 -12.333 45 -15v-21h-179zM350 139.999v185l-3 26c-2.66699 26.667 -14.167 47.667 -34.5 63s-43.833 23 -70.5 23
c-45.333 0 -78.333 -25 -99 -75c-14.667 -35.333 -22 -77 -22 -125c0 -62.667 11.5 -113.667 34.5 -153s54.167 -59 93.5 -59c25.333 0 48.5 11.5 69.5 34.5s31.5 49.833 31.5 80.5z" />
    <glyph glyph-name="r" unicode="r" horiz-adv-x="370" 
d="M161 482l-0.000976562 -69.999c18 18 38.833 32.667 62.5 44s46.834 17 69.501 17c40 0 60 -16 60 -48c0 -12 -4.33301 -21.333 -13 -28s-17.334 -10 -26.001 -10c-6.66699 0 -14.5 1.66699 -23.5 5s-16.667 6.83301 -23 10.5s-12 6.5 -17 8.5s-12.5 3 -22.5 3
c-25.333 0 -43.666 -9 -54.999 -27c-8 -12.667 -12 -27.334 -12 -44.001v-274c0 -14.667 4.33301 -26.334 13 -35.001s20 -13 34 -13h16v-21h-179v21h9c14 0 25.333 4.33301 34 13s13 20.334 13 35.001v291c0 10 -1.66699 18.333 -5 25c-6.66699 12.667 -17.667 19 -33 19
h-10v21c18 4.66699 34.5 12.167 49.5 22.5s26.167 21.833 33.5 34.5h25z" />
    <glyph glyph-name="s" unicode="s" horiz-adv-x="434" 
d="M336 354l-21.001 -0.00195312c-10 24 -23.667 43 -41 57c-22 17.333 -49 26 -81 26c-23.333 0 -43.833 -6.16699 -61.5 -18.5s-26.5 -27.5 -26.5 -45.5c0 -14 2.66699 -25.333 8 -34c8 -13.333 22.667 -24.333 44 -33l141 -59c33.333 -14 57 -34.333 71 -61
c10.667 -20 16 -44 16 -72c0 -39.333 -17.333 -70.666 -52 -93.999c-30.667 -20.667 -67.667 -31 -111 -31c-30 0 -52.833 1.33301 -68.5 4s-33.834 7.66699 -54.501 15l-40 11l-10 112h21c14.667 -38 37.334 -66 68.001 -84c25.333 -14.667 54.333 -22 87 -22
c31.333 0 57.5 7.5 78.5 22.5s31.5 33.167 31.5 54.5c0 16.667 -5.66699 32.334 -17 47.001s-28.666 26.667 -51.999 36l-121 47c-27.333 10.667 -48.333 25 -63 43c-18 21.333 -27 48 -27 80c0 36 13.167 64.667 39.5 86s61.5 32 105.5 32c19.333 0 38 -1.5 56 -4.5
s44.667 -10.167 80 -21.5v-93z" />
    <glyph glyph-name="t" unicode="t" horiz-adv-x="354" 
d="M291 468v-37h-102v-309c0 -30 2 -50.667 6 -62c6.66699 -18 20.667 -27 42 -27c10.667 0 19.667 2.66699 27 8s15 13.333 23 24h21c-8.66699 -24 -20.167 -42.667 -34.5 -56s-32.833 -20 -55.5 -20c-36 0 -61 12 -75 36c-9.33301 16 -14 39.333 -14 70v336h-84v37
c40 5.33301 69 26 87 62c15.333 31.333 23 76 23 134h34v-196h102z" />
    <glyph glyph-name="u" unicode="u" horiz-adv-x="550" 
d="M156 482l0.00195312 -352c0 -37.333 4.33301 -61.833 13 -73.5s24.334 -17.5 47.001 -17.5c27.333 0 57.166 6.5 89.499 19.5s59.166 27.833 80.499 44.5v256c0 14.667 -3.16699 25.834 -9.5 33.501s-15.5 11.5 -27.5 11.5h-10v21c15.333 4 29.333 10 42 18
c17.333 10.667 31 23.667 41 39h24v-413c0 -14.667 4 -26.334 12 -35.001s19.333 -13 34 -13h9v-21h-115v59h-4c-27.333 -17.333 -56 -32 -86 -44c-42.667 -17.333 -80 -26 -112 -26c-28 0 -49.667 7.33301 -65 22s-23 34.667 -23 60v288c0 14 -3.33301 25 -10 33
s-16 12 -28 12h-9v21c16 4 30 9.66699 42 17c17.333 10 30.666 23.333 39.999 40h25z" />
    <glyph glyph-name="v" unicode="v" horiz-adv-x="507" 
d="M203 462l-0.000976562 -21h-10c-12 0 -21.833 -2.33301 -29.5 -7s-11.5 -10.667 -11.5 -18c0 -4 1 -8.66699 3 -14s3.33301 -9.33301 4 -12l113 -304h5l102 280c1.33301 3.33301 3.16602 10.5 5.49902 21.5s3.5 19.167 3.5 24.5c0 10.667 -4.66699 18.167 -14 22.5
s-17.666 6.5 -24.999 6.5h-6v21h147v-21c-22.667 -3.33301 -40.667 -14.666 -54 -33.999c-8 -10.667 -16.667 -29.334 -26 -56.001l-131 -362h-34l-147 378c-7.33301 18.667 -15.666 33.667 -24.999 45c-16 19.333 -34.667 29 -56 29v21h186z" />
    <glyph glyph-name="w" unicode="w" horiz-adv-x="745" 
d="M17 462l181 0.00292969v-21c-28.667 -5.33301 -43 -14.666 -43 -27.999c0 -18 3.66699 -35 11 -51l110 -277h4l76 230l-13 40c-8.66699 25.333 -15.334 41.666 -20.001 48.999c-13.333 21.333 -32 33.666 -56 36.999v21h173v-21c-12 0 -22 -3.66699 -30 -11
s-12 -18.333 -12 -33c0 -6.66699 1.33301 -13 4 -19s5.33398 -11.667 8.00098 -17l99 -276l100 267l11 40v19c-2 10 -6.83301 17.167 -14.5 21.5s-17.834 7.16602 -30.501 8.49902v21h153v-21c-24 -3.33301 -42.667 -12 -56 -26c-10.667 -10.667 -20 -27.334 -28 -50.001
l-134 -376h-29l-104 280h-5l-96 -280h-29l-151 378c-9.33301 24 -19.666 41.5 -30.999 52.5s-27.333 18.167 -48 21.5v21z" />
    <glyph glyph-name="x" unicode="x" horiz-adv-x="511" 
d="M45 462l183.998 -0.000976562v-21c-12.667 0 -22.667 -2 -30 -6s-11 -8.33301 -11 -13s2.33301 -10.667 7 -18l73 -113h5l74 102c5.33301 8 8 14.667 8 20c0 9.33301 -4 16 -12 20s-19 6.66699 -33 8v21h154v-21c-19.333 -2.66699 -35.666 -9 -48.999 -19
c-9.33301 -7.33301 -20.333 -19 -33 -35l-97 -124l123 -188c11.333 -18 23 -31 35 -39s27.667 -13 47 -15v-21h-180v21c11.333 0 21 2 29 6s12 9 12 15c0 2 -1.5 5.83301 -4.5 11.5s-4.5 8.83398 -4.5 9.50098l-92 143h-6l-99 -140l-9 -18c0 -4.66699 0.333008 -8 1 -10
c4.66699 -11.333 19.334 -17 44.001 -17v-21h-160v21c21.333 4 38 9.83301 50 17.5s24.333 20.167 37 37.5l117 160l-97 155c-18 27.333 -45.667 44 -83 50v21z" />
    <glyph glyph-name="y" unicode="y" horiz-adv-x="514" 
d="M280 91l5.00098 0.000976562l94 260c4 11.333 6.66699 20.333 8 27s2.33301 12.334 3 17.001c0 16 -4.83301 27.667 -14.5 35s-20.5 11 -32.5 11v21h154v-21c-19.333 -4 -34.5 -11.833 -45.5 -23.5s-20.5 -28.5 -28.5 -50.5l-176 -487
c-14 -38.667 -31.667 -66.334 -53 -83.001c-15.333 -12 -32.666 -18 -51.999 -18c-25.333 0 -46.333 5.33301 -63 16s-25 25.334 -25 44.001c0 11.333 3.83301 19.833 11.5 25.5s15.5 8.5 23.5 8.5c17.333 0 26.666 -7.16699 27.999 -21.5s16.333 -21.5 45 -21.5
c11.333 0 21 5.16699 29 15.5s15.333 25.166 22 44.499l37 107l-145 377c-10 25.333 -22.333 43.666 -37 54.999c-10.667 8 -22.334 12 -35.001 12h-5v21h169v-21c-26.667 0 -40 -7.33301 -40 -22c0 -6 0.666992 -10.667 2 -14l6 -15z" />
    <glyph glyph-name="z" unicode="z" horiz-adv-x="474" 
d="M429 136l-48.998 -135.998h-335l257 426h-44c-44.667 0 -81.834 -6.33301 -111.501 -19s-54.167 -35.334 -73.5 -68.001h-21l53 123h289l-254 -426h43c37.333 0 70 4 98 12c53.333 15.333 95.666 44.666 126.999 87.999h21z" />
    <glyph glyph-name="braceleft" unicode="{" horiz-adv-x="356" 
d="M295 818l5.00098 -34.001c-22.667 -4.66699 -40.334 -13.667 -53.001 -27c-16 -16.667 -24 -39.334 -24 -68.001c0 -14 0.833008 -32.833 2.5 -56.5s2.5 -37.834 2.5 -42.501v-55c0 -46 -9.83301 -83 -29.5 -111s-50.167 -52.667 -91.5 -74
c44 -22 75.167 -47.667 93.5 -77s27.5 -65.333 27.5 -108v-55l-4 -49l-1 -50c0 -28 8 -50.333 24 -67c13.333 -14 31 -23.333 53 -28l-5 -34c-64.667 11.333 -108 40 -130 86c-12.667 26 -19 64 -19 114l3 73c0 42 -3.33301 74 -10 96c-14 46 -41.667 72.333 -83 79v40
c32 4.66699 55.5 21.334 70.5 50.001s22.5 70.334 22.5 125.001l-3 73c0 48.667 6.33301 86.334 19 113.001c22.667 46.667 66 75.667 130 87z" />
    <glyph glyph-name="bar" unicode="|" horiz-adv-x="525" 
d="M231 -176v1052h63v-1052h-63z" />
    <glyph glyph-name="braceright" unicode="}" horiz-adv-x="356" 
d="M61 -118l-5 33.9961c51.333 10.667 77 42.334 77 95.001c0 12.667 -0.833008 31 -2.5 55s-2.5 38.667 -2.5 44v55c0 42.667 9.16699 78.834 27.5 108.501s49.833 55.167 94.5 76.5c-42 20.667 -72.333 44.334 -91 71.001c-20.667 30 -31 68 -31 114v55l4 49l1 50
c0 26.667 -6.5 47.834 -19.5 63.501s-32.167 26.167 -57.5 31.5l5 34c66 -12 109.667 -40.667 131 -86c12 -25.333 18 -63.333 18 -114l-2 -73c0 -45.333 3.66699 -79.333 11 -102c14 -42.667 41 -67 81 -73v-40c-39.333 -5.33301 -66 -29.333 -80 -72
c-8 -24.667 -12 -59 -12 -103l2 -73c0 -52 -5.66699 -90 -17 -114c-21.333 -45.333 -65.333 -74 -132 -86z" />
    <glyph glyph-name="asciitilde" unicode="~" horiz-adv-x="472" 
d="M83 619l-21.0059 -0.00195312c9.33301 14 18 25.333 26 34c10.667 12 21.334 22 32.001 30c15.333 11.333 32.333 17 51 17c6.66699 0 16 -0.5 28 -1.5s29.667 -4.5 53 -10.5c12 -2.66699 25.5 -5.5 40.5 -8.5s28.5 -4.5 40.5 -4.5s22.667 2.16699 32 6.5
s17.333 10.5 24 18.5h21l-31 -42c-9.33301 -11.333 -20.166 -20.666 -32.499 -27.999s-26.166 -11 -41.499 -11c-10.667 0 -29 2.66699 -55 8c-17.333 4.66699 -28.333 7.33398 -33 8.00098c-17.333 4 -33.166 7.16699 -47.499 9.5s-23.5 3.5 -27.5 3.5
c-11.333 0 -20.666 -2 -27.999 -6s-17.666 -11.667 -30.999 -23z" />
    <glyph glyph-name="nonbreakingspace" unicode="&#xa0;" horiz-adv-x="500" 
 />
    <glyph glyph-name="currency" unicode="&#xa4;" horiz-adv-x="875" 
d="M70 56l118 118c-20 28 -34.333 57.167 -43 87.5s-13 59.833 -13 88.5c0 30 4.16699 59.5 12.5 88.5s22.833 58.167 43.5 87.5l-118 118l70 70l117 -118c28.667 22.667 60.667 39 96 49c26 7.33301 54 11 84 11c29.333 0 57.333 -3.66699 84 -11
c35.333 -10 67.333 -26.333 96 -49l118 118l70 -70l-118 -118c20 -28 34.333 -57.167 43 -87.5s13 -59.833 13 -88.5c0 -30 -3.66699 -58 -11 -84c-9.33301 -32 -24.333 -62.667 -45 -92l118 -118l-70 -70l-118 118c-28.667 -22.667 -60.667 -39 -96 -49
c-26 -7.33301 -54 -11 -84 -11c-29.333 0 -57.333 3.66699 -84 11c-35.333 10 -67.333 26.333 -96 49l-117 -118zM211 350c0 -66 23.666 -121.001 70.999 -165.001c44 -41.333 95.667 -62 155 -62c58.667 0 110.334 20.667 155.001 62c48 44 72 99 72 165
c0 64.667 -24 119.334 -72 164.001c-45.333 42 -97 63 -155 63c-59.333 0 -111 -20.667 -155 -62c-47.333 -44 -71 -99 -71 -165z" />
    <glyph glyph-name="brokenbar" unicode="&#xa6;" 
d="M91 413c0 13.333 4.83301 24.833 14.5 34.5s21.167 14.5 34.5 14.5c12.667 0 24 -4.66699 34 -14s15 -21 15 -35s-4.66699 -25.667 -14 -35s-21 -14 -35 -14c-13.333 0 -24.833 5.16699 -34.5 15.5s-14.5 21.5 -14.5 33.5zM91 35c0 12.667 4.66699 24 14 34s21 15 35 15
c12.667 0 24 -4.66699 34 -14s15 -21 15 -35s-4.66699 -25.667 -14 -35s-21 -14 -35 -14c-12.667 0 -24 4.66699 -34 14s-15 21 -15 35z" />
    <glyph glyph-name="section" unicode="&#xa7;" horiz-adv-x="530" 
d="M297 18l-163 165.004c-33.333 34 -57 69 -71 105c-10 26 -15 54.667 -15 86c0 22 6.66699 44.333 20 67c16 27.333 40 52.666 72 75.999c-1.33301 4.66699 -3 14.167 -5 28.5s-3 29.166 -3 44.499c0 36 13.333 65.667 40 89s60.667 35 102 35s77.333 -12.667 108 -38
c28 -22.667 42 -47 42 -73c0 -24 -10.667 -36 -32 -36c-14.667 0 -26.667 6.33301 -36 19c-6 8 -11 18 -15 30c-6.66699 18.667 -13 31.334 -19 38.001c-11.333 12 -28 18 -50 18c-22.667 0 -42.167 -5.83301 -58.5 -17.5s-24.5 -25.834 -24.5 -42.501
c0 -21.333 5.16699 -42.333 15.5 -63s24.5 -40 42.5 -58l149 -151c32 -32.667 55.333 -64 70 -94c10.667 -22 16 -42 16 -60c0 -30.667 -8.66699 -58.667 -26 -84c-12.667 -18.667 -35.667 -42 -69 -70c3.33301 -8 6.83301 -18.167 10.5 -30.5s6 -21.333 7 -27
s1.5 -11.167 1.5 -16.5c-0.666992 -10 -1 -17.333 -1 -22c-4.66699 -42.667 -21.667 -77.667 -51 -105s-64.666 -41 -105.999 -41c-50.667 0 -91 11 -121 33c-26 19.333 -39 41.666 -39 66.999c0 16 4 28.333 12 37s18 13 30 13c12.667 0 22.667 -4.66699 30 -14
c5.33301 -6.66699 10.833 -18.334 16.5 -35.001s12.167 -29 19.5 -37c13.333 -14.667 32.666 -22 57.999 -22c36 0 61.333 13 76 39c10 18 15 40.667 15 68c0 9.33301 -4 20.833 -12 34.5s-20 28.5 -36 44.5zM199 239.004l134.999 -139l13 -15l16 -19
c16.667 9.33301 30 20.333 40 33s15 25.667 15 39c0 22 -7.33301 44.667 -22 68c-11.333 18.667 -31 43 -59 73l-114 122c-7.33301 7.33301 -17.666 19.5 -30.999 36.5l-33 42.5c-32 -18 -48 -43 -48 -75c0 -50 29.333 -105.333 88 -166z" />
    <glyph glyph-name="dieresis" unicode="&#xa8;" horiz-adv-x="630" 
d="M137 819c0 18.667 6.16699 33.834 18.5 45.501s26.833 17.5 43.5 17.5c18 0 32.667 -6.33301 44 -19s17 -27.334 17 -44.001s-5.66699 -31.334 -17 -44.001s-26 -19 -44 -19c-18.667 0 -33.667 6.33301 -45 19s-17 27.334 -17 44.001zM367 819
c0 14.667 4.66699 28.002 14 40.002c12 15.333 28 23 48 23c19.333 0 35 -7.33301 47 -22c10 -12.667 15 -26.334 15 -41.001c0 -16.667 -5.66699 -31.334 -17 -44.001s-26.333 -19 -45 -19c-18 0 -32.833 6.5 -44.5 19.5s-17.5 27.5 -17.5 43.5zM535 700.002l22 -137.001
h-25c-12 36 -36.333 62 -73 78c-26 11.333 -54 17 -84 17h-122c-18.667 0 -32.334 -3.66699 -41.001 -11s-13 -20.666 -13 -39.999v-205h156c32 0 53.333 3.66699 64 11c14 9.33301 21 28 21 56h26v-179h-26v7c0 16 -5.5 30.5 -16.5 43.5s-25.5 19.5 -43.5 19.5h-181v-254
c0 -29.333 6.5 -47.333 19.5 -54s39.167 -10 78.5 -10h76c44.667 0 81.167 7.66699 109.5 23s52.5 41 72.5 77h25l-23 -142h-512v27c30.667 0 51.667 10.667 63 32c7.33301 14 11 35 11 63v456c0 29.333 -3.33301 50.333 -10 63c-11.333 21.333 -32.666 32 -63.999 32v27
h490z" />
    <glyph glyph-name="copyright" unicode="&#xa9;" horiz-adv-x="964" 
d="M615 480h-15.999c-10 26.667 -28.667 47 -56 61c-22 11.333 -44.667 17 -68 17c-34 0 -64.333 -12.333 -91 -37c-38.667 -36 -58 -92 -58 -168c0 -62 15.667 -112 47 -150c29.333 -36 65.666 -54 108.999 -54c34.667 0 64.334 8.83301 89.001 26.5s41 42.167 49 73.5h16
l-4 -88c-16.667 -11.333 -37.334 -20.333 -62.001 -27s-54 -10 -88 -10c-61.333 0 -112.333 24.333 -153 73c-38 45.333 -57 97 -57 155c0 59.333 19.333 111.333 58 156c43.333 50 101 75 173 75h24c16.667 0 33.667 -2.66699 51 -8c10.667 -3.33301 22 -8 34 -14z
M62.001 350c0 109.333 38 205.333 114 288c81.333 88 183.333 132 306 132c109.333 0 205.333 -38 288 -114c88 -81.333 132 -183.333 132 -306c0 -109.333 -38 -205.333 -114 -288c-81.333 -88 -183.333 -132 -306 -132s-224.667 44 -306 132
c-76 82.667 -114 178.667 -114 288zM125.001 350c0 -92.667 32 -174 96 -244c69.333 -75.333 156.333 -113 261 -113c92.667 0 174 32.333 244 97c75.333 69.333 113 156 113 260s-37.667 190.667 -113 260c-70.667 64.667 -152 97 -244 97c-92.667 0 -174 -32.333 -244 -97
c-75.333 -69.333 -113 -156 -113 -260z" />
    <glyph glyph-name="ordfeminine" unicode="&#xaa;" horiz-adv-x="665" 
d="M584 551h-26.0039c-12.667 34.667 -36.667 63.5 -72 86.5s-73.666 34.5 -114.999 34.5c-58 0 -107.667 -19.667 -149 -59c-58 -54.667 -87 -139.667 -87 -255c30.667 25.333 58.5 43 83.5 53s51.167 15 78.5 15c12.667 0 22.334 -1.16699 29.001 -3.5
s21.334 -10.833 44.001 -25.5c19.333 -12 32 -19.667 38 -23c17.333 -8.66699 32.333 -13 45 -13c18.667 0 42.667 9 72 27v-36c-27.333 -17.333 -47.666 -29.666 -60.999 -36.999c-25.333 -13.333 -47 -20 -65 -20c-16 0 -34.333 5.33301 -55 16l-63 33
c-12 6 -19.333 9.33301 -22 10c-8.66699 3.33301 -17 5 -25 5c-23.333 0 -44 -5 -62 -15c-22.667 -12.667 -34 -30 -34 -52c0 -54.667 17.333 -108.334 52 -161.001c45.333 -68.667 106.333 -103 183 -103c53.333 0 100 13.667 140 41s66 65.666 78 114.999h25l-6 -140
c-27.333 -18 -60 -32.167 -98 -42.5s-79 -15.5 -123 -15.5h-16c-96 0 -176.333 38.333 -241 115c-60 71.333 -90 153.666 -90 246.999c0 88.667 29 168.334 87 239.001c70 85.333 165.667 128 287 128c34 0 64 -3.16699 90 -9.5s50 -15.166 72 -26.499z" />
    <glyph glyph-name="guillemotleft" unicode="&#xab;" horiz-adv-x="468" 
d="M396 361l-83 -131l85 -133l-24 -15l-138 147l139 146zM306 423l-140 -193l135 -192l-26 -17l-205 209l215 208z" />
    <glyph glyph-name="logicalnot" unicode="&#xac;" horiz-adv-x="1050" 
d="M56 213v63h938v-174h-64v111h-874z" />
    <glyph glyph-name="registered" unicode="&#xae;" horiz-adv-x="700" 
d="M56 582c0 76 26.667 143.001 80 201.001c57.333 62 128.666 93 213.999 93c77.333 0 144.666 -26.333 201.999 -79c61.333 -56.667 92 -128.334 92 -215.001c0 -86 -30.667 -157.333 -92 -214c-57.333 -53.333 -124.666 -80 -201.999 -80
c-85.333 0 -156.666 31 -213.999 93c-53.333 58 -80 125 -80 201zM105 582.001c0 -62.667 22.332 -118.333 66.999 -167c48 -52 107.333 -78 178 -78c71.333 0 131 26 179 78c44 48 66 103.667 66 167c0 64.667 -22 120.667 -66 168c-47.333 51.333 -107 77 -179 77
c-71.333 0 -130.666 -25.333 -177.999 -76c-44.667 -48 -67 -104.333 -67 -169zM366.999 739.002c20.667 0 39.3311 -5.33496 55.998 -16.002c25.333 -16 38 -41 38 -75c0 -19.333 -6.16699 -37.166 -18.5 -53.499s-29.166 -26.5 -50.499 -30.5l53 -93l3 -4l6 -9
c8 -13.333 20 -20 36 -20v-12h-98v12h6c14 0 21 3 21 9c0 3.33301 -0.666992 6 -2 8s-2.33301 3.33301 -3 4c-2.66699 2.66699 -5 6 -7 10l-52 87h-23c-7.33301 0 -14 0.333008 -20 1l-19 2v-79c0 -13.333 2.83301 -23.666 8.5 -30.999s11.834 -11 18.501 -11h7v-12h-103v12
h8c11.333 0 19.333 6 24 18c2.66699 6.66699 4 14.667 4 24v204c0 13.333 -2.5 23 -7.5 29s-14.5 10.667 -28.5 14v12h143zM292.996 689l-0.000976562 -111.999c9.33301 -2 19.333 -3 30 -3c26.667 0 48 5 64 15c21.333 13.333 32 33.666 32 60.999
c0 18.667 -4.33301 33.667 -13 45c-13.333 17.333 -34.666 26 -63.999 26h-26c-15.333 0 -23 -10.667 -23 -32z" />
    <glyph glyph-name="macron" unicode="&#xaf;" horiz-adv-x="320" 
d="M-8 826c0 16.667 5.5 30.167 16.5 40.5s24.167 15.5 39.5 15.5c14.667 0 27.667 -5.33301 39 -16s17 -24 17 -40c0 -15.333 -5.83301 -28.5 -17.5 -39.5s-24.5 -16.5 -38.5 -16.5c-14.667 0 -27.667 5.33301 -39 16s-17 24 -17 40zM216 826
c0 16.667 5.5 30.167 16.5 40.5s24.167 15.5 39.5 15.5c14.667 0 27.667 -5.33301 39 -16s17 -24 17 -40c0 -15.333 -5.83301 -28.5 -17.5 -39.5s-24.5 -16.5 -38.5 -16.5c-14.667 0 -27.667 5.33301 -39 16s-17 24 -17 40zM45 700h230v-27c-32 0 -53.333 -10.333 -64 -31
c-7.33301 -14 -11 -35.333 -11 -64v-456c0 -29.333 3.33301 -50.333 10 -63c11.333 -21.333 33 -32 65 -32v-27h-230v27c32 0 53.667 11.667 65 35c6.66699 14 10 34 10 60v456c0 35.333 -6 60 -18 74s-31 21 -57 21v27z" />
    <glyph glyph-name="degree" unicode="&#xb0;" horiz-adv-x="348" 
d="M104 554c0 -20.667 7.16699 -37.5 21.5 -50.5s30.5 -19.5 48.5 -19.5c17.333 0 33.333 6.66699 48 20s22 30 22 50c0 18 -6.5 34.167 -19.5 48.5s-29.833 21.5 -50.5 21.5c-18 0 -34.167 -6.5 -48.5 -19.5s-21.5 -29.833 -21.5 -50.5zM62 554
c0 32.667 11.5 59.5 34.5 80.5s48.833 31.5 77.5 31.5c32.667 0 59.5 -11.5 80.5 -34.5s31.5 -48.833 31.5 -77.5c0 -29.333 -10.333 -55.333 -31 -78s-47.667 -34 -81 -34c-32.667 0 -59.5 11.5 -80.5 34.5s-31.5 48.833 -31.5 77.5z" />
    <glyph glyph-name="plusminus" unicode="&#xb1;" horiz-adv-x="822" 
d="M441 217h-70v140h-231v70h231v178h70v-178h231v-70h-231v-140zM140 98v70h532v-70h-532z" />
    <glyph glyph-name="twosuperior" unicode="&#xb2;" horiz-adv-x="320" 
d="M45 700h230v-27c-32 0 -53.333 -10.333 -64 -31c-7.33301 -14 -11 -35.333 -11 -64v-456c0 -29.333 3.33301 -50.333 10 -63c11.333 -21.333 33 -32 65 -32v-27h-230v27c32 0 53.667 11.667 65 35c6.66699 14 10 34 10 60v456c0 35.333 -6 60 -18 74s-31 21 -57 21v27z
" />
    <glyph glyph-name="threesuperior" unicode="&#xb3;" horiz-adv-x="260" 
d="M45 21h8c14 0 25.333 4.33301 34 13s13 20.334 13 35.001v288c-0.666992 10 -2 17.333 -4 22c-6 15.333 -17 23 -33 23h-10v21c16 3.33301 32 10 48 20s27.667 22 35 36h24v-410c0 -14.667 4.33301 -26.334 13 -35.001s20 -13 34 -13h8v-21h-170v21zM85 620
c0 14 4.33301 25.667 13 35s20.334 14 35.001 14c16 0 28 -5.16699 36 -15.5s12 -21.5 12 -33.5s-4.5 -23.167 -13.5 -33.5s-20.5 -15.5 -34.5 -15.5c-12.667 0 -23.834 4.5 -33.501 13.5s-14.5 20.833 -14.5 35.5z" />
    <glyph glyph-name="mu" unicode="&#xb5;" horiz-adv-x="560" 
d="M166 482l0.000976562 -352c0 -28.667 11.167 -51 33.5 -67s49.5 -24 81.5 -24c22 0 42 5.33301 60 16s36.333 26.667 55 48v256c0 14.667 -3.16699 25.834 -9.5 33.501s-15.5 11.5 -27.5 11.5h-10v21c15.333 4 29.333 10 42 18c17.333 10.667 31 23.667 41 39h24v-413
c0 -14.667 4 -26.334 12 -35.001s19.333 -13 34 -13h9v-21h-115v59h-4c-35.333 -46.667 -74 -70 -116 -70c-27.333 0 -49.333 3.5 -66 10.5s-30 15.5 -40 25.5h-4v-183c0 -19.333 7.33301 -33 22 -41c8.66699 -4.66699 17.334 -7 26.001 -7h16v-21h-181v21h9
c17.333 0 29.666 5.33301 36.999 16s11 26 11 46v503c0 14 -3.33301 25 -10 33s-16 12 -28 12h-9v21c16 4 30 9.66699 42 17c17.333 10 30.666 23.333 39.999 40h25z" />
    <glyph glyph-name="paragraph" unicode="&#xb6;" horiz-adv-x="482" 
d="M220 -196v546c-51.333 0 -93.333 17.333 -126 52s-49 75.667 -49 123c0 48 16.167 89.167 48.5 123.5s74.5 51.5 126.5 51.5h70v-896h-70zM367 -196v896h70v-896h-70z" />
    <glyph glyph-name="periodcentered" unicode="&#xb7;" horiz-adv-x="266" 
d="M84 378c0 13.333 4.83301 24.833 14.5 34.5s21.167 14.5 34.5 14.5s24.833 -5.16699 34.5 -15.5s14.5 -21.5 14.5 -33.5c0 -13.333 -4.83301 -24.833 -14.5 -34.5s-21.167 -14.5 -34.5 -14.5c-12.667 0 -24 4.66699 -34 14s-15 21 -15 35z" />
    <glyph glyph-name="periodcentered" unicode="&#x2219;" horiz-adv-x="266" 
d="M84 378c0 13.333 4.83301 24.833 14.5 34.5s21.167 14.5 34.5 14.5s24.833 -5.16699 34.5 -15.5s14.5 -21.5 14.5 -33.5c0 -13.333 -4.83301 -24.833 -14.5 -34.5s-21.167 -14.5 -34.5 -14.5c-12.667 0 -24 4.66699 -34 14s-15 21 -15 35z" />
    <glyph glyph-name="cedilla" unicode="&#xb8;" horiz-adv-x="476" 
d="M413 98l14 -21.001c-32.667 -34 -66.667 -58.333 -102 -73c-24 -10 -48 -15 -72 -15c-58 0 -106.5 24.167 -145.5 72.5s-58.5 104.833 -58.5 169.5c0 71.333 19 129.5 57 174.5s83 67.5 135 67.5c51.333 0 93.833 -22.667 127.5 -68s50.5 -99.666 50.5 -162.999h-297
c0 -50.667 10.667 -94.667 32 -132c27.333 -48 68 -72 122 -72c25.333 0 50 5.66699 74 17c18.667 8.66699 39.667 23 63 43zM122 277.999h225.001c0 48 -11 86.5 -33 115.5s-49 43.5 -81 43.5c-28.667 0 -52.334 -9.33301 -71.001 -28c-26.667 -27.333 -40 -71 -40 -131z
M115.001 619.999c0 14 4.33301 25.667 13 35s20.334 14 35.001 14c16 0 28 -5.16699 36 -15.5s12 -21.5 12 -33.5s-4.5 -23.167 -13.5 -33.5s-20.5 -15.5 -34.5 -15.5c-12.667 0 -23.834 4.5 -33.501 13.5s-14.5 20.833 -14.5 35.5zM266.001 619.999
c0 12 3.33105 22.333 9.99805 31c9.33301 12 22 18 38 18c14.667 0 26.334 -4.66699 35.001 -14s13 -21 13 -35s-4.66699 -25.667 -14 -35s-20.666 -14 -33.999 -14c-14 0 -25.5 5.16699 -34.5 15.5s-13.5 21.5 -13.5 33.5z" />
    <glyph glyph-name="onesuperior" unicode="&#xb9;" horiz-adv-x="1052" 
d="M298 700l307.001 -533.999h6v403c0 52.667 11.667 91 35 115c19.333 20 45.333 30 78 30c34 0 61.333 -11.333 82 -34c18.667 -20.667 28 -46 28 -76c0 -19.333 -4.5 -33.5 -13.5 -42.5s-19.833 -13.5 -32.5 -13.5c-9.33301 0 -18 3.66699 -26 11s-12 18.666 -12 33.999
c0 16 2.33301 27.667 7 35s7 16.333 7 27c0 5.33301 -3.5 9.83301 -10.5 13.5s-15.5 5.5 -25.5 5.5c-21.333 0 -37.333 -5.33301 -48 -16c-18 -17.333 -27 -48.666 -27 -93.999v-564h-48l-342 597h-6v-444c0 -54.667 -7 -95 -21 -121c-16.667 -30.667 -44 -46 -82 -46
c-33.333 0 -60 12.667 -80 38c-16 20.667 -24 43.667 -24 69s5.5 44.166 16.5 56.499s24.167 18.5 39.5 18.5c12 0 21.833 -4.5 29.5 -13.5s11.5 -20.833 11.5 -35.5c0 -10 -2 -19 -6 -27c-1.33301 -3.33301 -4.83301 -10.5 -10.5 -21.5s-8.5 -18.833 -8.5 -23.5
c0 -13.333 11 -20 33 -20c24 0 40 10.5 48 31.5s12 54.833 12 101.5v421c0 32 -6.33301 55.667 -19 71s-34.334 23 -65.001 23v25h167zM733.001 301.001c0 45.333 12.001 82 36.001 110s56.667 42 98 42s74.166 -14.167 98.499 -42.5s36.5 -64.833 36.5 -109.5
c0 -45.333 -12 -82 -36 -110s-57 -42 -99 -42c-41.333 0 -74 14 -98 42s-36 64.667 -36 110zM794.002 301.001c0 -44 6.16699 -75.667 18.5 -95s30.5 -29 54.5 -29c26 0 44.833 10.667 56.5 32s17.5 52 17.5 92c0 38 -4.33301 66.333 -13 85c-12 26 -32.333 39 -61 39
c-26 0 -44.667 -11 -56 -33s-17 -52.333 -17 -91zM765.002 0.000976562v57h205v-57h-205z" />
    <glyph glyph-name="ordmasculine" unicode="&#xba;" horiz-adv-x="478" 
d="M114 252l1.00195 -7.00195l45.5 27c15 8.66699 28.167 13 39.5 13c9.33301 0 18.666 -1.66699 27.999 -5s19.666 -8.16602 30.999 -14.499s21.333 -11.5 30 -15.5s15.334 -6 20.001 -6c8 0 15.833 2 23.5 6s14.834 8.66699 21.501 14l12 -22l-37 -25
c-9.33301 -6 -18.333 -10.833 -27 -14.5s-18.334 -5.5 -29.001 -5.5c-6.66699 0 -14 1.16699 -22 3.5s-19.333 7.5 -34 15.5c-6 3.33301 -13.333 7 -22 11c-14 6.66699 -26.333 10 -37 10s-19.167 -2.5 -25.5 -7.5s-11.166 -10.833 -14.499 -17.5
c8.66699 -57.333 27.5 -102.833 56.5 -136.5s63.167 -50.5 102.5 -50.5c23.333 0 46.666 7 69.999 21c18 10.667 38.667 27.667 62 51l20 -21c-22 -29.333 -50 -51.666 -84 -66.999c-29.333 -13.333 -58 -20 -86 -20c-53.333 0 -101.333 21 -144 63
c-48.667 48 -73 110 -73 186c0 68 21.5 124.167 64.5 168.5s94.833 66.5 155.5 66.5c20.667 0 40.667 -2.83301 60 -8.5s41.333 -14.5 66 -26.5l3 -98h-21c-8.66699 28.667 -24.334 52 -47.001 70s-48 27 -76 27c-42.667 0 -76.667 -19.667 -102 -59
c-21.333 -32.667 -32 -68.667 -32 -108c0 -8.66699 0.333008 -14.667 1 -18z" />
    <glyph glyph-name="guillemotright" unicode="&#xbb;" horiz-adv-x="468" 
d="M72 361l20 14l139 -146l-137 -147l-24 15l84 133zM162 423l21 15l215 -208l-205 -209l-26 17l134 192z" />
    <glyph glyph-name="questiondown" unicode="&#xbf;" horiz-adv-x="262" 
d="M45 21h8c14 0 25.333 4.33301 34 13s13 20.334 13 35.001v288c-0.666992 10 -2 17.333 -4 22c-6 15.333 -17 23 -33 23h-10v21c16 3.33301 32 10 48 20s27.667 22 35 36h24v-410c0 -14.667 4.33301 -26.334 13 -35.001s20 -13 34 -13h9v-21h-171v21zM-9 651
c0 16.667 5.16699 29 15.5 37s21.5 12 33.5 12c13.333 0 24.833 -4.83301 34.5 -14.5s14.5 -21.167 14.5 -34.5s-5.16699 -24.833 -15.5 -34.5s-21.5 -14.5 -33.5 -14.5s-22.667 3.66699 -32 11c-11.333 9.33301 -17 22 -17 38zM173 651c0 16.667 5.16699 29 15.5 37
s21.5 12 33.5 12c13.333 0 24.833 -4.83301 34.5 -14.5s14.5 -21.167 14.5 -34.5s-5.16699 -24.833 -15.5 -34.5s-21.5 -14.5 -33.5 -14.5s-22.667 3.66699 -32 11c-11.333 9.33301 -17 22 -17 38z" />
    <glyph glyph-name="Agrave" unicode="&#xc0;" horiz-adv-x="691" 
d="M230 621l0.000976562 25c39.333 10.667 66 23.334 80 38.001c11.333 11.333 19.333 28 24 50h43l183 -599c11.333 -36.667 23 -61.667 35 -75c14.667 -16.667 38.334 -27.667 71.001 -33v-27h-236v27c25.333 0 42.666 3.33301 51.999 10s14 16.334 14 29.001
c0 5.33301 -0.666992 10.666 -2 15.999l-7 28l-30 106h-250l-36 -106c-2.66699 -6.66699 -4.33398 -14.334 -5.00098 -23.001s-1 -17.334 -1 -26.001c0 -9.33301 4.66699 -16.666 14 -21.999s22 -9.33301 38 -12v-27h-200v27c27.333 6 49.5 16.5 66.5 31.5
s29.5 34.167 37.5 57.5l156 447c2 6.66699 3.66699 12.667 5 18s2 10 2 14c0 8.66699 -2.5 15.667 -7.5 21s-13.167 8 -24.5 8c-6.66699 0 -14 -1 -22 -3zM441.001 258l-105 336l-5 1l-111 -337h221z" />
    <glyph glyph-name="Agrave" unicode="&#x410;" horiz-adv-x="691" 
d="M230 621l0.000976562 25c39.333 10.667 66 23.334 80 38.001c11.333 11.333 19.333 28 24 50h43l183 -599c11.333 -36.667 23 -61.667 35 -75c14.667 -16.667 38.334 -27.667 71.001 -33v-27h-236v27c25.333 0 42.666 3.33301 51.999 10s14 16.334 14 29.001
c0 5.33301 -0.666992 10.666 -2 15.999l-7 28l-30 106h-250l-36 -106c-2.66699 -6.66699 -4.33398 -14.334 -5.00098 -23.001s-1 -17.334 -1 -26.001c0 -9.33301 4.66699 -16.666 14 -21.999s22 -9.33301 38 -12v-27h-200v27c27.333 6 49.5 16.5 66.5 31.5
s29.5 34.167 37.5 57.5l156 447c2 6.66699 3.66699 12.667 5 18s2 10 2 14c0 8.66699 -2.5 15.667 -7.5 21s-13.167 8 -24.5 8c-6.66699 0 -14 -1 -22 -3zM441.001 258l-105 336l-5 1l-111 -337h221z" />
    <glyph glyph-name="Aacute" unicode="&#xc1;" horiz-adv-x="647" 
d="M527 559l-24.999 0.000976562c-26.667 36.667 -48.334 61 -65.001 73c-24 17.333 -55.667 26 -95 26h-86c-18 0 -32 -3.16699 -42 -9.5s-15 -19.5 -15 -39.5v-15v-176c41.333 7.33301 82 11 122 11c98.667 0 173 -25.667 223 -77c38.667 -40 58 -87 58 -141
c0 -50.667 -17 -96.334 -51 -137.001c-41.333 -49.333 -97 -74 -167 -74h-339v27c26.667 0 45.667 7.66699 57 23s17 39.333 17 72v456c0 32.667 -5.5 56.667 -16.5 72s-30.167 23 -57.5 23v27h454zM199.001 376.001v-275.999c0 -26 9.66699 -43 29 -51
c11.333 -4.66699 33 -7 65 -7h34c62 0 109.667 20.667 143 62c26.667 33.333 40 70.666 40 111.999c0 38 -9 70.667 -27 98c-32 48 -87.333 72 -166 72c-28.667 0 -49.5 -0.5 -62.5 -1.5s-31.5 -3.83301 -55.5 -8.5z" />
    <glyph glyph-name="Aacute" unicode="&#x411;" horiz-adv-x="647" 
d="M527 559l-24.999 0.000976562c-26.667 36.667 -48.334 61 -65.001 73c-24 17.333 -55.667 26 -95 26h-86c-18 0 -32 -3.16699 -42 -9.5s-15 -19.5 -15 -39.5v-15v-176c41.333 7.33301 82 11 122 11c98.667 0 173 -25.667 223 -77c38.667 -40 58 -87 58 -141
c0 -50.667 -17 -96.334 -51 -137.001c-41.333 -49.333 -97 -74 -167 -74h-339v27c26.667 0 45.667 7.66699 57 23s17 39.333 17 72v456c0 32.667 -5.5 56.667 -16.5 72s-30.167 23 -57.5 23v27h454zM199.001 376.001v-275.999c0 -26 9.66699 -43 29 -51
c11.333 -4.66699 33 -7 65 -7h34c62 0 109.667 20.667 143 62c26.667 33.333 40 70.666 40 111.999c0 38 -9 70.667 -27 98c-32 48 -87.333 72 -166 72c-28.667 0 -49.5 -0.5 -62.5 -1.5s-31.5 -3.83301 -55.5 -8.5z" />
    <glyph glyph-name="Acircumflex" unicode="&#xc2;" horiz-adv-x="656" 
d="M45 700l301 -0.000976562c79.333 0 137.333 -18.667 174 -56c27.333 -28 41 -63.333 41 -106s-14.333 -78.667 -43 -108c-26 -26.667 -59.667 -44 -101 -52l-2 -5c69.333 -10 120.666 -36.333 153.999 -79c25.333 -32.667 38 -69 38 -109
c0 -49.333 -16.333 -90.666 -49 -123.999c-39.333 -40.667 -97.666 -61 -174.999 -61h-338v27c30.667 0 51.667 10.667 63 32c7.33301 14 11 35 11 63v456c0 31.333 -5.66699 55 -17 71s-30.333 24 -57 24v27zM199 384.999h124c60 0 102.667 17 128 51
c18 24 27 55.667 27 95c0 53.333 -21 90 -63 110c-24 11.333 -55.667 17 -95 17h-67c-21.333 0 -36.333 -5.66699 -45 -17c-6 -8 -9 -17.667 -9 -29v-227zM199 342.999v-267c0 -14 8 -23.667 24 -29c10 -3.33301 23.333 -5 40 -5h70c60 0 105.333 12 136 36s46 60 46 108
c0 52 -15.5 91.167 -46.5 117.5s-78.167 39.5 -141.5 39.5h-128z" />
    <glyph glyph-name="Acircumflex" unicode="&#x412;" horiz-adv-x="656" 
d="M45 700l301 -0.000976562c79.333 0 137.333 -18.667 174 -56c27.333 -28 41 -63.333 41 -106s-14.333 -78.667 -43 -108c-26 -26.667 -59.667 -44 -101 -52l-2 -5c69.333 -10 120.666 -36.333 153.999 -79c25.333 -32.667 38 -69 38 -109
c0 -49.333 -16.333 -90.666 -49 -123.999c-39.333 -40.667 -97.666 -61 -174.999 -61h-338v27c30.667 0 51.667 10.667 63 32c7.33301 14 11 35 11 63v456c0 31.333 -5.66699 55 -17 71s-30.333 24 -57 24v27zM199 384.999h124c60 0 102.667 17 128 51
c18 24 27 55.667 27 95c0 53.333 -21 90 -63 110c-24 11.333 -55.667 17 -95 17h-67c-21.333 0 -36.333 -5.66699 -45 -17c-6 -8 -9 -17.667 -9 -29v-227zM199 342.999v-267c0 -14 8 -23.667 24 -29c10 -3.33301 23.333 -5 40 -5h70c60 0 105.333 12 136 36s46 60 46 108
c0 52 -15.5 91.167 -46.5 117.5s-78.167 39.5 -141.5 39.5h-128z" />
    <glyph glyph-name="Atilde" unicode="&#xc3;" horiz-adv-x="533" 
d="M487 700l33.001 -135h-25c-10.667 25.333 -29 46.666 -55 63.999c-28.667 19.333 -61.334 29 -98.001 29h-83c-22.667 0 -38.667 -6.33301 -48 -19c-6 -8 -9 -18 -9 -30v-486c0 -28.667 4 -50 12 -64c12.667 -21.333 36 -32 70 -32v-27h-238v27
c30.667 0 51.667 9.33301 63 28c8.66699 14.667 13 37.334 13 68.001v443c0 35.333 -4.66699 61 -14 77c-11.333 20 -32.333 30 -63 30v27h442z" />
    <glyph glyph-name="Atilde" unicode="&#x413;" horiz-adv-x="533" 
d="M487 700l33.001 -135h-25c-10.667 25.333 -29 46.666 -55 63.999c-28.667 19.333 -61.334 29 -98.001 29h-83c-22.667 0 -38.667 -6.33301 -48 -19c-6 -8 -9 -18 -9 -30v-486c0 -28.667 4 -50 12 -64c12.667 -21.333 36 -32 70 -32v-27h-238v27
c30.667 0 51.667 9.33301 63 28c8.66699 14.667 13 37.334 13 68.001v443c0 35.333 -4.66699 61 -14 77c-11.333 20 -32.333 30 -63 30v27h442z" />
    <glyph glyph-name="Adieresis" unicode="&#xc4;" horiz-adv-x="712" 
d="M0 -147l39.998 177.998c38.667 0 64.834 4.66699 78.501 14s27.834 34 42.501 74c29.333 83.333 52 163 68 239s24 142 24 198c0 34.667 -7.16699 62.834 -21.5 84.501s-33.5 32.5 -57.5 32.5v27h487v-27c-27.333 0 -46.666 -6.83301 -57.999 -20.5s-17 -34.5 -17 -62.5
v-499c0 -22 10 -38 30 -48c16.667 -8 40 -12 70 -12l26 -178h-26c-10 38 -28 69 -54 93c-38.667 36 -92.334 54 -161.001 54h-254c-42 0 -81.167 -14.167 -117.5 -42.5s-60.833 -63.166 -73.5 -104.499h-26zM184.998 41.998l249 -0.000976562c32 0 52.667 5.66699 62 17
c6.66699 8 10 23.333 10 46v505c0 20.667 -8.66699 34.667 -26 42c-9.33301 4 -21 6 -35 6h-45c-33.333 0 -54.666 -3.33301 -63.999 -10c-16.667 -12 -27.334 -41.333 -32.001 -88c-6.66699 -65.333 -12.667 -115 -18 -149c-9.33301 -63.333 -21 -121.666 -35 -174.999
c-16.667 -64 -38.667 -128.667 -66 -194z" />
    <glyph glyph-name="Adieresis" unicode="&#x414;" horiz-adv-x="712" 
d="M0 -147l39.998 177.998c38.667 0 64.834 4.66699 78.501 14s27.834 34 42.501 74c29.333 83.333 52 163 68 239s24 142 24 198c0 34.667 -7.16699 62.834 -21.5 84.501s-33.5 32.5 -57.5 32.5v27h487v-27c-27.333 0 -46.666 -6.83301 -57.999 -20.5s-17 -34.5 -17 -62.5
v-499c0 -22 10 -38 30 -48c16.667 -8 40 -12 70 -12l26 -178h-26c-10 38 -28 69 -54 93c-38.667 36 -92.334 54 -161.001 54h-254c-42 0 -81.167 -14.167 -117.5 -42.5s-60.833 -63.166 -73.5 -104.499h-26zM184.998 41.998l249 -0.000976562c32 0 52.667 5.66699 62 17
c6.66699 8 10 23.333 10 46v505c0 20.667 -8.66699 34.667 -26 42c-9.33301 4 -21 6 -35 6h-45c-33.333 0 -54.666 -3.33301 -63.999 -10c-16.667 -12 -27.334 -41.333 -32.001 -88c-6.66699 -65.333 -12.667 -115 -18 -149c-9.33301 -63.333 -21 -121.666 -35 -174.999
c-16.667 -64 -38.667 -128.667 -66 -194z" />
    <glyph glyph-name="Aring" unicode="&#xc5;" horiz-adv-x="629" 
d="M535 700l22 -137.001h-25c-12 36 -36.333 62 -73 78c-26 11.333 -54 17 -84 17h-122c-18.667 0 -32.334 -3.66699 -41.001 -11s-13 -20.666 -13 -39.999v-205h156c32 0 53.333 3.66699 64 11c14 9.33301 21 28 21 56h26v-179h-26v7c0 16 -5.5 30.5 -16.5 43.5
s-25.5 19.5 -43.5 19.5h-181v-254c0 -29.333 6.5 -47.333 19.5 -54s39.167 -10 78.5 -10h76c44.667 0 81.167 7.66699 109.5 23s52.5 41 72.5 77h25l-23 -142h-512v27c30.667 0 51.667 10.667 63 32c7.33301 14 11 35 11 63v456c0 29.333 -3.33301 50.333 -10 63
c-11.333 21.333 -32.666 32 -63.999 32v27h490z" />
    <glyph glyph-name="Aring" unicode="&#x415;" horiz-adv-x="629" 
d="M535 700l22 -137.001h-25c-12 36 -36.333 62 -73 78c-26 11.333 -54 17 -84 17h-122c-18.667 0 -32.334 -3.66699 -41.001 -11s-13 -20.666 -13 -39.999v-205h156c32 0 53.333 3.66699 64 11c14 9.33301 21 28 21 56h26v-179h-26v7c0 16 -5.5 30.5 -16.5 43.5
s-25.5 19.5 -43.5 19.5h-181v-254c0 -29.333 6.5 -47.333 19.5 -54s39.167 -10 78.5 -10h76c44.667 0 81.167 7.66699 109.5 23s52.5 41 72.5 77h25l-23 -142h-512v27c30.667 0 51.667 10.667 63 32c7.33301 14 11 35 11 63v456c0 29.333 -3.33301 50.333 -10 63
c-11.333 21.333 -32.666 32 -63.999 32v27h490z" />
    <glyph glyph-name="AE" unicode="&#xc6;" horiz-adv-x="957" 
d="M594 700l-0.00195312 -27.001c-32 0 -53.667 -11.667 -65 -35c-6.66699 -14 -10 -34 -10 -60v-260l240 266l6 7l5 7l12 15c5.33301 7.33301 8.83301 12.833 10.5 16.5s2.5 7.5 2.5 11.5c0 9.33301 -5.16699 16.833 -15.5 22.5s-21.5 8.5 -33.5 8.5l-15 1v27h221v-27
c-26 -3.33301 -48.167 -10.666 -66.5 -21.999s-39.166 -29.666 -62.499 -54.999l-156 -171l187 -323l20 -30c8.66699 -12 18 -21.333 28 -28c16.667 -11.333 35 -17 55 -17v-27h-216v27h14c13.333 0 22.333 1.83301 27 5.5s7 8.5 7 14.5c0 4.66699 -1.5 10.667 -4.5 18
s-8.5 18 -16.5 32l-158 266l-91 -99v-142c0 -35.333 6 -60 18 -74s31 -21 57 -21v-27h-230v27c32.667 0 54.334 11.333 65.001 34c6.66699 14 10 34.333 10 61v142l-91 99l-158 -266c-8.66699 -15.333 -14.5 -26.333 -17.5 -33s-4.5 -12.334 -4.5 -17.001
c0 -6 2.5 -10.833 7.5 -14.5s14.167 -5.5 27.5 -5.5h13v-27h-216v27c21.333 0 40.333 6 57 18c9.33301 6.66699 18 15.667 26 27l20 30l188 323l-156 171c-23.333 25.333 -44 43.5 -62 54.5s-40.667 18.5 -68 22.5v27h222v-27l-15 -1c-12.667 0 -24 -2.5 -34 -7.5
s-15 -12.833 -15 -23.5c0 -6.66699 4.66699 -16.667 14 -30c7.33301 -10 14.333 -19 21 -27l241 -266v260c0 27.333 -3 47.333 -9 60c-11.333 23.333 -33.333 35 -66 35v27h230z" />
    <glyph glyph-name="AE" unicode="&#x416;" horiz-adv-x="957" 
d="M594 700l-0.00195312 -27.001c-32 0 -53.667 -11.667 -65 -35c-6.66699 -14 -10 -34 -10 -60v-260l240 266l6 7l5 7l12 15c5.33301 7.33301 8.83301 12.833 10.5 16.5s2.5 7.5 2.5 11.5c0 9.33301 -5.16699 16.833 -15.5 22.5s-21.5 8.5 -33.5 8.5l-15 1v27h221v-27
c-26 -3.33301 -48.167 -10.666 -66.5 -21.999s-39.166 -29.666 -62.499 -54.999l-156 -171l187 -323l20 -30c8.66699 -12 18 -21.333 28 -28c16.667 -11.333 35 -17 55 -17v-27h-216v27h14c13.333 0 22.333 1.83301 27 5.5s7 8.5 7 14.5c0 4.66699 -1.5 10.667 -4.5 18
s-8.5 18 -16.5 32l-158 266l-91 -99v-142c0 -35.333 6 -60 18 -74s31 -21 57 -21v-27h-230v27c32.667 0 54.334 11.333 65.001 34c6.66699 14 10 34.333 10 61v142l-91 99l-158 -266c-8.66699 -15.333 -14.5 -26.333 -17.5 -33s-4.5 -12.334 -4.5 -17.001
c0 -6 2.5 -10.833 7.5 -14.5s14.167 -5.5 27.5 -5.5h13v-27h-216v27c21.333 0 40.333 6 57 18c9.33301 6.66699 18 15.667 26 27l20 30l188 323l-156 171c-23.333 25.333 -44 43.5 -62 54.5s-40.667 18.5 -68 22.5v27h222v-27l-15 -1c-12.667 0 -24 -2.5 -34 -7.5
s-15 -12.833 -15 -23.5c0 -6.66699 4.66699 -16.667 14 -30c7.33301 -10 14.333 -19 21 -27l241 -266v260c0 27.333 -3 47.333 -9 60c-11.333 23.333 -33.333 35 -66 35v27h230z" />
    <glyph glyph-name="Ccedilla" unicode="&#xc7;" horiz-adv-x="581" 
d="M173 398h36.001c54 0 96 5.66699 126 17c56 21.333 84 61.333 84 120c0 36.667 -12.667 67.667 -38 93c-29.333 29.333 -69 44 -119 44c-40.667 0 -76.5 -11.667 -107.5 -35s-49.5 -55 -55.5 -95h-25l5 120c22 14 45.667 25.333 71 34c35.333 12 71 18 107 18
c73.333 0 133 -19 179 -57c41.333 -34 62 -74 62 -120c0 -35.333 -11.667 -66.333 -35 -93c-28 -32 -69 -52.333 -123 -61v-5c60.667 -6 108.667 -28.333 144 -67c32 -35.333 48 -78 48 -128c0 -49.333 -18.667 -92.333 -56 -129c-46 -45.333 -112.333 -68 -199 -68
c-36.667 0 -73 4.33301 -109 13c-46.667 11.333 -84.334 28.333 -113.001 51l-6 124h25c20 -54 50 -93 90 -117c32 -19.333 70.333 -29 115 -29c48 0 86.667 15 116 45s44 67.333 44 112c0 70 -27.667 118.333 -83 145c-36 17.333 -86 26 -150 26h-33v42z" />
    <glyph glyph-name="Ccedilla" unicode="&#x417;" horiz-adv-x="581" 
d="M173 398h36.001c54 0 96 5.66699 126 17c56 21.333 84 61.333 84 120c0 36.667 -12.667 67.667 -38 93c-29.333 29.333 -69 44 -119 44c-40.667 0 -76.5 -11.667 -107.5 -35s-49.5 -55 -55.5 -95h-25l5 120c22 14 45.667 25.333 71 34c35.333 12 71 18 107 18
c73.333 0 133 -19 179 -57c41.333 -34 62 -74 62 -120c0 -35.333 -11.667 -66.333 -35 -93c-28 -32 -69 -52.333 -123 -61v-5c60.667 -6 108.667 -28.333 144 -67c32 -35.333 48 -78 48 -128c0 -49.333 -18.667 -92.333 -56 -129c-46 -45.333 -112.333 -68 -199 -68
c-36.667 0 -73 4.33301 -109 13c-46.667 11.333 -84.334 28.333 -113.001 51l-6 124h25c20 -54 50 -93 90 -117c32 -19.333 70.333 -29 115 -29c48 0 86.667 15 116 45s44 67.333 44 112c0 70 -27.667 118.333 -83 145c-36 17.333 -86 26 -150 26h-33v42z" />
    <glyph glyph-name="Egrave" unicode="&#xc8;" horiz-adv-x="748" 
d="M477 700h225.998v-27c-30 0 -50.667 -9 -62 -27c-7.33301 -12 -11 -30.667 -11 -56v-480c0 -25.333 3.66699 -44 11 -56c10.667 -18 31.334 -27 62.001 -27v-27h-226v27c27.333 0 46.333 6.33301 57 19s16 34 16 64v417l-352 -388v-29c0 -25.333 3.66699 -44 11 -56
c10.667 -18 31.334 -27 62.001 -27v-27h-226v27c27.333 0 46.333 6.33301 57 19s16 34 16 64v480c0 29.333 -5.5 50.5 -16.5 63.5s-29.833 19.5 -56.5 19.5v27h226v-27c-30 0 -50.667 -9 -62 -27c-7.33301 -12 -11 -30.667 -11 -56v-390l352 384v5c0 56 -24.333 84 -73 84
v27z" />
    <glyph glyph-name="Egrave" unicode="&#x418;" horiz-adv-x="748" 
d="M477 700h225.998v-27c-30 0 -50.667 -9 -62 -27c-7.33301 -12 -11 -30.667 -11 -56v-480c0 -25.333 3.66699 -44 11 -56c10.667 -18 31.334 -27 62.001 -27v-27h-226v27c27.333 0 46.333 6.33301 57 19s16 34 16 64v417l-352 -388v-29c0 -25.333 3.66699 -44 11 -56
c10.667 -18 31.334 -27 62.001 -27v-27h-226v27c27.333 0 46.333 6.33301 57 19s16 34 16 64v480c0 29.333 -5.5 50.5 -16.5 63.5s-29.833 19.5 -56.5 19.5v27h226v-27c-30 0 -50.667 -9 -62 -27c-7.33301 -12 -11 -30.667 -11 -56v-390l352 384v5c0 56 -24.333 84 -73 84
v27z" />
    <glyph glyph-name="Eacute" unicode="&#xc9;" horiz-adv-x="748" 
d="M375 736c-28.667 0 -54.335 5.33203 -77.002 15.999c-32.667 15.333 -49 39 -49 71c0 20.667 4.83301 35.667 14.5 45s22.167 14 37.5 14c8 0 14.833 -1 20.5 -3s8.5 -5.66699 8.5 -11c2 -8 3 -14.667 3 -20s-1.16699 -10.166 -3.5 -14.499s-7.16602 -9.5 -14.499 -15.5
c-4 -3.33301 -7 -6.66602 -9 -9.99902c-4 -6.66699 -6 -13.334 -6 -20.001c0 -10.667 13.333 -18 40 -22c13.333 -2 25 -3 35 -3c18 0 32 1 42 3c22 4 33 11.333 33 22c0 10 -3.33301 18 -10 24c-11.333 10.667 -17.666 17 -18.999 19c-3.33301 5.33301 -5 11.333 -5 18
c0 7.33301 1.66699 13.666 5 18.999c6 9.33301 15.333 14 28 14c19.333 0 33.333 -6.33301 42 -19c6.66699 -10 10 -23.333 10 -40c0 -23.333 -10 -42.666 -30 -57.999c-26 -19.333 -58 -29 -96 -29zM476.999 699.999h225.998v-27c-30 0 -50.667 -9 -62 -27
c-7.33301 -12 -11 -30.667 -11 -56v-480c0 -25.333 3.66699 -44 11 -56c10.667 -18 31.334 -27 62.001 -27v-27h-226v27c27.333 0 46.333 6.33301 57 19s16 34 16 64v417l-352 -388v-29c0 -25.333 3.66699 -44 11 -56c10.667 -18 31.334 -27 62.001 -27v-27h-226v27
c27.333 0 46.333 6.33301 57 19s16 34 16 64v480c0 29.333 -5.5 50.5 -16.5 63.5s-29.833 19.5 -56.5 19.5v27h226v-27c-30 0 -50.667 -9 -62 -27c-7.33301 -12 -11 -30.667 -11 -56v-390l352 384v5c0 56 -24.333 84 -73 84v27z" />
    <glyph glyph-name="Eacute" unicode="&#x419;" horiz-adv-x="748" 
d="M375 736c-28.667 0 -54.335 5.33203 -77.002 15.999c-32.667 15.333 -49 39 -49 71c0 20.667 4.83301 35.667 14.5 45s22.167 14 37.5 14c8 0 14.833 -1 20.5 -3s8.5 -5.66699 8.5 -11c2 -8 3 -14.667 3 -20s-1.16699 -10.166 -3.5 -14.499s-7.16602 -9.5 -14.499 -15.5
c-4 -3.33301 -7 -6.66602 -9 -9.99902c-4 -6.66699 -6 -13.334 -6 -20.001c0 -10.667 13.333 -18 40 -22c13.333 -2 25 -3 35 -3c18 0 32 1 42 3c22 4 33 11.333 33 22c0 10 -3.33301 18 -10 24c-11.333 10.667 -17.666 17 -18.999 19c-3.33301 5.33301 -5 11.333 -5 18
c0 7.33301 1.66699 13.666 5 18.999c6 9.33301 15.333 14 28 14c19.333 0 33.333 -6.33301 42 -19c6.66699 -10 10 -23.333 10 -40c0 -23.333 -10 -42.666 -30 -57.999c-26 -19.333 -58 -29 -96 -29zM476.999 699.999h225.998v-27c-30 0 -50.667 -9 -62 -27
c-7.33301 -12 -11 -30.667 -11 -56v-480c0 -25.333 3.66699 -44 11 -56c10.667 -18 31.334 -27 62.001 -27v-27h-226v27c27.333 0 46.333 6.33301 57 19s16 34 16 64v417l-352 -388v-29c0 -25.333 3.66699 -44 11 -56c10.667 -18 31.334 -27 62.001 -27v-27h-226v27
c27.333 0 46.333 6.33301 57 19s16 34 16 64v480c0 29.333 -5.5 50.5 -16.5 63.5s-29.833 19.5 -56.5 19.5v27h226v-27c-30 0 -50.667 -9 -62 -27c-7.33301 -12 -11 -30.667 -11 -56v-390l352 384v5c0 56 -24.333 84 -73 84v27z" />
    <glyph glyph-name="Ecircumflex" unicode="&#xca;" horiz-adv-x="639" 
d="M275 700v-27c-28.667 0 -48.334 -8 -59.001 -24s-16 -39.667 -16 -71v-260l241 266l17 22c4.66699 4.66699 8.83398 10.334 12.501 17.001s5.5 12.667 5.5 18c0 9.33301 -4.83301 16.833 -14.5 22.5s-20.834 8.5 -33.501 8.5l-15 1v27h221v-27
c-30 -4 -56.333 -14 -79 -30c-13.333 -9.33301 -30 -25 -50 -47l-157 -171l188 -323l20 -30c10 -14.667 22.167 -25.834 36.5 -33.501s29.833 -11.5 46.5 -11.5v-27h-216v27h14c13.333 0 22.333 1.83301 27 5.5s7 8.5 7 14.5c0 5.33301 -2.66699 13.666 -8 24.999l-13 25
l-159 267l-91 -100v-142c0 -31.333 4.66699 -54 14 -68c12 -18 32.333 -27 61 -27v-27h-230v27c28 0 48 9 60 27c10 15.333 15 38 15 68v456c0 30.667 -4.66699 53.334 -14 68.001c-11.333 18 -31.666 27 -60.999 27v27h230z" />
    <glyph glyph-name="Ecircumflex" unicode="&#x41a;" horiz-adv-x="639" 
d="M275 700v-27c-28.667 0 -48.334 -8 -59.001 -24s-16 -39.667 -16 -71v-260l241 266l17 22c4.66699 4.66699 8.83398 10.334 12.501 17.001s5.5 12.667 5.5 18c0 9.33301 -4.83301 16.833 -14.5 22.5s-20.834 8.5 -33.501 8.5l-15 1v27h221v-27
c-30 -4 -56.333 -14 -79 -30c-13.333 -9.33301 -30 -25 -50 -47l-157 -171l188 -323l20 -30c10 -14.667 22.167 -25.834 36.5 -33.501s29.833 -11.5 46.5 -11.5v-27h-216v27h14c13.333 0 22.333 1.83301 27 5.5s7 8.5 7 14.5c0 5.33301 -2.66699 13.666 -8 24.999l-13 25
l-159 267l-91 -100v-142c0 -31.333 4.66699 -54 14 -68c12 -18 32.333 -27 61 -27v-27h-230v27c28 0 48 9 60 27c10 15.333 15 38 15 68v456c0 30.667 -4.66699 53.334 -14 68.001c-11.333 18 -31.666 27 -60.999 27v27h230z" />
    <glyph glyph-name="Edieresis" unicode="&#xcb;" horiz-adv-x="735" 
d="M187 700l503.001 -0.00292969v-27c-26.667 0 -45.834 -6.5 -57.501 -19.5s-17.5 -34.167 -17.5 -63.5v-480c0 -55.333 25 -83 75 -83v-27h-229v27c49.333 0 74 27.667 74 83v479c0 28 -3.83301 46.5 -11.5 55.5s-24.167 13.5 -49.5 13.5h-56c-34 0 -57 -6.33301 -69 -19
c-16.667 -17.333 -25 -51.666 -25 -102.999c0 -53.333 -5.33301 -118.166 -16 -194.499s-23.167 -139.666 -37.5 -189.999s-30.5 -88.166 -48.5 -113.499c-25.333 -34.667 -57.666 -52 -96.999 -52c-31.333 0 -56.5 10.167 -75.5 30.5s-28.5 49.166 -28.5 86.499
c0 27.333 6.16699 49.166 18.5 65.499s27.166 24.5 44.499 24.5c10.667 0 19 -3.66699 25 -11s10 -16.333 12 -27v-25c-2 -11.333 -4.83301 -21.166 -8.5 -29.499s-8 -16 -13 -23s-7.83301 -11.5 -8.5 -13.5s-1 -6.33301 -1 -13c0 -8 2.83301 -14 8.5 -18s12.5 -6 20.5 -6
c36.667 0 68 34 94 102c20 51.333 36 123.333 48 216c10 75.333 15 139 15 191c0 48 -4 80.667 -12 98c-12 26 -37.667 39 -77 39v27z" />
    <glyph glyph-name="Edieresis" unicode="&#x41b;" horiz-adv-x="735" 
d="M187 700l503.001 -0.00292969v-27c-26.667 0 -45.834 -6.5 -57.501 -19.5s-17.5 -34.167 -17.5 -63.5v-480c0 -55.333 25 -83 75 -83v-27h-229v27c49.333 0 74 27.667 74 83v479c0 28 -3.83301 46.5 -11.5 55.5s-24.167 13.5 -49.5 13.5h-56c-34 0 -57 -6.33301 -69 -19
c-16.667 -17.333 -25 -51.666 -25 -102.999c0 -53.333 -5.33301 -118.166 -16 -194.499s-23.167 -139.666 -37.5 -189.999s-30.5 -88.166 -48.5 -113.499c-25.333 -34.667 -57.666 -52 -96.999 -52c-31.333 0 -56.5 10.167 -75.5 30.5s-28.5 49.166 -28.5 86.499
c0 27.333 6.16699 49.166 18.5 65.499s27.166 24.5 44.499 24.5c10.667 0 19 -3.66699 25 -11s10 -16.333 12 -27v-25c-2 -11.333 -4.83301 -21.166 -8.5 -29.499s-8 -16 -13 -23s-7.83301 -11.5 -8.5 -13.5s-1 -6.33301 -1 -13c0 -8 2.83301 -14 8.5 -18s12.5 -6 20.5 -6
c36.667 0 68 34 94 102c20 51.333 36 123.333 48 216c10 75.333 15 139 15 191c0 48 -4 80.667 -12 98c-12 26 -37.667 39 -77 39v27z" />
    <glyph glyph-name="Igrave" unicode="&#xcc;" horiz-adv-x="944" 
d="M304 700l153 -477.002h6l176 477h163v-27c-25.333 0 -42.833 -4.16699 -52.5 -12.5s-14.5 -20.166 -14.5 -35.499c0 -4.66699 0.166992 -8.66699 0.5 -12s1.5 -10 3.5 -20l87 -465c4.66699 -26 10.667 -45.333 18 -58c16 -28.667 39.333 -43 70 -43h5v-27h-242v27
c26.667 0 45.834 4 57.501 12s17.5 17.667 17.5 29c0 10 -1 20.833 -3 32.5l-5 28.5l-87 456h-5l-191 -508h-39l-169 508h-4l-91 -459l-3.5 -20.5c-1 -5.66699 -1.5 -11.167 -1.5 -16.5c0 -19.333 4.33301 -33.666 13 -42.999c11.333 -12.667 31 -19 59 -19v-27h-208v27
c26.667 2.66699 46.5 11.667 59.5 27s22.833 39 29.5 71l88 456c1.33301 8.66699 2.66602 16.834 3.99902 24.501s2 14.167 2 19.5c0 15.333 -4 26.666 -12 33.999c-10.667 9.33301 -28 14 -52 14v27h168z" />
    <glyph glyph-name="Igrave" unicode="&#x41c;" horiz-adv-x="944" 
d="M304 700l153 -477.002h6l176 477h163v-27c-25.333 0 -42.833 -4.16699 -52.5 -12.5s-14.5 -20.166 -14.5 -35.499c0 -4.66699 0.166992 -8.66699 0.5 -12s1.5 -10 3.5 -20l87 -465c4.66699 -26 10.667 -45.333 18 -58c16 -28.667 39.333 -43 70 -43h5v-27h-242v27
c26.667 0 45.834 4 57.501 12s17.5 17.667 17.5 29c0 10 -1 20.833 -3 32.5l-5 28.5l-87 456h-5l-191 -508h-39l-169 508h-4l-91 -459l-3.5 -20.5c-1 -5.66699 -1.5 -11.167 -1.5 -16.5c0 -19.333 4.33301 -33.666 13 -42.999c11.333 -12.667 31 -19 59 -19v-27h-208v27
c26.667 2.66699 46.5 11.667 59.5 27s22.833 39 29.5 71l88 456c1.33301 8.66699 2.66602 16.834 3.99902 24.501s2 14.167 2 19.5c0 15.333 -4 26.666 -12 33.999c-10.667 9.33301 -28 14 -52 14v27h168z" />
    <glyph glyph-name="Iacute" unicode="&#xcd;" horiz-adv-x="762" 
d="M273 700v-26.998c-26 0 -44.833 -7.83301 -56.5 -23.5s-17.5 -39.5 -17.5 -71.5v-179h365v179c0 32.667 -5.5 56.667 -16.5 72s-30.167 23 -57.5 23v27h227v-27c-30 0 -50.333 -10 -61 -30c-8 -14.667 -12 -36.334 -12 -65.001v-456c0 -37.333 6.66699 -63 20 -77
c11.333 -12 29 -18 53 -18v-27h-227v27c26 0 44.833 7.83301 56.5 23.5s17.5 39.5 17.5 71.5v235h-365v-235c0 -32.667 5.5 -56.667 16.5 -72s30.167 -23 57.5 -23v-27h-228v27c31.333 0 52.333 10 63 30c7.33301 13.333 11 35 11 65v456
c0 29.333 -3.66699 50.666 -11 63.999c-11.333 20.667 -32.333 31 -63 31v27h228z" />
    <glyph glyph-name="Iacute" unicode="&#x41d;" horiz-adv-x="762" 
d="M273 700v-26.998c-26 0 -44.833 -7.83301 -56.5 -23.5s-17.5 -39.5 -17.5 -71.5v-179h365v179c0 32.667 -5.5 56.667 -16.5 72s-30.167 23 -57.5 23v27h227v-27c-30 0 -50.333 -10 -61 -30c-8 -14.667 -12 -36.334 -12 -65.001v-456c0 -37.333 6.66699 -63 20 -77
c11.333 -12 29 -18 53 -18v-27h-227v27c26 0 44.833 7.83301 56.5 23.5s17.5 39.5 17.5 71.5v235h-365v-235c0 -32.667 5.5 -56.667 16.5 -72s30.167 -23 57.5 -23v-27h-228v27c31.333 0 52.333 10 63 30c7.33301 13.333 11 35 11 65v456
c0 29.333 -3.66699 50.666 -11 63.999c-11.333 20.667 -32.333 31 -63 31v27h228z" />
    <glyph glyph-name="Icircumflex" unicode="&#xce;" horiz-adv-x="756" 
d="M49 361c0 119.333 40.333 211.667 121 277c62.667 50.667 131.667 76 207 76c45.333 0 91 -10.667 137 -32c56 -26 100.333 -62.667 133 -110c40 -58 60 -128.333 60 -211c0 -122.667 -37.667 -218.667 -113 -288c-62.667 -58 -135 -87 -217 -87
c-79.333 0 -150.333 28.667 -213 86c-76.667 70 -115 166.333 -115 289zM378 672.001c-58.667 0 -109.668 -22 -153.001 -66c-55.333 -56 -83 -138.333 -83 -247c0 -96.667 19.667 -175 59 -235c42 -64 101 -96 177 -96c82 0 144 37 186 111c34 60 51 133.333 51 220
c0 108.667 -27.667 191 -83 247c-43.333 44 -94.666 66 -153.999 66z" />
    <glyph glyph-name="Icircumflex" unicode="&#x41e;" horiz-adv-x="756" 
d="M49 361c0 119.333 40.333 211.667 121 277c62.667 50.667 131.667 76 207 76c45.333 0 91 -10.667 137 -32c56 -26 100.333 -62.667 133 -110c40 -58 60 -128.333 60 -211c0 -122.667 -37.667 -218.667 -113 -288c-62.667 -58 -135 -87 -217 -87
c-79.333 0 -150.333 28.667 -213 86c-76.667 70 -115 166.333 -115 289zM378 672.001c-58.667 0 -109.668 -22 -153.001 -66c-55.333 -56 -83 -138.333 -83 -247c0 -96.667 19.667 -175 59 -235c42 -64 101 -96 177 -96c82 0 144 37 186 111c34 60 51 133.333 51 220
c0 108.667 -27.667 191 -83 247c-43.333 44 -94.666 66 -153.999 66z" />
    <glyph glyph-name="Idieresis" unicode="&#xcf;" horiz-adv-x="749" 
d="M474 0v27c32 0 53.333 10.333 64 31c7.33301 14 11 35.333 11 64v463c0 28.667 -6.66699 48 -20 58s-37 15 -71 15h-167c-33.333 0 -56 -4 -68 -12c-15.333 -10.667 -23 -31 -23 -61v-463c0 -31.333 4.66699 -54 14 -68c12 -18 32.667 -27 62 -27v-27h-231v27
c32 0 53.333 10.333 64 31c7.33301 14 11 35.333 11 64v456c0 29.333 -3.33301 50.333 -10 63c-11.333 21.333 -33 32 -65 32v27h659v-27c-32 0 -53.333 -10.333 -64 -31c-7.33301 -14 -11 -35.333 -11 -64v-456c0 -29.333 3.33301 -50.333 10 -63
c11.333 -21.333 33 -32 65 -32v-27h-230z" />
    <glyph glyph-name="Idieresis" unicode="&#x41f;" horiz-adv-x="749" 
d="M474 0v27c32 0 53.333 10.333 64 31c7.33301 14 11 35.333 11 64v463c0 28.667 -6.66699 48 -20 58s-37 15 -71 15h-167c-33.333 0 -56 -4 -68 -12c-15.333 -10.667 -23 -31 -23 -61v-463c0 -31.333 4.66699 -54 14 -68c12 -18 32.667 -27 62 -27v-27h-231v27
c32 0 53.333 10.333 64 31c7.33301 14 11 35.333 11 64v456c0 29.333 -3.33301 50.333 -10 63c-11.333 21.333 -33 32 -65 32v27h659v-27c-32 0 -53.333 -10.333 -64 -31c-7.33301 -14 -11 -35.333 -11 -64v-456c0 -29.333 3.33301 -50.333 10 -63
c11.333 -21.333 33 -32 65 -32v-27h-230z" />
    <glyph glyph-name="Eth" unicode="&#xd0;" horiz-adv-x="614" 
d="M198 264l0.000976562 -144c0 -62 26.667 -93 80 -93v-27h-233v27c31.333 0 52.333 10.667 63 32c6.66699 12.667 10 33 10 61v460c0 28 -3.33301 48.333 -10 61c-11.333 21.333 -32.333 32 -63 32v27h295c94 0 161.333 -24.667 202 -74c29.333 -35.333 44 -83 44 -143
c0 -84 -31.333 -144.333 -94 -181c-40.667 -24 -89.334 -36 -146.001 -36l-44 -2h-104zM198.001 579l-0.00195312 -273h79c62.667 0 108.334 7 137.001 21c52.667 26 79 78 79 156c0 75.333 -25.333 126.333 -76 153c-27.333 14.667 -64.666 22 -111.999 22
c-50 0 -81.333 -5 -94 -15c-8 -6 -12 -20 -12 -42v-12z" />
    <glyph glyph-name="Eth" unicode="&#x420;" horiz-adv-x="614" 
d="M198 264l0.000976562 -144c0 -62 26.667 -93 80 -93v-27h-233v27c31.333 0 52.333 10.667 63 32c6.66699 12.667 10 33 10 61v460c0 28 -3.33301 48.333 -10 61c-11.333 21.333 -32.333 32 -63 32v27h295c94 0 161.333 -24.667 202 -74c29.333 -35.333 44 -83 44 -143
c0 -84 -31.333 -144.333 -94 -181c-40.667 -24 -89.334 -36 -146.001 -36l-44 -2h-104zM198.001 579l-0.00195312 -273h79c62.667 0 108.334 7 137.001 21c52.667 26 79 78 79 156c0 75.333 -25.333 126.333 -76 153c-27.333 14.667 -64.666 22 -111.999 22
c-50 0 -81.333 -5 -94 -15c-8 -6 -12 -20 -12 -42v-12z" />
    <glyph glyph-name="Ntilde" unicode="&#xd1;" horiz-adv-x="673" 
d="M590 551l-25 0.00195312c-13.333 36 -37.5 65.167 -72.5 87.5s-72.5 33.5 -112.5 33.5c-66 0 -120.333 -23.667 -163 -71c-50.667 -56.667 -76 -140.334 -76 -251.001c0 -89.333 20.333 -164 61 -224c44 -65.333 103.333 -98 178 -98c53.333 0 100 13.667 140 41
s66 65.666 78 114.999h25l-6 -140c-27.333 -18 -60 -32.167 -98 -42.5s-79 -15.5 -123 -15.5h-16c-96 0 -176.333 38.333 -241 115c-60 71.333 -90 153.666 -90 246.999c0 94 30.667 176 92 246c70.667 80.667 164.667 121 282 121c34 0 64 -3.16699 90 -9.5
s50 -15.166 72 -26.499z" />
    <glyph glyph-name="Ntilde" unicode="&#x421;" horiz-adv-x="673" 
d="M590 551l-25 0.00195312c-13.333 36 -37.5 65.167 -72.5 87.5s-72.5 33.5 -112.5 33.5c-66 0 -120.333 -23.667 -163 -71c-50.667 -56.667 -76 -140.334 -76 -251.001c0 -89.333 20.333 -164 61 -224c44 -65.333 103.333 -98 178 -98c53.333 0 100 13.667 140 41
s66 65.666 78 114.999h25l-6 -140c-27.333 -18 -60 -32.167 -98 -42.5s-79 -15.5 -123 -15.5h-16c-96 0 -176.333 38.333 -241 115c-60 71.333 -90 153.666 -90 246.999c0 94 30.667 176 92 246c70.667 80.667 164.667 121 282 121c34 0 64 -3.16699 90 -9.5
s50 -15.166 72 -26.499z" />
    <glyph glyph-name="Ograve" unicode="&#xd2;" horiz-adv-x="594" 
d="M182 0v26.9971c28 0 47.5 7.33301 58.5 22s16.5 38.334 16.5 71.001v470c0 28.667 -4.66699 47.167 -14 55.5s-24.666 12.5 -45.999 12.5c-26 0 -50.333 -5.33301 -73 -16c-32 -15.333 -59.333 -40.333 -82 -75h-25l30 133h500l30 -133h-25
c-20.667 32 -44.5 55.167 -71.5 69.5s-54.5 21.5 -82.5 21.5c-22 0 -37 -3.33301 -45 -10c-10.667 -9.33301 -16 -28.666 -16 -57.999v-470c0 -31.333 5.66699 -54.666 17 -69.999s30.666 -23 57.999 -23v-27h-230z" />
    <glyph glyph-name="Ograve" unicode="&#x422;" horiz-adv-x="594" 
d="M182 0v26.9971c28 0 47.5 7.33301 58.5 22s16.5 38.334 16.5 71.001v470c0 28.667 -4.66699 47.167 -14 55.5s-24.666 12.5 -45.999 12.5c-26 0 -50.333 -5.33301 -73 -16c-32 -15.333 -59.333 -40.333 -82 -75h-25l30 133h500l30 -133h-25
c-20.667 32 -44.5 55.167 -71.5 69.5s-54.5 21.5 -82.5 21.5c-22 0 -37 -3.33301 -45 -10c-10.667 -9.33301 -16 -28.666 -16 -57.999v-470c0 -31.333 5.66699 -54.666 17 -69.999s30.666 -23 57.999 -23v-27h-230z" />
    <glyph glyph-name="Oacute" unicode="&#xd3;" horiz-adv-x="678" 
d="M28 700l212.001 0.000976562v-27h-13c-10 0 -19.167 -1.16699 -27.5 -3.5s-12.5 -7.83301 -12.5 -16.5c0 -6 0.833008 -12 2.5 -18s3.83398 -12.667 6.50098 -20l167 -363h6l135 319c8.66699 20.667 14.334 35.667 17.001 45s4 16.666 4 21.999
c0 10.667 -4.5 19.167 -13.5 25.5s-20.833 9.5 -35.5 9.5h-6v27h191v-27c-19.333 -2.66699 -37 -10.334 -53 -23.001c-22.667 -18.667 -42 -46.667 -58 -84l-196 -467c-18.667 -44 -42.334 -75 -71.001 -93c-21.333 -13.333 -47.333 -20 -78 -20c-46.667 0 -82 16 -106 48
c-19.333 26 -29 57 -29 93c0 16.667 4.5 33.334 13.5 50.001s23.167 25 42.5 25c11.333 0 20.666 -3 27.999 -9c10 -8.66699 15 -22 15 -40c0 -11.333 -1.33301 -20.333 -4 -27s-7.33398 -14.667 -14.001 -24l-8 -14.5c-2.66699 -5 -4 -9.83301 -4 -14.5
c0 -12 6.16699 -22.5 18.5 -31.5s28.833 -13.5 49.5 -13.5c25.333 0 46.333 7.33301 63 22c24 20.667 43.333 56.667 58 108l-204 434c-12 26 -25 45 -39 57s-33 20 -57 24v27z" />
    <glyph glyph-name="Oacute" unicode="&#x423;" horiz-adv-x="678" 
d="M28 700l212.001 0.000976562v-27h-13c-10 0 -19.167 -1.16699 -27.5 -3.5s-12.5 -7.83301 -12.5 -16.5c0 -6 0.833008 -12 2.5 -18s3.83398 -12.667 6.50098 -20l167 -363h6l135 319c8.66699 20.667 14.334 35.667 17.001 45s4 16.666 4 21.999
c0 10.667 -4.5 19.167 -13.5 25.5s-20.833 9.5 -35.5 9.5h-6v27h191v-27c-19.333 -2.66699 -37 -10.334 -53 -23.001c-22.667 -18.667 -42 -46.667 -58 -84l-196 -467c-18.667 -44 -42.334 -75 -71.001 -93c-21.333 -13.333 -47.333 -20 -78 -20c-46.667 0 -82 16 -106 48
c-19.333 26 -29 57 -29 93c0 16.667 4.5 33.334 13.5 50.001s23.167 25 42.5 25c11.333 0 20.666 -3 27.999 -9c10 -8.66699 15 -22 15 -40c0 -11.333 -1.33301 -20.333 -4 -27s-7.33398 -14.667 -14.001 -24l-8 -14.5c-2.66699 -5 -4 -9.83301 -4 -14.5
c0 -12 6.16699 -22.5 18.5 -31.5s28.833 -13.5 49.5 -13.5c25.333 0 46.333 7.33301 63 22c24 20.667 43.333 56.667 58 108l-204 434c-12 26 -25 45 -39 57s-33 20 -57 24v27z" />
    <glyph glyph-name="Ocircumflex" unicode="&#xd4;" horiz-adv-x="856" 
d="M312 0l0.00195312 27.0039c20.667 0 37.334 4.33301 50.001 13c17.333 12 26 30.333 26 55v24h-22c-76.667 0 -142.334 13.333 -197.001 40c-80 39.333 -120 102 -120 188c0 94.667 41.333 164 124 208c56.667 30 120 45 190 45h25v24c0 15.333 -5 28.666 -15 39.999
c-14 15.333 -34.667 23 -62 23v27h234v-27c-30.667 0 -52.334 -8.33301 -65.001 -25c-8 -10.667 -12 -23.334 -12 -38.001v-24h25c70.667 0 133.667 -14.667 189 -44c83.333 -44.667 125 -114.334 125 -209.001c0 -86.667 -39.667 -149.334 -119 -188.001
c-54.667 -26.667 -120.334 -40 -197.001 -40h-23c0 -32 5.66699 -55.333 17 -70s31.333 -22 60 -22v-27h-233zM388.002 161.004v397c-66 0 -121.333 -16 -166 -48c-54 -38.667 -81 -94.667 -81 -168c0 -66.667 27.667 -115.667 83 -147c40 -22.667 88 -34 144 -34h20z
M468.002 558.004l0.000976562 -396.999h19c76 0 134.333 19.333 175 58c35.333 33.333 53 74.333 53 123c0 63.333 -21.833 115.166 -65.5 155.499s-97.834 60.5 -162.501 60.5h-19z" />
    <glyph glyph-name="Ocircumflex" unicode="&#x424;" horiz-adv-x="856" 
d="M312 0l0.00195312 27.0039c20.667 0 37.334 4.33301 50.001 13c17.333 12 26 30.333 26 55v24h-22c-76.667 0 -142.334 13.333 -197.001 40c-80 39.333 -120 102 -120 188c0 94.667 41.333 164 124 208c56.667 30 120 45 190 45h25v24c0 15.333 -5 28.666 -15 39.999
c-14 15.333 -34.667 23 -62 23v27h234v-27c-30.667 0 -52.334 -8.33301 -65.001 -25c-8 -10.667 -12 -23.334 -12 -38.001v-24h25c70.667 0 133.667 -14.667 189 -44c83.333 -44.667 125 -114.334 125 -209.001c0 -86.667 -39.667 -149.334 -119 -188.001
c-54.667 -26.667 -120.334 -40 -197.001 -40h-23c0 -32 5.66699 -55.333 17 -70s31.333 -22 60 -22v-27h-233zM388.002 161.004v397c-66 0 -121.333 -16 -166 -48c-54 -38.667 -81 -94.667 -81 -168c0 -66.667 27.667 -115.667 83 -147c40 -22.667 88 -34 144 -34h20z
M468.002 558.004l0.000976562 -396.999h19c76 0 134.333 19.333 175 58c35.333 33.333 53 74.333 53 123c0 63.333 -21.833 115.166 -65.5 155.499s-97.834 60.5 -162.501 60.5h-19z" />
    <glyph glyph-name="Otilde" unicode="&#xd5;" horiz-adv-x="700" 
d="M54 700l230.999 0.000976562v-27c-17.333 -1.33301 -29.666 -3 -36.999 -5s-12.333 -5.66699 -15 -11c-1.33301 -2.66699 -1.33301 -7 0 -13c1.33301 -5.33301 7.66602 -17 18.999 -35l107 -173l114 162c10.667 14.667 17 24 19 28c6 10 9 17.667 9 23
c0 6.66699 -2.33301 11.334 -7 14.001s-11.334 4.66699 -20.001 6l-31 4v27h208v-27c-33.333 -6 -58.666 -13.833 -75.999 -23.5s-35.333 -27.834 -54 -54.501l-138 -197l187 -299c12 -20 24 -34.667 36 -44c18.667 -14.667 43 -24 73 -28v-27h-245v27
c20 2.66699 32.667 4.66699 38 6c13.333 4 20 10 20 18c0 8.66699 -2.16699 17.5 -6.5 26.5s-10.833 20.5 -19.5 34.5l-132 216l-139 -202c-10.667 -15.333 -18.334 -29 -23.001 -41c-1.33301 -4 -2.66602 -8.66699 -3.99902 -14c0 -12.667 4.16699 -23.167 12.5 -31.5
s23.833 -12.5 46.5 -12.5v-27h-206v27c18.667 5.33301 36.334 14.333 53.001 27c23.333 17.333 45.333 41.333 66 72l167 245l-146 236c-12.667 19.333 -29 35.166 -49 47.499s-39.333 18.5 -58 18.5v27z" />
    <glyph glyph-name="Otilde" unicode="&#x425;" horiz-adv-x="700" 
d="M54 700l230.999 0.000976562v-27c-17.333 -1.33301 -29.666 -3 -36.999 -5s-12.333 -5.66699 -15 -11c-1.33301 -2.66699 -1.33301 -7 0 -13c1.33301 -5.33301 7.66602 -17 18.999 -35l107 -173l114 162c10.667 14.667 17 24 19 28c6 10 9 17.667 9 23
c0 6.66699 -2.33301 11.334 -7 14.001s-11.334 4.66699 -20.001 6l-31 4v27h208v-27c-33.333 -6 -58.666 -13.833 -75.999 -23.5s-35.333 -27.834 -54 -54.501l-138 -197l187 -299c12 -20 24 -34.667 36 -44c18.667 -14.667 43 -24 73 -28v-27h-245v27
c20 2.66699 32.667 4.66699 38 6c13.333 4 20 10 20 18c0 8.66699 -2.16699 17.5 -6.5 26.5s-10.833 20.5 -19.5 34.5l-132 216l-139 -202c-10.667 -15.333 -18.334 -29 -23.001 -41c-1.33301 -4 -2.66602 -8.66699 -3.99902 -14c0 -12.667 4.16699 -23.167 12.5 -31.5
s23.833 -12.5 46.5 -12.5v-27h-206v27c18.667 5.33301 36.334 14.333 53.001 27c23.333 17.333 45.333 41.333 66 72l167 245l-146 236c-12.667 19.333 -29 35.166 -49 47.499s-39.333 18.5 -58 18.5v27z" />
    <glyph glyph-name="Odieresis" unicode="&#xd6;" horiz-adv-x="766" 
d="M45 700l230.003 0.000976562v-27c-28.667 0 -48.334 -8 -59.001 -24s-16 -39.667 -16 -71v-462c0 -30 6.5 -49.833 19.5 -59.5s36.833 -14.5 71.5 -14.5h179c35.333 0 59.333 5 72 15s19 29.667 19 59v462c0 31.333 -4.66699 54 -14 68c-12 18 -32.333 27 -61 27v27h234
v-27c-24.667 0 -43.334 -6 -56.001 -18c-15.333 -14.667 -23 -40.334 -23 -77.001v-467c0 -14 1.33301 -24 4 -30c11.333 -26 41.666 -39 90.999 -39h14l23 -189h-25c-11.333 58 -35.333 99 -72 123c-24.667 16 -55.667 24 -93 24h-538v27c32 0 53.333 10.333 64 31
c7.33301 14 11 35.333 11 64v456c0 29.333 -3.33301 50.333 -10 63c-11.333 21.333 -33 32 -65 32v27z" />
    <glyph glyph-name="Odieresis" unicode="&#x426;" horiz-adv-x="766" 
d="M45 700l230.003 0.000976562v-27c-28.667 0 -48.334 -8 -59.001 -24s-16 -39.667 -16 -71v-462c0 -30 6.5 -49.833 19.5 -59.5s36.833 -14.5 71.5 -14.5h179c35.333 0 59.333 5 72 15s19 29.667 19 59v462c0 31.333 -4.66699 54 -14 68c-12 18 -32.333 27 -61 27v27h234
v-27c-24.667 0 -43.334 -6 -56.001 -18c-15.333 -14.667 -23 -40.334 -23 -77.001v-467c0 -14 1.33301 -24 4 -30c11.333 -26 41.666 -39 90.999 -39h14l23 -189h-25c-11.333 58 -35.333 99 -72 123c-24.667 16 -55.667 24 -93 24h-538v27c32 0 53.333 10.333 64 31
c7.33301 14 11 35.333 11 64v456c0 29.333 -3.33301 50.333 -10 63c-11.333 21.333 -33 32 -65 32v27z" />
    <glyph glyph-name="multiply" unicode="&#xd7;" horiz-adv-x="684" 
d="M403 0l0.00292969 27c33.333 0 56 10.333 68 31c8.66699 14.667 13 36 13 64v174l-60 -17c-28.667 -9.33301 -51.834 -15.833 -69.501 -19.5s-42.167 -5.5 -73.5 -5.5c-83.333 0 -138 18 -164 54c-14 19.333 -21 54 -21 104v166c0 29.333 -3.33301 50.333 -10 63
c-11.333 21.333 -33 32 -65 32v27h230v-27c-28.667 0 -48.334 -8 -59.001 -24s-16 -39.667 -16 -71v-155l1 -30c0 -25.333 5 -44 15 -56c18 -22 53 -33 105 -33c25.333 0 54.666 2.83301 87.999 8.5s66.333 14.167 99 25.5v240c0 30 -3.33301 51.333 -10 64
c-10.667 20.667 -32 31 -64 31v27h229v-27c-32 0 -53.667 -11.667 -65 -35c-6.66699 -14 -10 -34 -10 -60v-456c0 -35.333 6 -60 18 -74s31 -21 57 -21v-27h-236z" />
    <glyph glyph-name="multiply" unicode="&#x427;" horiz-adv-x="684" 
d="M403 0l0.00292969 27c33.333 0 56 10.333 68 31c8.66699 14.667 13 36 13 64v174l-60 -17c-28.667 -9.33301 -51.834 -15.833 -69.501 -19.5s-42.167 -5.5 -73.5 -5.5c-83.333 0 -138 18 -164 54c-14 19.333 -21 54 -21 104v166c0 29.333 -3.33301 50.333 -10 63
c-11.333 21.333 -33 32 -65 32v27h230v-27c-28.667 0 -48.334 -8 -59.001 -24s-16 -39.667 -16 -71v-155l1 -30c0 -25.333 5 -44 15 -56c18 -22 53 -33 105 -33c25.333 0 54.666 2.83301 87.999 8.5s66.333 14.167 99 25.5v240c0 30 -3.33301 51.333 -10 64
c-10.667 20.667 -32 31 -64 31v27h229v-27c-32 0 -53.667 -11.667 -65 -35c-6.66699 -14 -10 -34 -10 -60v-456c0 -35.333 6 -60 18 -74s31 -21 57 -21v-27h-236z" />
    <glyph glyph-name="Oslash" unicode="&#xd8;" horiz-adv-x="1028" 
d="M983 673c-32 0 -53.333 -10.333 -64 -31c-7.33301 -14 -11 -35.333 -11 -64v-456c0 -29.333 3.33301 -50.333 10 -63c11.333 -21.333 33 -32 65 -32v-27h-938v27c28.667 0 48.334 8 59.001 24s16 39.667 16 71v456c0 31.333 -4.66699 54 -14 68c-12 18 -32.333 27 -61 27
v27h229v-27c-30.667 0 -51.667 -10.667 -63 -32c-7.33301 -14 -11 -35 -11 -63v-454c0 -24.667 2.66699 -42.667 8 -54c8.66699 -18.667 25 -28 49 -28h160c19.333 0 33.666 6.33301 42.999 19s14 33.667 14 63v454c0 33.333 -5.66699 57.5 -17 72.5s-31.333 22.5 -60 22.5
v27h234v-27c-32 0 -54 -11 -66 -33c-7.33301 -14 -11 -34.667 -11 -62v-454c0 -24.667 2.66699 -42.667 8 -54c8.66699 -18.667 25 -28 49 -28h159c21.333 0 36.333 6.83301 45 20.5s13 34.167 13 61.5v454c0 32.667 -5.5 56.667 -16.5 72s-30.5 23 -58.5 23v27h230v-27z
" />
    <glyph glyph-name="Oslash" unicode="&#x428;" horiz-adv-x="1028" 
d="M983 673c-32 0 -53.333 -10.333 -64 -31c-7.33301 -14 -11 -35.333 -11 -64v-456c0 -29.333 3.33301 -50.333 10 -63c11.333 -21.333 33 -32 65 -32v-27h-938v27c28.667 0 48.334 8 59.001 24s16 39.667 16 71v456c0 31.333 -4.66699 54 -14 68c-12 18 -32.333 27 -61 27
v27h229v-27c-30.667 0 -51.667 -10.667 -63 -32c-7.33301 -14 -11 -35 -11 -63v-454c0 -24.667 2.66699 -42.667 8 -54c8.66699 -18.667 25 -28 49 -28h160c19.333 0 33.666 6.33301 42.999 19s14 33.667 14 63v454c0 33.333 -5.66699 57.5 -17 72.5s-31.333 22.5 -60 22.5
v27h234v-27c-32 0 -54 -11 -66 -33c-7.33301 -14 -11 -34.667 -11 -62v-454c0 -24.667 2.66699 -42.667 8 -54c8.66699 -18.667 25 -28 49 -28h159c21.333 0 36.333 6.83301 45 20.5s13 34.167 13 61.5v454c0 32.667 -5.5 56.667 -16.5 72s-30.5 23 -58.5 23v27h230v-27z
" />
    <glyph glyph-name="Ugrave" unicode="&#xd9;" horiz-adv-x="1042" 
d="M983 673c-28.667 0 -48.335 -8.00195 -59.002 -24.002s-16 -39.667 -16 -71v-467c0 -46 32 -69 96 -69h20l25 -189h-27c-10 50.667 -29.5 87.834 -58.5 111.501s-66.833 35.5 -113.5 35.5h-805v27c32 0 53.333 10.333 64 31c7.33301 14 11 35.333 11 64v456
c0 29.333 -3.33301 50.333 -10 63c-11.333 21.333 -33 32 -65 32v27h230v-27c-31.333 0 -52.666 -10.667 -63.999 -32c-7.33301 -14 -11 -35 -11 -63v-454c0 -24.667 2.66699 -42.667 8 -54c8.66699 -18.667 25.334 -28 50.001 -28h159c24 0 40.333 9.33301 49 28
c5.33301 11.333 8 29.333 8 54v454c0 28.667 -3.33301 49.334 -10 62.001c-11.333 22 -33.333 33 -66 33v27h234v-27c-28.667 0 -48.834 -7.83301 -60.501 -23.5s-17.5 -39.5 -17.5 -71.5v-454c0 -24.667 2.66699 -42.667 8 -54c8.66699 -18.667 25 -28 49 -28h160
c24 0 40.333 9.33301 49 28c5.33301 12 8 30 8 54v454c0 29.333 -3.33301 50.333 -10 63c-11.333 21.333 -32.666 32 -63.999 32v27h229v-27z" />
    <glyph glyph-name="Ugrave" unicode="&#x429;" horiz-adv-x="1042" 
d="M983 673c-28.667 0 -48.335 -8.00195 -59.002 -24.002s-16 -39.667 -16 -71v-467c0 -46 32 -69 96 -69h20l25 -189h-27c-10 50.667 -29.5 87.834 -58.5 111.501s-66.833 35.5 -113.5 35.5h-805v27c32 0 53.333 10.333 64 31c7.33301 14 11 35.333 11 64v456
c0 29.333 -3.33301 50.333 -10 63c-11.333 21.333 -33 32 -65 32v27h230v-27c-31.333 0 -52.666 -10.667 -63.999 -32c-7.33301 -14 -11 -35 -11 -63v-454c0 -24.667 2.66699 -42.667 8 -54c8.66699 -18.667 25.334 -28 50.001 -28h159c24 0 40.333 9.33301 49 28
c5.33301 11.333 8 29.333 8 54v454c0 28.667 -3.33301 49.334 -10 62.001c-11.333 22 -33.333 33 -66 33v27h234v-27c-28.667 0 -48.834 -7.83301 -60.501 -23.5s-17.5 -39.5 -17.5 -71.5v-454c0 -24.667 2.66699 -42.667 8 -54c8.66699 -18.667 25 -28 49 -28h160
c24 0 40.333 9.33301 49 28c5.33301 12 8 30 8 54v454c0 29.333 -3.33301 50.333 -10 63c-11.333 21.333 -32.666 32 -63.999 32v27h229v-27z" />
    <glyph glyph-name="Uacute" unicode="&#xda;" horiz-adv-x="779" 
d="M351 577v-161.003c43.333 6 82 9 116 9c93.333 0 164.5 -20.667 213.5 -62s73.5 -98.666 73.5 -171.999c0 -61.333 -22.667 -109.666 -68 -144.999c-39.333 -30.667 -86 -46 -140 -46h-351v27c32 0 53.667 10.667 65 32c7.33301 14 11 35.333 11 64v451
c0 34.667 -6.33301 58 -19 70c-10 9.33301 -28.333 14 -55 14h-23c-31.333 0 -57 -8 -77 -24c-14.667 -11.333 -32.667 -34.666 -54 -69.999h-26l35 136h375v-27c-32 0 -53.667 -11 -65 -33c-7.33301 -14 -11 -35 -11 -63zM351 373.997v-266.998
c0 -29.333 7.33301 -48 22 -56c10.667 -6 33.667 -9 69 -9h33c69.333 0 120.333 20 153 60c22.667 27.333 34 57.666 34 90.999c0 53.333 -11 94.666 -33 123.999c-33.333 44 -91.333 66 -174 66c-23.333 0 -40.5 -0.5 -51.5 -1.5s-28.5 -3.5 -52.5 -7.5z" />
    <glyph glyph-name="Uacute" unicode="&#x42a;" horiz-adv-x="779" 
d="M351 577v-161.003c43.333 6 82 9 116 9c93.333 0 164.5 -20.667 213.5 -62s73.5 -98.666 73.5 -171.999c0 -61.333 -22.667 -109.666 -68 -144.999c-39.333 -30.667 -86 -46 -140 -46h-351v27c32 0 53.667 10.667 65 32c7.33301 14 11 35.333 11 64v451
c0 34.667 -6.33301 58 -19 70c-10 9.33301 -28.333 14 -55 14h-23c-31.333 0 -57 -8 -77 -24c-14.667 -11.333 -32.667 -34.666 -54 -69.999h-26l35 136h375v-27c-32 0 -53.667 -11 -65 -33c-7.33301 -14 -11 -35 -11 -63zM351 373.997v-266.998
c0 -29.333 7.33301 -48 22 -56c10.667 -6 33.667 -9 69 -9h33c69.333 0 120.333 20 153 60c22.667 27.333 34 57.666 34 90.999c0 53.333 -11 94.666 -33 123.999c-33.333 44 -91.333 66 -174 66c-23.333 0 -40.5 -0.5 -51.5 -1.5s-28.5 -3.5 -52.5 -7.5z" />
    <glyph glyph-name="Ucircumflex" unicode="&#xdb;" horiz-adv-x="921" 
d="M201 577v-161.002c44 6 83 9 117 9c93.333 0 164.5 -20.667 213.5 -62s73.5 -98.666 73.5 -171.999c0 -61.333 -22.667 -109.666 -68 -144.999c-39.333 -30.667 -86 -46 -140 -46h-352v27c27.333 0 46.833 7.83301 58.5 23.5s17.5 39.834 17.5 72.501v454
c0 33.333 -5.66699 57.666 -17 72.999s-31 23 -59 23v27h232v-27c-50.667 0 -76 -32 -76 -96zM201 373.998l-0.000976562 -266.999c0 -28.667 7.66699 -47.334 23 -56.001c10.667 -6 33.667 -9 69 -9h32c58.667 0 103.334 11.333 134.001 34c35.333 26 53 65 53 117
s-11 93 -33 123c-33.333 44.667 -91.333 67 -174 67c-30 0 -64.667 -3 -104 -9zM648.999 699.999h230v-27c-32 0 -53.333 -10.333 -64 -31c-7.33301 -14 -11 -35.333 -11 -64v-456c0 -29.333 3.33301 -50.333 10 -63c11.333 -21.333 33 -32 65 -32v-27h-230v27
c32 0 53.667 11.667 65 35c6.66699 14 10 34 10 60v456c0 35.333 -6 60 -18 74s-31 21 -57 21v27z" />
    <glyph glyph-name="Ucircumflex" unicode="&#x42b;" horiz-adv-x="921" 
d="M201 577v-161.002c44 6 83 9 117 9c93.333 0 164.5 -20.667 213.5 -62s73.5 -98.666 73.5 -171.999c0 -61.333 -22.667 -109.666 -68 -144.999c-39.333 -30.667 -86 -46 -140 -46h-352v27c27.333 0 46.833 7.83301 58.5 23.5s17.5 39.834 17.5 72.501v454
c0 33.333 -5.66699 57.666 -17 72.999s-31 23 -59 23v27h232v-27c-50.667 0 -76 -32 -76 -96zM201 373.998l-0.000976562 -266.999c0 -28.667 7.66699 -47.334 23 -56.001c10.667 -6 33.667 -9 69 -9h32c58.667 0 103.334 11.333 134.001 34c35.333 26 53 65 53 117
s-11 93 -33 123c-33.333 44.667 -91.333 67 -174 67c-30 0 -64.667 -3 -104 -9zM648.999 699.999h230v-27c-32 0 -53.333 -10.333 -64 -31c-7.33301 -14 -11 -35.333 -11 -64v-456c0 -29.333 3.33301 -50.333 10 -63c11.333 -21.333 33 -32 65 -32v-27h-230v27
c32 0 53.667 11.667 65 35c6.66699 14 10 34 10 60v456c0 35.333 -6 60 -18 74s-31 21 -57 21v27z" />
    <glyph glyph-name="Udieresis" unicode="&#xdc;" horiz-adv-x="630" 
d="M201 577v-161.002c44 6 83 9 117 9c93.333 0 164.5 -20.667 213.5 -62s73.5 -98.666 73.5 -171.999c0 -61.333 -22.667 -109.666 -68 -144.999c-39.333 -30.667 -86 -46 -140 -46h-352v27c27.333 0 46.833 7.83301 58.5 23.5s17.5 39.834 17.5 72.501v454
c0 33.333 -5.66699 57.666 -17 72.999s-31 23 -59 23v27h232v-27c-50.667 0 -76 -32 -76 -96zM201 373.998l-0.000976562 -266.999c0 -28.667 7.66699 -47.334 23 -56.001c10.667 -6 33.667 -9 69 -9h32c58.667 0 103.334 11.333 134.001 34c35.333 26 53 65 53 117
s-11 93 -33 123c-33.333 44.667 -91.333 67 -174 67c-30 0 -64.667 -3 -104 -9z" />
    <glyph glyph-name="Udieresis" unicode="&#x42c;" horiz-adv-x="630" 
d="M201 577v-161.002c44 6 83 9 117 9c93.333 0 164.5 -20.667 213.5 -62s73.5 -98.666 73.5 -171.999c0 -61.333 -22.667 -109.666 -68 -144.999c-39.333 -30.667 -86 -46 -140 -46h-352v27c27.333 0 46.833 7.83301 58.5 23.5s17.5 39.834 17.5 72.501v454
c0 33.333 -5.66699 57.666 -17 72.999s-31 23 -59 23v27h232v-27c-50.667 0 -76 -32 -76 -96zM201 373.998l-0.000976562 -266.999c0 -28.667 7.66699 -47.334 23 -56.001c10.667 -6 33.667 -9 69 -9h32c58.667 0 103.334 11.333 134.001 34c35.333 26 53 65 53 117
s-11 93 -33 123c-33.333 44.667 -91.333 67 -174 67c-30 0 -64.667 -3 -104 -9z" />
    <glyph glyph-name="Yacute" unicode="&#xdd;" horiz-adv-x="659" 
d="M62 521l6.00293 134.003c34 18.667 67.667 33.167 101 43.5s65.666 15.5 96.999 15.5c95.333 0 176.5 -34.5 243.5 -103.5s100.5 -151.833 100.5 -248.5c0 -99.333 -32.667 -185.333 -98 -258c-70.667 -78.667 -160.334 -118 -269.001 -118c-48 0 -113 12.333 -195 37
l-6 150h25c10.667 -42 37 -76.667 79 -104s85.333 -41 130 -41c65.333 0 121.666 26.333 168.999 79c50.667 56.667 76 128.667 76 216c0 28.667 -1 50.667 -3 66c-32 -32.667 -61.333 -55.667 -88 -69c-21.333 -10.667 -43 -16 -65 -16c-14.667 0 -26.5 1.33301 -35.5 4
s-21.167 7.83398 -36.5 15.501s-30.833 13.834 -46.5 18.501s-31.5 7 -47.5 7c-10 0 -20.667 -4 -32 -12c-3.33301 -2.66699 -11 -9.33398 -23 -20.001l-5 34c15.333 17.333 33 32.666 53 45.999c24.667 16 46.667 24 66 24c14.667 0 32.334 -4.16699 53.001 -12.5l61 -24.5
c7.33301 -2.66699 14.333 -4.83398 21 -6.50098s15 -2.5 25 -2.5c19.333 0 37.333 5.5 54 16.5s27 22.833 31 35.5c1.33301 5.33301 2 9.66602 2 12.999s-0.666992 8.33301 -2 15c-10.667 68.667 -38.334 122.667 -83.001 162c-41.333 36.667 -89.333 55 -144 55
c-48 0 -89.333 -16.667 -124 -50c-28 -26.667 -49.333 -60.334 -64 -101.001h-26z" />
    <glyph glyph-name="Yacute" unicode="&#x42d;" horiz-adv-x="659" 
d="M62 521l6.00293 134.003c34 18.667 67.667 33.167 101 43.5s65.666 15.5 96.999 15.5c95.333 0 176.5 -34.5 243.5 -103.5s100.5 -151.833 100.5 -248.5c0 -99.333 -32.667 -185.333 -98 -258c-70.667 -78.667 -160.334 -118 -269.001 -118c-48 0 -113 12.333 -195 37
l-6 150h25c10.667 -42 37 -76.667 79 -104s85.333 -41 130 -41c65.333 0 121.666 26.333 168.999 79c50.667 56.667 76 128.667 76 216c0 28.667 -1 50.667 -3 66c-32 -32.667 -61.333 -55.667 -88 -69c-21.333 -10.667 -43 -16 -65 -16c-14.667 0 -26.5 1.33301 -35.5 4
s-21.167 7.83398 -36.5 15.501s-30.833 13.834 -46.5 18.501s-31.5 7 -47.5 7c-10 0 -20.667 -4 -32 -12c-3.33301 -2.66699 -11 -9.33398 -23 -20.001l-5 34c15.333 17.333 33 32.666 53 45.999c24.667 16 46.667 24 66 24c14.667 0 32.334 -4.16699 53.001 -12.5l61 -24.5
c7.33301 -2.66699 14.333 -4.83398 21 -6.50098s15 -2.5 25 -2.5c19.333 0 37.333 5.5 54 16.5s27 22.833 31 35.5c1.33301 5.33301 2 9.66602 2 12.999s-0.666992 8.33301 -2 15c-10.667 68.667 -38.334 122.667 -83.001 162c-41.333 36.667 -89.333 55 -144 55
c-48 0 -89.333 -16.667 -124 -50c-28 -26.667 -49.333 -60.334 -64 -101.001h-26z" />
    <glyph glyph-name="Thorn" unicode="&#xde;" horiz-adv-x="1038" 
d="M273 700l0.000976562 -26.999c-26 0 -44.833 -7.83301 -56.5 -23.5s-17.5 -39.5 -17.5 -71.5v-179h135c11.333 108 55.333 190.667 132 248c60 44.667 124.333 67 193 67c45.333 0 91 -10.667 137 -32c56 -26 100.333 -62.667 133 -110c40 -58 60 -128.333 60 -211
c0 -122.667 -37.667 -218.667 -113 -288c-62.667 -58 -135 -87 -217 -87c-80.667 0 -152.334 28.667 -215.001 86c-75.333 69.333 -113 164.333 -113 285h-132v-235c0 -32.667 5.5 -56.667 16.5 -72s30.167 -23 57.5 -23v-27h-228v27c31.333 0 52.333 10 63 30
c7.33301 13.333 11 35 11 65v456c0 29.333 -3.66699 50.666 -11 63.999c-11.333 20.667 -32.333 31 -63 31v27h228zM660.001 672.001c-58.667 0 -109.668 -22 -153.001 -66c-56 -56.667 -84 -139 -84 -247c0 -86.667 16.667 -159.667 50 -219
c42 -74.667 104.333 -112 187 -112c82 0 144 37 186 111c34 60 51 133.333 51 220c0 108.667 -27.667 191 -83 247c-43.333 44 -94.666 66 -153.999 66z" />
    <glyph glyph-name="Thorn" unicode="&#x42e;" horiz-adv-x="1038" 
d="M273 700l0.000976562 -26.999c-26 0 -44.833 -7.83301 -56.5 -23.5s-17.5 -39.5 -17.5 -71.5v-179h135c11.333 108 55.333 190.667 132 248c60 44.667 124.333 67 193 67c45.333 0 91 -10.667 137 -32c56 -26 100.333 -62.667 133 -110c40 -58 60 -128.333 60 -211
c0 -122.667 -37.667 -218.667 -113 -288c-62.667 -58 -135 -87 -217 -87c-80.667 0 -152.334 28.667 -215.001 86c-75.333 69.333 -113 164.333 -113 285h-132v-235c0 -32.667 5.5 -56.667 16.5 -72s30.167 -23 57.5 -23v-27h-228v27c31.333 0 52.333 10 63 30
c7.33301 13.333 11 35 11 65v456c0 29.333 -3.66699 50.666 -11 63.999c-11.333 20.667 -32.333 31 -63 31v27h228zM660.001 672.001c-58.667 0 -109.668 -22 -153.001 -66c-56 -56.667 -84 -139 -84 -247c0 -86.667 16.667 -159.667 50 -219
c42 -74.667 104.333 -112 187 -112c82 0 144 37 186 111c34 60 51 133.333 51 220c0 108.667 -27.667 191 -83 247c-43.333 44 -94.666 66 -153.999 66z" />
    <glyph glyph-name="germandbls" unicode="&#xdf;" horiz-adv-x="642" 
d="M597 700l0.00195312 -27.001c-28 -5.33301 -47.5 -15.5 -58.5 -30.5s-16.5 -36.833 -16.5 -65.5v-455c0 -31.333 4 -53.666 12 -66.999c11.333 -18.667 32.333 -28 63 -28v-27h-230v27c32 0 53.333 10.333 64 31c7.33301 14 11 35.333 11 64v177
c-24.667 -4.66699 -50.667 -7 -78 -7c-8.66699 0 -16.834 -0.166992 -24.501 -0.5s-14.5 -0.5 -20.5 -0.5s-10.667 0.333008 -14 1l-115 -195l-17 -27c-6 -9.33301 -9 -17 -9 -23c0 -7.33301 4.33301 -12.5 13 -15.5s19.667 -4.5 33 -4.5h13v-27h-223v27
c21.333 0 40.333 6 57 18c9.33301 6.66699 18 15.667 26 27l20 30l120 206c-42 10 -76.667 28.333 -104 55c-36 35.333 -54 80 -54 134c0 50.667 14 93 42 127c41.333 50.667 108.666 76 201.999 76h288zM442.002 337.999v251c0 30 -7 49.667 -21 59
c-10 6.66699 -30.667 10 -62 10h-26c-56 0 -99.333 -14 -130 -42s-46 -66.333 -46 -115c0 -59.333 22.667 -103.333 68 -132c38 -24 88 -36 150 -36c8 0 15.667 0.166992 23 0.5s22 1.83301 44 4.5z" />
    <glyph glyph-name="germandbls" unicode="&#x42f;" horiz-adv-x="642" 
d="M597 700l0.00195312 -27.001c-28 -5.33301 -47.5 -15.5 -58.5 -30.5s-16.5 -36.833 -16.5 -65.5v-455c0 -31.333 4 -53.666 12 -66.999c11.333 -18.667 32.333 -28 63 -28v-27h-230v27c32 0 53.333 10.333 64 31c7.33301 14 11 35.333 11 64v177
c-24.667 -4.66699 -50.667 -7 -78 -7c-8.66699 0 -16.834 -0.166992 -24.501 -0.5s-14.5 -0.5 -20.5 -0.5s-10.667 0.333008 -14 1l-115 -195l-17 -27c-6 -9.33301 -9 -17 -9 -23c0 -7.33301 4.33301 -12.5 13 -15.5s19.667 -4.5 33 -4.5h13v-27h-223v27
c21.333 0 40.333 6 57 18c9.33301 6.66699 18 15.667 26 27l20 30l120 206c-42 10 -76.667 28.333 -104 55c-36 35.333 -54 80 -54 134c0 50.667 14 93 42 127c41.333 50.667 108.666 76 201.999 76h288zM442.002 337.999v251c0 30 -7 49.667 -21 59
c-10 6.66699 -30.667 10 -62 10h-26c-56 0 -99.333 -14 -130 -42s-46 -66.333 -46 -115c0 -59.333 22.667 -103.333 68 -132c38 -24 88 -36 150 -36c8 0 15.667 0.166992 23 0.5s22 1.83301 44 4.5z" />
    <glyph glyph-name="agrave" unicode="&#xe0;" horiz-adv-x="480" 
d="M385 355v-273.003c0 -20.667 3.5 -36 10.5 -46s19.5 -15 37.5 -15h8v-21h-116v47h-4c-44 -25.333 -76.5 -41.333 -97.5 -48s-42.5 -10 -64.5 -10c-40 0 -69.667 13 -89 39c-14 19.333 -21 42.333 -21 69c0 48.667 35 91.334 105 128.001c26 13.333 62.667 29.333 110 48
l61 25v13c0 42 -3.33301 71 -10 87c-11.333 26 -34 39 -68 39c-40 0 -67 -14 -81 -42c-3.33301 -6.66699 -6.5 -17.167 -9.5 -31.5s-7.5 -25.166 -13.5 -32.499s-15.667 -11 -29 -11c-8.66699 0 -16 2.66699 -22 8c-8.66699 7.33301 -13 18 -13 32c0 30 17 56.333 51 79
s75 34 123 34c34 0 61.333 -6 82 -18c33.333 -19.333 50 -52.666 50 -99.999zM325 91.9971l-0.000976562 164c-82.667 -34 -137.167 -62.833 -163.5 -86.5s-39.5 -48.167 -39.5 -73.5c0 -16 5.83301 -29.833 17.5 -41.5s28.834 -17.5 51.501 -17.5
c20 0 43.667 6.33301 71 19c20.667 9.33301 41.667 21.333 63 36z" />
    <glyph glyph-name="agrave" unicode="&#x430;" horiz-adv-x="480" 
d="M385 355v-273.003c0 -20.667 3.5 -36 10.5 -46s19.5 -15 37.5 -15h8v-21h-116v47h-4c-44 -25.333 -76.5 -41.333 -97.5 -48s-42.5 -10 -64.5 -10c-40 0 -69.667 13 -89 39c-14 19.333 -21 42.333 -21 69c0 48.667 35 91.334 105 128.001c26 13.333 62.667 29.333 110 48
l61 25v13c0 42 -3.33301 71 -10 87c-11.333 26 -34 39 -68 39c-40 0 -67 -14 -81 -42c-3.33301 -6.66699 -6.5 -17.167 -9.5 -31.5s-7.5 -25.166 -13.5 -32.499s-15.667 -11 -29 -11c-8.66699 0 -16 2.66699 -22 8c-8.66699 7.33301 -13 18 -13 32c0 30 17 56.333 51 79
s75 34 123 34c34 0 61.333 -6 82 -18c33.333 -19.333 50 -52.666 50 -99.999zM325 91.9971l-0.000976562 164c-82.667 -34 -137.167 -62.833 -163.5 -86.5s-39.5 -48.167 -39.5 -73.5c0 -16 5.83301 -29.833 17.5 -41.5s28.834 -17.5 51.501 -17.5
c20 0 43.667 6.33301 71 19c20.667 9.33301 41.667 21.333 63 36z" />
    <glyph glyph-name="aacute" unicode="&#xe1;" horiz-adv-x="523" 
d="M431 694l20.9961 -0.00195312c-8.66699 -36.667 -28.167 -67 -58.5 -91s-73.666 -40.5 -129.999 -49.5s-98.833 -28.833 -127.5 -59.5s-43 -71 -43 -121h4c16.667 30 40 54.167 70 72.5s64.333 27.5 103 27.5c64.667 0 116.334 -28 155.001 -84
c32.667 -47.333 49 -101.333 49 -162c0 -57.333 -17.333 -109.666 -52 -156.999c-39.333 -54 -89.666 -81 -150.999 -81c-53.333 0 -98.333 16.333 -135 49c-53.333 47.333 -80 124.333 -80 231c0 101.333 17.667 182 53 242c28 46.667 65.333 80.667 112 102
c24.667 11.333 54.834 19.333 90.501 24s61.5 10.334 77.5 17.001c20 8.66699 34 22 42 40zM128.996 237.998c0 -52.667 9.00098 -97.667 27.001 -135c25.333 -52 63.666 -78 114.999 -78c46.667 0 81.667 25 105 75c16.667 36 25 77.667 25 125
c0 65.333 -13.167 117 -39.5 155s-58.833 57 -97.5 57c-32.667 0 -60.667 -12 -84 -36c-34 -34.667 -51 -89 -51 -163z" />
    <glyph glyph-name="aacute" unicode="&#x431;" horiz-adv-x="523" 
d="M431 694l20.9961 -0.00195312c-8.66699 -36.667 -28.167 -67 -58.5 -91s-73.666 -40.5 -129.999 -49.5s-98.833 -28.833 -127.5 -59.5s-43 -71 -43 -121h4c16.667 30 40 54.167 70 72.5s64.333 27.5 103 27.5c64.667 0 116.334 -28 155.001 -84
c32.667 -47.333 49 -101.333 49 -162c0 -57.333 -17.333 -109.666 -52 -156.999c-39.333 -54 -89.666 -81 -150.999 -81c-53.333 0 -98.333 16.333 -135 49c-53.333 47.333 -80 124.333 -80 231c0 101.333 17.667 182 53 242c28 46.667 65.333 80.667 112 102
c24.667 11.333 54.834 19.333 90.501 24s61.5 10.334 77.5 17.001c20 8.66699 34 22 42 40zM128.996 237.998c0 -52.667 9.00098 -97.667 27.001 -135c25.333 -52 63.666 -78 114.999 -78c46.667 0 81.667 25 105 75c16.667 36 25 77.667 25 125
c0 65.333 -13.167 117 -39.5 155s-58.833 57 -97.5 57c-32.667 0 -60.667 -12 -84 -36c-34 -34.667 -51 -89 -51 -163z" />
    <glyph glyph-name="acircumflex" unicode="&#xe2;" horiz-adv-x="492" 
d="M45 462l220.001 -0.00195312c53.333 0 92.666 -11.667 117.999 -35c20 -18.667 30 -43 30 -73c0 -24.667 -5.66699 -45 -17 -61c-16 -22.667 -42 -37.667 -78 -45v-4c30 0 56.667 -8 80 -24c30 -20.667 45 -50 45 -88c0 -38.667 -12.667 -69.667 -38 -93
c-28.667 -26 -70 -39 -124 -39h-236v21h9c14 0 25.333 4.33301 34 13s13 20.334 13 35.001v324c0 14.667 -4.33301 26.334 -13 35.001s-20 13 -34 13h-9v21zM161.001 258.998l76 0.000976562c30 0 53.333 4.33301 70 13c28.667 14.667 43 41 43 79
c0 28 -8.5 47.5 -25.5 58.5s-40.833 16.5 -71.5 16.5h-44c-20 0 -33 -3.33301 -39 -10s-9 -21.334 -9 -44.001v-113zM161.001 222.999v-136.999c0 -20.667 6 -34.667 18 -42c8.66699 -5.33301 21.667 -8 39 -8h30c39.333 0 68.333 6 87 18c23.333 14.667 35 40.667 35 78
c0 23.333 -7 42.666 -21 57.999c-20.667 22 -53.667 33 -99 33h-89z" />
    <glyph glyph-name="acircumflex" unicode="&#x432;" horiz-adv-x="492" 
d="M45 462l220.001 -0.00195312c53.333 0 92.666 -11.667 117.999 -35c20 -18.667 30 -43 30 -73c0 -24.667 -5.66699 -45 -17 -61c-16 -22.667 -42 -37.667 -78 -45v-4c30 0 56.667 -8 80 -24c30 -20.667 45 -50 45 -88c0 -38.667 -12.667 -69.667 -38 -93
c-28.667 -26 -70 -39 -124 -39h-236v21h9c14 0 25.333 4.33301 34 13s13 20.334 13 35.001v324c0 14.667 -4.33301 26.334 -13 35.001s-20 13 -34 13h-9v21zM161.001 258.998l76 0.000976562c30 0 53.333 4.33301 70 13c28.667 14.667 43 41 43 79
c0 28 -8.5 47.5 -25.5 58.5s-40.833 16.5 -71.5 16.5h-44c-20 0 -33 -3.33301 -39 -10s-9 -21.334 -9 -44.001v-113zM161.001 222.999v-136.999c0 -20.667 6 -34.667 18 -42c8.66699 -5.33301 21.667 -8 39 -8h30c39.333 0 68.333 6 87 18c23.333 14.667 35 40.667 35 78
c0 23.333 -7 42.666 -21 57.999c-20.667 22 -53.667 33 -99 33h-89z" />
    <glyph glyph-name="atilde" unicode="&#xe3;" horiz-adv-x="401" 
d="M101 69v323.998c0 14.667 -4.33301 26.334 -13 35.001s-20 13 -34 13h-9v21h315l28 -124h-21c-17.333 32.667 -38.333 55.5 -63 68.5s-51.667 19.5 -81 19.5c-24.667 0 -41.167 -4.16699 -49.5 -12.5s-12.5 -25.5 -12.5 -51.5v-280c0 -20 3.5 -35.167 10.5 -45.5
s19.167 -15.5 36.5 -15.5h9v-21h-172v21h9c14 0 25.333 4.33301 34 13s13 20.334 13 35.001z" />
    <glyph glyph-name="atilde" unicode="&#x433;" horiz-adv-x="401" 
d="M101 69v323.998c0 14.667 -4.33301 26.334 -13 35.001s-20 13 -34 13h-9v21h315l28 -124h-21c-17.333 32.667 -38.333 55.5 -63 68.5s-51.667 19.5 -81 19.5c-24.667 0 -41.167 -4.16699 -49.5 -12.5s-12.5 -25.5 -12.5 -51.5v-280c0 -20 3.5 -35.167 10.5 -45.5
s19.167 -15.5 36.5 -15.5h9v-21h-172v21h9c14 0 25.333 4.33301 34 13s13 20.334 13 35.001z" />
    <glyph glyph-name="adieresis" unicode="&#xe4;" horiz-adv-x="486" 
d="M461 16l25.001 -131.999h-21c-9.33301 35.333 -26.833 63.5 -52.5 84.5s-57.5 31.5 -95.5 31.5h-147c-35.333 0 -64.333 -6.66699 -87 -20c-32 -18.667 -52.667 -50.667 -62 -96h-21l20 132c22.667 0 39.167 4.5 49.5 13.5s20.166 26.5 29.499 52.5
c14 38.667 26.5 84.167 37.5 136.5s16.5 95.166 16.5 128.499v30c0 16.667 -2.66699 30 -8 40c-8.66699 16 -23.667 24 -45 24v21h337v-21h-10c-14 0 -25.333 -4.33301 -34 -13s-13 -20.334 -13 -35.001v-318c0 -15.333 4 -27.666 12 -36.999
c12.667 -14.667 35.667 -22 69 -22zM320.001 91.001l0.000976562 279.001c0 24.667 -5 41 -15 49c-6 4.66699 -17 7 -33 7h-27c-20 0 -32.667 -3 -38 -9c-7.33301 -8.66699 -13.333 -35 -18 -79s-12.334 -92 -23.001 -144c-13.333 -64.667 -28 -117.334 -44 -158.001h145
c20.667 0 34.667 4 42 12s11 22.333 11 43z" />
    <glyph glyph-name="adieresis" unicode="&#x434;" horiz-adv-x="486" 
d="M461 16l25.001 -131.999h-21c-9.33301 35.333 -26.833 63.5 -52.5 84.5s-57.5 31.5 -95.5 31.5h-147c-35.333 0 -64.333 -6.66699 -87 -20c-32 -18.667 -52.667 -50.667 -62 -96h-21l20 132c22.667 0 39.167 4.5 49.5 13.5s20.166 26.5 29.499 52.5
c14 38.667 26.5 84.167 37.5 136.5s16.5 95.166 16.5 128.499v30c0 16.667 -2.66699 30 -8 40c-8.66699 16 -23.667 24 -45 24v21h337v-21h-10c-14 0 -25.333 -4.33301 -34 -13s-13 -20.334 -13 -35.001v-318c0 -15.333 4 -27.666 12 -36.999
c12.667 -14.667 35.667 -22 69 -22zM320.001 91.001l0.000976562 279.001c0 24.667 -5 41 -15 49c-6 4.66699 -17 7 -33 7h-27c-20 0 -32.667 -3 -38 -9c-7.33301 -8.66699 -13.333 -35 -18 -79s-12.334 -92 -23.001 -144c-13.333 -64.667 -28 -117.334 -44 -158.001h145
c20.667 0 34.667 4 42 12s11 22.333 11 43z" />
    <glyph glyph-name="aring" unicode="&#xe5;" horiz-adv-x="476" 
d="M412 98l15 -21c-34 -32.667 -65.667 -56 -95 -70c-25.333 -12 -52 -18 -80 -18c-58.667 0 -107.167 24 -145.5 72s-57.5 104.667 -57.5 170c0 72 18.667 130.333 56 175s82.333 67 135 67c52 0 94.667 -22.5 128 -67.5s50 -99.5 50 -163.5h-297
c0 -52 10.667 -96.333 32 -133c27.333 -47.333 68 -71 122 -71c26.667 0 51.667 5.66699 75 17c17.333 8.66699 38 23 62 43zM121 278l225 -0.000976562c0 48.667 -11 87.334 -33 116.001s-49 43 -81 43c-30.667 0 -55.667 -11.333 -75 -34c-24 -28 -36 -69.667 -36 -125z
" />
    <glyph glyph-name="aring" unicode="&#x435;" horiz-adv-x="476" 
d="M412 98l15 -21c-34 -32.667 -65.667 -56 -95 -70c-25.333 -12 -52 -18 -80 -18c-58.667 0 -107.167 24 -145.5 72s-57.5 104.667 -57.5 170c0 72 18.667 130.333 56 175s82.333 67 135 67c52 0 94.667 -22.5 128 -67.5s50 -99.5 50 -163.5h-297
c0 -52 10.667 -96.333 32 -133c27.333 -47.333 68 -71 122 -71c26.667 0 51.667 5.66699 75 17c17.333 8.66699 38 23 62 43zM121 278l225 -0.000976562c0 48.667 -11 87.334 -33 116.001s-49 43 -81 43c-30.667 0 -55.667 -11.333 -75 -34c-24 -28 -36 -69.667 -36 -125z
" />
    <glyph glyph-name="ae" unicode="&#xe6;" horiz-adv-x="769" 
d="M295 462l179.997 0.00195312v-21h-10c-15.333 0 -27.5 -4.5 -36.5 -13.5s-13.5 -20.5 -13.5 -34.5v-177l181 187c8.66699 8.66699 13 15.667 13 21c0 4.66699 -3.16699 8.66699 -9.5 12s-14.166 5 -23.499 5v21h146v-21c-18 -2.66699 -33 -7.66699 -45 -15
c-8 -4.66699 -17.667 -12.667 -29 -24l-108 -110l130 -212c10 -16 18 -27.667 24 -35c14 -16 31 -24 51 -24v-21h-169v21h7c9.33301 0 16.333 1 21 3c8 4 12 11 12 21c0 4.66699 -1.16699 9.16699 -3.5 13.5s-5.16602 8.83301 -8.49902 13.5l-109 175l-80 -84v-94
c0 -14.667 4.33301 -26.334 13 -35.001s21 -13 37 -13h10v-21h-180v21h10c12 0 22.333 3 31 9c12.667 8.66699 19 21.667 19 39v94l-81 84l-109 -175l-8.5 -14c-2.33301 -4 -3.5 -8.33301 -3.5 -13c0 -10.667 3 -17.334 9 -20.001s14 -4 24 -4h7v-21h-169v21
c16.667 0 30.167 4.5 40.5 13.5s21.833 24.167 34.5 45.5l130 212l-108 110c-12 12 -21.333 20 -28 24c-11.333 7.33301 -26.666 12.333 -45.999 15v21h146v-21c-22 0 -33 -5.66699 -33 -17c0 -4 1.33301 -7.83301 4 -11.5s5.66699 -6.83398 9 -9.50098l182 -187v177
c0 16.667 -5.5 28.834 -16.5 36.501s-22.167 11.5 -33.5 11.5h-10v21z" />
    <glyph glyph-name="ae" unicode="&#x436;" horiz-adv-x="769" 
d="M295 462l179.997 0.00195312v-21h-10c-15.333 0 -27.5 -4.5 -36.5 -13.5s-13.5 -20.5 -13.5 -34.5v-177l181 187c8.66699 8.66699 13 15.667 13 21c0 4.66699 -3.16699 8.66699 -9.5 12s-14.166 5 -23.499 5v21h146v-21c-18 -2.66699 -33 -7.66699 -45 -15
c-8 -4.66699 -17.667 -12.667 -29 -24l-108 -110l130 -212c10 -16 18 -27.667 24 -35c14 -16 31 -24 51 -24v-21h-169v21h7c9.33301 0 16.333 1 21 3c8 4 12 11 12 21c0 4.66699 -1.16699 9.16699 -3.5 13.5s-5.16602 8.83301 -8.49902 13.5l-109 175l-80 -84v-94
c0 -14.667 4.33301 -26.334 13 -35.001s21 -13 37 -13h10v-21h-180v21h10c12 0 22.333 3 31 9c12.667 8.66699 19 21.667 19 39v94l-81 84l-109 -175l-8.5 -14c-2.33301 -4 -3.5 -8.33301 -3.5 -13c0 -10.667 3 -17.334 9 -20.001s14 -4 24 -4h7v-21h-169v21
c16.667 0 30.167 4.5 40.5 13.5s21.833 24.167 34.5 45.5l130 212l-108 110c-12 12 -21.333 20 -28 24c-11.333 7.33301 -26.666 12.333 -45.999 15v21h146v-21c-22 0 -33 -5.66699 -33 -17c0 -4 1.33301 -7.83301 4 -11.5s5.66699 -6.83398 9 -9.50098l182 -187v177
c0 16.667 -5.5 28.834 -16.5 36.501s-22.167 11.5 -33.5 11.5h-10v21z" />
    <glyph glyph-name="ccedilla" unicode="&#xe7;" horiz-adv-x="441" 
d="M74 339l11.9971 100.003c21.333 11.333 43 19.833 65 25.5s43 8.5 63 8.5c44.667 0 82 -10.5 112 -31.5s45 -45.167 45 -72.5c0 -28.667 -7 -53.334 -21 -74.001c-18.667 -27.333 -47.667 -43.333 -87 -48v-6c34.667 0 64.834 -10.833 90.501 -32.5
s38.5 -48.167 38.5 -79.5c0 -34.667 -12.667 -64.667 -38 -90c-34 -33.333 -84 -50 -150 -50c-21.333 0 -41.666 2.33301 -60.999 7c-28.667 6.66699 -60 19 -94 37v100h20c4 -28.667 21.333 -54.334 52 -77.001c28 -20.667 56.333 -31 85 -31c33.333 0 60.5 10.5 81.5 31.5
s31.5 46.833 31.5 77.5c0 27.333 -10.333 48.666 -31 63.999c-25.333 18.667 -65.666 28 -120.999 28l-37 -2v37h19c48.667 0 85.667 6 111 18c32 15.333 48 40.333 48 75c0 22 -8.33301 41.333 -25 58s-38.667 25 -66 25c-28 0 -53.667 -9 -77 -27s-38.333 -41.667 -45 -71
h-21z" />
    <glyph glyph-name="ccedilla" unicode="&#x437;" horiz-adv-x="441" 
d="M74 339l11.9971 100.003c21.333 11.333 43 19.833 65 25.5s43 8.5 63 8.5c44.667 0 82 -10.5 112 -31.5s45 -45.167 45 -72.5c0 -28.667 -7 -53.334 -21 -74.001c-18.667 -27.333 -47.667 -43.333 -87 -48v-6c34.667 0 64.834 -10.833 90.501 -32.5
s38.5 -48.167 38.5 -79.5c0 -34.667 -12.667 -64.667 -38 -90c-34 -33.333 -84 -50 -150 -50c-21.333 0 -41.666 2.33301 -60.999 7c-28.667 6.66699 -60 19 -94 37v100h20c4 -28.667 21.333 -54.334 52 -77.001c28 -20.667 56.333 -31 85 -31c33.333 0 60.5 10.5 81.5 31.5
s31.5 46.833 31.5 77.5c0 27.333 -10.333 48.666 -31 63.999c-25.333 18.667 -65.666 28 -120.999 28l-37 -2v37h19c48.667 0 85.667 6 111 18c32 15.333 48 40.333 48 75c0 22 -8.33301 41.333 -25 58s-38.667 25 -66 25c-28 0 -53.667 -9 -77 -27s-38.333 -41.667 -45 -71
h-21z" />
    <glyph glyph-name="egrave" unicode="&#xe8;" horiz-adv-x="550" 
d="M444 380l0.00195312 -298c0 -20.667 3.66699 -36 11 -46s20.666 -15 39.999 -15h10v-21h-181v21h10c15.333 0 27.5 4.5 36.5 13.5s13.5 20.5 13.5 34.5v239l-219 -208v-18c0 -20.667 3.5 -36 10.5 -46s20.167 -15 39.5 -15h10v-21h-180v21h9c14.667 0 26.834 4 36.501 12
s14.5 20 14.5 36v324c0 15.333 -4.83301 27.166 -14.5 35.499s-21.834 12.5 -36.501 12.5h-9v21h180v-21h-10c-18 0 -30.833 -5.16699 -38.5 -15.5s-11.5 -25.5 -11.5 -45.5v-229l219 209v33c0 14.667 -4.33301 26.334 -13 35.001s-21 13 -37 13h-10v21h181v-21h-10
c-18.667 0 -31.834 -5.16699 -39.501 -15.5s-11.5 -25.5 -11.5 -45.5z" />
    <glyph glyph-name="egrave" unicode="&#x438;" horiz-adv-x="550" 
d="M444 380l0.00195312 -298c0 -20.667 3.66699 -36 11 -46s20.666 -15 39.999 -15h10v-21h-181v21h10c15.333 0 27.5 4.5 36.5 13.5s13.5 20.5 13.5 34.5v239l-219 -208v-18c0 -20.667 3.5 -36 10.5 -46s20.167 -15 39.5 -15h10v-21h-180v21h9c14.667 0 26.834 4 36.501 12
s14.5 20 14.5 36v324c0 15.333 -4.83301 27.166 -14.5 35.499s-21.834 12.5 -36.501 12.5h-9v21h180v-21h-10c-18 0 -30.833 -5.16699 -38.5 -15.5s-11.5 -25.5 -11.5 -45.5v-229l219 209v33c0 14.667 -4.33301 26.334 -13 35.001s-21 13 -37 13h-10v21h181v-21h-10
c-18.667 0 -31.834 -5.16699 -39.501 -15.5s-11.5 -25.5 -11.5 -45.5z" />
    <glyph glyph-name="eacute" unicode="&#xe9;" horiz-adv-x="549" 
d="M274 549c-39.333 0 -69.001 12 -89.001 36c-16.667 20 -25 44 -25 72c0 14 5.16699 24.667 15.5 32s21.833 11 34.5 11c4 0 8 -1 12 -3c11.333 -6 17 -16.333 17 -31c0 -8 -2.16699 -15.167 -6.5 -21.5s-11.166 -11.166 -20.499 -14.499l-11 -4.5
c-4 -1.66699 -6 -3.83398 -6 -6.50098c0 -10.667 7.33301 -21 22 -31s33.667 -15 57 -15c27.333 0 48.333 6 63 18c11.333 9.33301 17 18.666 17 27.999c0 3.33301 -3.83301 6.33301 -11.5 9s-12.167 4.33398 -13.5 5.00098c-6 3.33301 -10.833 7.83301 -14.5 13.5
s-5.5 12.167 -5.5 19.5c0 10.667 3 19 9 25s13 9 21 9c11.333 0 22.5 -3.5 33.5 -10.5s16.5 -17.833 16.5 -32.5c0 -30 -9 -54.667 -27 -74c-20.667 -22.667 -50 -34 -88 -34zM443.999 380l0.00195312 -298c0 -20.667 3.66699 -36 11 -46s20.666 -15 39.999 -15h10v-21h-181
v21h10c15.333 0 27.5 4.5 36.5 13.5s13.5 20.5 13.5 34.5v239l-219 -208v-18c0 -20.667 3.5 -36 10.5 -46s20.167 -15 39.5 -15h10v-21h-180v21h9c14.667 0 26.834 4 36.501 12s14.5 20 14.5 36v324c0 15.333 -4.83301 27.166 -14.5 35.499s-21.834 12.5 -36.501 12.5h-9v21
h180v-21h-10c-18 0 -30.833 -5.16699 -38.5 -15.5s-11.5 -25.5 -11.5 -45.5v-229l219 209v33c0 14.667 -4.33301 26.334 -13 35.001s-21 13 -37 13h-10v21h181v-21h-10c-18.667 0 -31.834 -5.16699 -39.501 -15.5s-11.5 -25.5 -11.5 -45.5z" />
    <glyph glyph-name="eacute" unicode="&#x439;" horiz-adv-x="549" 
d="M274 549c-39.333 0 -69.001 12 -89.001 36c-16.667 20 -25 44 -25 72c0 14 5.16699 24.667 15.5 32s21.833 11 34.5 11c4 0 8 -1 12 -3c11.333 -6 17 -16.333 17 -31c0 -8 -2.16699 -15.167 -6.5 -21.5s-11.166 -11.166 -20.499 -14.499l-11 -4.5
c-4 -1.66699 -6 -3.83398 -6 -6.50098c0 -10.667 7.33301 -21 22 -31s33.667 -15 57 -15c27.333 0 48.333 6 63 18c11.333 9.33301 17 18.666 17 27.999c0 3.33301 -3.83301 6.33301 -11.5 9s-12.167 4.33398 -13.5 5.00098c-6 3.33301 -10.833 7.83301 -14.5 13.5
s-5.5 12.167 -5.5 19.5c0 10.667 3 19 9 25s13 9 21 9c11.333 0 22.5 -3.5 33.5 -10.5s16.5 -17.833 16.5 -32.5c0 -30 -9 -54.667 -27 -74c-20.667 -22.667 -50 -34 -88 -34zM443.999 380l0.00195312 -298c0 -20.667 3.66699 -36 11 -46s20.666 -15 39.999 -15h10v-21h-181
v21h10c15.333 0 27.5 4.5 36.5 13.5s13.5 20.5 13.5 34.5v239l-219 -208v-18c0 -20.667 3.5 -36 10.5 -46s20.167 -15 39.5 -15h10v-21h-180v21h9c14.667 0 26.834 4 36.501 12s14.5 20 14.5 36v324c0 15.333 -4.83301 27.166 -14.5 35.499s-21.834 12.5 -36.501 12.5h-9v21
h180v-21h-10c-18 0 -30.833 -5.16699 -38.5 -15.5s-11.5 -25.5 -11.5 -45.5v-229l219 209v33c0 14.667 -4.33301 26.334 -13 35.001s-21 13 -37 13h-10v21h181v-21h-10c-18.667 0 -31.834 -5.16699 -39.501 -15.5s-11.5 -25.5 -11.5 -45.5z" />
    <glyph glyph-name="ecircumflex" unicode="&#xea;" horiz-adv-x="511" 
d="M106 69l0.00195312 324.003c0 14.667 -4.33301 26.334 -13 35.001s-21 13 -37 13h-11v21h181v-21h-10c-15.333 0 -27.5 -4.5 -36.5 -13.5s-13.5 -20.5 -13.5 -34.5v-191l178 186c1.33301 2 5.16602 6.5 11.499 13.5s9.5 13.167 9.5 18.5c0 6 -2.83301 11 -8.5 15
s-15.167 6 -28.5 6v21h146v-21c-10.667 -2 -23 -7.66699 -37 -17c-6.66699 -4.66699 -15.334 -11.667 -26.001 -21l-120 -111l143 -223c9.33301 -14.667 17.333 -25 24 -31c9.33301 -8.66699 22.333 -14.334 39 -17.001v-21h-169v21c12 1.33301 21 3.66602 27 6.99902
s9 9.66602 9 18.999c0 8.66699 -2.66699 17 -8 25l-109 176l-81 -85v-94c0 -14.667 4.33301 -26.334 13 -35.001s21 -13 37 -13h10v-21h-181v21h11c15.333 0 27.5 4.5 36.5 13.5s13.5 20.5 13.5 34.5z" />
    <glyph glyph-name="ecircumflex" unicode="&#x43a;" horiz-adv-x="511" 
d="M106 69l0.00195312 324.003c0 14.667 -4.33301 26.334 -13 35.001s-21 13 -37 13h-11v21h181v-21h-10c-15.333 0 -27.5 -4.5 -36.5 -13.5s-13.5 -20.5 -13.5 -34.5v-191l178 186c1.33301 2 5.16602 6.5 11.499 13.5s9.5 13.167 9.5 18.5c0 6 -2.83301 11 -8.5 15
s-15.167 6 -28.5 6v21h146v-21c-10.667 -2 -23 -7.66699 -37 -17c-6.66699 -4.66699 -15.334 -11.667 -26.001 -21l-120 -111l143 -223c9.33301 -14.667 17.333 -25 24 -31c9.33301 -8.66699 22.333 -14.334 39 -17.001v-21h-169v21c12 1.33301 21 3.66602 27 6.99902
s9 9.66602 9 18.999c0 8.66699 -2.66699 17 -8 25l-109 176l-81 -85v-94c0 -14.667 4.33301 -26.334 13 -35.001s21 -13 37 -13h10v-21h-181v21h11c15.333 0 27.5 4.5 36.5 13.5s13.5 20.5 13.5 34.5z" />
    <glyph glyph-name="edieresis" unicode="&#xeb;" horiz-adv-x="527" 
d="M422 380l-0.00195312 -298.003c0 -20.667 3.5 -36 10.5 -46s20.167 -15 39.5 -15h10v-21h-180v21h9c34 0 51 20.333 51 61v288c0 37.333 -13.667 56 -41 56h-44c-14 0 -24.333 -4.66699 -31 -14c-4 -5.33301 -6.66699 -13.333 -8 -24l-6 -43
c-4.66699 -43.333 -9.66699 -87.166 -15 -131.499s-12.666 -84.166 -21.999 -119.499s-20.666 -61 -33.999 -77c-16 -18.667 -37 -28 -63 -28c-17.333 0 -32.666 4.66699 -45.999 14c-20.667 14.667 -31 37.667 -31 69c0 18.667 4.16699 35.334 12.5 50.001s19.5 22 33.5 22
c9.33301 0 17 -3 23 -9s9 -15.667 9 -29l-2 -18c-4 -13.333 -9 -24.333 -15 -33c-4 -8 -6 -13 -6 -15c0 -10 7.66699 -15 23 -15c12 0 21.667 3.33301 29 10c11.333 10.667 21.166 29.667 29.499 57s17.333 73.333 27 138s14.5 113 14.5 145c0 22 -4.83301 38.5 -14.5 49.5
s-22.5 16.5 -38.5 16.5v21h336v-21h-10c-18 0 -30.833 -5.16699 -38.5 -15.5s-11.5 -25.5 -11.5 -45.5z" />
    <glyph glyph-name="edieresis" unicode="&#x43b;" horiz-adv-x="527" 
d="M422 380l-0.00195312 -298.003c0 -20.667 3.5 -36 10.5 -46s20.167 -15 39.5 -15h10v-21h-180v21h9c34 0 51 20.333 51 61v288c0 37.333 -13.667 56 -41 56h-44c-14 0 -24.333 -4.66699 -31 -14c-4 -5.33301 -6.66699 -13.333 -8 -24l-6 -43
c-4.66699 -43.333 -9.66699 -87.166 -15 -131.499s-12.666 -84.166 -21.999 -119.499s-20.666 -61 -33.999 -77c-16 -18.667 -37 -28 -63 -28c-17.333 0 -32.666 4.66699 -45.999 14c-20.667 14.667 -31 37.667 -31 69c0 18.667 4.16699 35.334 12.5 50.001s19.5 22 33.5 22
c9.33301 0 17 -3 23 -9s9 -15.667 9 -29l-2 -18c-4 -13.333 -9 -24.333 -15 -33c-4 -8 -6 -13 -6 -15c0 -10 7.66699 -15 23 -15c12 0 21.667 3.33301 29 10c11.333 10.667 21.166 29.667 29.499 57s17.333 73.333 27 138s14.5 113 14.5 145c0 22 -4.83301 38.5 -14.5 49.5
s-22.5 16.5 -38.5 16.5v21h336v-21h-10c-18 0 -30.833 -5.16699 -38.5 -15.5s-11.5 -25.5 -11.5 -45.5z" />
    <glyph glyph-name="igrave" unicode="&#xec;" horiz-adv-x="629" 
d="M463 428l-5 0.00195312l-147 -428h-17l-153 423h-4v-349c0 -12.667 4.83301 -24.667 14.5 -36s24.167 -17 43.5 -17v-21h-150v21c18 0 31.333 6.16699 40 18.5s13 28.833 13 49.5v288c0 42.667 -17.667 64 -53 64v21h148l123 -341h6l118 341h144v-21h-14
c-14 0 -25.333 -4.33301 -34 -13s-13 -20.334 -13 -35.001v-324c0 -14.667 4.33301 -26.334 13 -35.001s21 -13 37 -13h11v-21h-181v21h10c15.333 0 27.5 4.5 36.5 13.5s13.5 20.5 13.5 34.5v359z" />
    <glyph glyph-name="igrave" unicode="&#x43c;" horiz-adv-x="629" 
d="M463 428l-5 0.00195312l-147 -428h-17l-153 423h-4v-349c0 -12.667 4.83301 -24.667 14.5 -36s24.167 -17 43.5 -17v-21h-150v21c18 0 31.333 6.16699 40 18.5s13 28.833 13 49.5v288c0 42.667 -17.667 64 -53 64v21h148l123 -341h6l118 341h144v-21h-14
c-14 0 -25.333 -4.33301 -34 -13s-13 -20.334 -13 -35.001v-324c0 -14.667 4.33301 -26.334 13 -35.001s21 -13 37 -13h11v-21h-181v21h10c15.333 0 27.5 4.5 36.5 13.5s13.5 20.5 13.5 34.5v359z" />
    <glyph glyph-name="iacute" unicode="&#xed;" horiz-adv-x="549" 
d="M45 462h179.996v-21h-10c-11.333 -1.33301 -19.666 -3.33301 -24.999 -6c-16.667 -8 -25 -22 -25 -42v-137h219v124c0 20.667 -3.66699 36 -11 46s-20.666 15 -39.999 15h-9v21h180v-21h-10c-11.333 -1.33301 -19.666 -3.33301 -24.999 -6c-16.667 -8 -25 -22 -25 -42
v-324c0 -19.333 8.33301 -33 25 -41c5.33301 -2.66699 13.666 -5 24.999 -7h10v-21h-180v21h9c18.667 0 31.834 5.16699 39.501 15.5s11.5 25.5 11.5 45.5v137h-219v-150c0 -19.333 8.33301 -33 25 -41c5.33301 -2.66699 13.666 -5 24.999 -7h10v-21h-180v21h9
c18.667 0 31.834 5.16699 39.501 15.5s11.5 25.5 11.5 45.5v298c0 20.667 -3.66699 36 -11 46s-20.666 15 -39.999 15h-9v21z" />
    <glyph glyph-name="iacute" unicode="&#x43d;" horiz-adv-x="549" 
d="M45 462h179.996v-21h-10c-11.333 -1.33301 -19.666 -3.33301 -24.999 -6c-16.667 -8 -25 -22 -25 -42v-137h219v124c0 20.667 -3.66699 36 -11 46s-20.666 15 -39.999 15h-9v21h180v-21h-10c-11.333 -1.33301 -19.666 -3.33301 -24.999 -6c-16.667 -8 -25 -22 -25 -42
v-324c0 -19.333 8.33301 -33 25 -41c5.33301 -2.66699 13.666 -5 24.999 -7h10v-21h-180v21h9c18.667 0 31.834 5.16699 39.501 15.5s11.5 25.5 11.5 45.5v137h-219v-150c0 -19.333 8.33301 -33 25 -41c5.33301 -2.66699 13.666 -5 24.999 -7h10v-21h-180v21h9
c18.667 0 31.834 5.16699 39.501 15.5s11.5 25.5 11.5 45.5v298c0 20.667 -3.66699 36 -11 46s-20.666 15 -39.999 15h-9v21z" />
    <glyph glyph-name="icircumflex" unicode="&#xee;" horiz-adv-x="502" 
d="M251 473c66 0 117.667 -27.999 155 -83.999c31.333 -46.667 47 -99.334 47 -158.001c0 -59.333 -15 -111.666 -45 -156.999c-37.333 -56.667 -89.333 -85 -156 -85c-68 0 -120.667 28.333 -158 85c-30 45.333 -45 97.666 -45 156.999c0 58 15.667 110.333 47 157
c38 56.667 89.667 85 155 85zM251 437.001c-34.667 0 -63.668 -14.666 -87.001 -43.999c-28 -35.333 -42 -89.333 -42 -162c0 -78.667 16.333 -135.334 49 -170.001c22.667 -24 49.334 -36 80.001 -36c40 0 72 19.333 96 58c22 36 33 85.333 33 148
c0 72.667 -14 126.667 -42 162c-23.333 29.333 -52.333 44 -87 44z" />
    <glyph glyph-name="icircumflex" unicode="&#x43e;" horiz-adv-x="502" 
d="M251 473c66 0 117.667 -27.999 155 -83.999c31.333 -46.667 47 -99.334 47 -158.001c0 -59.333 -15 -111.666 -45 -156.999c-37.333 -56.667 -89.333 -85 -156 -85c-68 0 -120.667 28.333 -158 85c-30 45.333 -45 97.666 -45 156.999c0 58 15.667 110.333 47 157
c38 56.667 89.667 85 155 85zM251 437.001c-34.667 0 -63.668 -14.666 -87.001 -43.999c-28 -35.333 -42 -89.333 -42 -162c0 -78.667 16.333 -135.334 49 -170.001c22.667 -24 49.334 -36 80.001 -36c40 0 72 19.333 96 58c22 36 33 85.333 33 148
c0 72.667 -14 126.667 -42 162c-23.333 29.333 -52.333 44 -87 44z" />
    <glyph glyph-name="idieresis" unicode="&#xef;" horiz-adv-x="538" 
d="M373 82l-0.000976562 292.999c0 20 -3.33301 33.333 -10 40s-18.667 10 -36 10h-119c-16.667 0 -28.5 -3.16699 -35.5 -9.5s-10.5 -16.166 -10.5 -29.499v-317c0 -19.333 7.33301 -33 22 -41c8.66699 -4.66699 17.334 -7 26.001 -7h8v-21h-173v21h10
c10.667 0 20 2.66699 28 8c12.667 8.66699 19 22 19 40v324c0 18 -5.16699 30.5 -15.5 37.5s-20.833 10.5 -31.5 10.5h-10v21h445v-21h-9c-10 0 -18.667 -2 -26 -6c-14.667 -8 -22 -22 -22 -42v-311c0 -20.667 3.5 -36 10.5 -46s20.167 -15 39.5 -15h10v-21h-180v21h9
c34 0 51 20.333 51 61z" />
    <glyph glyph-name="idieresis" unicode="&#x43f;" horiz-adv-x="538" 
d="M373 82l-0.000976562 292.999c0 20 -3.33301 33.333 -10 40s-18.667 10 -36 10h-119c-16.667 0 -28.5 -3.16699 -35.5 -9.5s-10.5 -16.166 -10.5 -29.499v-317c0 -19.333 7.33301 -33 22 -41c8.66699 -4.66699 17.334 -7 26.001 -7h8v-21h-173v21h10
c10.667 0 20 2.66699 28 8c12.667 8.66699 19 22 19 40v324c0 18 -5.16699 30.5 -15.5 37.5s-20.833 10.5 -31.5 10.5h-10v21h445v-21h-9c-10 0 -18.667 -2 -26 -6c-14.667 -8 -22 -22 -22 -42v-311c0 -20.667 3.5 -36 10.5 -46s20.167 -15 39.5 -15h10v-21h-180v21h9
c34 0 51 20.333 51 61z" />
    <glyph glyph-name="eth" unicode="&#xf0;" horiz-adv-x="517" 
d="M135 483l26.9961 0.000976562v-69h5c16.667 21.333 35.334 36.5 56.001 45.5s42 13.5 64 13.5c51.333 0 94.333 -20.167 129 -60.5s52 -93.833 52 -160.5c0 -68 -17 -127.667 -51 -179c-37.333 -56 -84.333 -84 -141 -84c-20.667 0 -40.5 4 -59.5 12
s-35.5 20.667 -49.5 38h-5v-197c0 -19.333 7.33301 -33 22 -41c8.66699 -4.66699 17.334 -7 26.001 -7h16v-21h-181v21h9c17.333 0 29.666 5.33301 36.999 16s11 26 11 46v498c0 19.333 -4.16699 32.666 -12.5 39.999s-18.166 11 -29.499 11h-10v21
c20.667 6.66699 37.334 14 50.001 22s24.334 19.667 35.001 35zM161.996 344.001v-227c0 -23.333 11.5 -44.5 34.5 -63.5s47.167 -28.5 72.5 -28.5c30 0 56 11.667 78 35c32 34 48 87 48 159c0 60.667 -10.667 111 -32 151c-24 44.667 -56.333 67 -97 67
c-25.333 0 -49 -9 -71 -27s-33 -40 -33 -66z" />
    <glyph glyph-name="eth" unicode="&#x440;" horiz-adv-x="517" 
d="M135 483l26.9961 0.000976562v-69h5c16.667 21.333 35.334 36.5 56.001 45.5s42 13.5 64 13.5c51.333 0 94.333 -20.167 129 -60.5s52 -93.833 52 -160.5c0 -68 -17 -127.667 -51 -179c-37.333 -56 -84.333 -84 -141 -84c-20.667 0 -40.5 4 -59.5 12
s-35.5 20.667 -49.5 38h-5v-197c0 -19.333 7.33301 -33 22 -41c8.66699 -4.66699 17.334 -7 26.001 -7h16v-21h-181v21h9c17.333 0 29.666 5.33301 36.999 16s11 26 11 46v498c0 19.333 -4.16699 32.666 -12.5 39.999s-18.166 11 -29.499 11h-10v21
c20.667 6.66699 37.334 14 50.001 22s24.334 19.667 35.001 35zM161.996 344.001v-227c0 -23.333 11.5 -44.5 34.5 -63.5s47.167 -28.5 72.5 -28.5c30 0 56 11.667 78 35c32 34 48 87 48 159c0 60.667 -10.667 111 -32 151c-24 44.667 -56.333 67 -97 67
c-25.333 0 -49 -9 -71 -27s-33 -40 -33 -66z" />
    <glyph glyph-name="ntilde" unicode="&#xf1;" horiz-adv-x="468" 
d="M404 94l22.001 -21.002c-28 -27.333 -54 -47.333 -78 -60c-29.333 -16 -59.333 -24 -90 -24c-58.667 0 -108.167 23.833 -148.5 71.5s-60.5 102.834 -60.5 165.501c0 64.667 19.5 122 58.5 172s88.167 75 147.5 75c37.333 0 71 -11.167 101 -33.5s45 -48.833 45 -79.5
c0 -16 -3.83301 -27.5 -11.5 -34.5s-16.5 -10.5 -26.5 -10.5c-16.667 0 -28.667 6.66699 -36 20c-4.66699 8.66699 -8 21.834 -10 39.501s-6 30.834 -12 39.501c-11.333 15.333 -31 23 -59 23c-45.333 0 -78.666 -22 -99.999 -66c-16 -33.333 -24 -75.666 -24 -126.999
c0 -56.667 16.667 -105.334 50 -146.001s73 -61 119 -61c21.333 0 41.666 5.16699 60.999 15.5s36.666 24.166 51.999 41.499z" />
    <glyph glyph-name="ntilde" unicode="&#x441;" horiz-adv-x="468" 
d="M404 94l22.001 -21.002c-28 -27.333 -54 -47.333 -78 -60c-29.333 -16 -59.333 -24 -90 -24c-58.667 0 -108.167 23.833 -148.5 71.5s-60.5 102.834 -60.5 165.501c0 64.667 19.5 122 58.5 172s88.167 75 147.5 75c37.333 0 71 -11.167 101 -33.5s45 -48.833 45 -79.5
c0 -16 -3.83301 -27.5 -11.5 -34.5s-16.5 -10.5 -26.5 -10.5c-16.667 0 -28.667 6.66699 -36 20c-4.66699 8.66699 -8 21.834 -10 39.501s-6 30.834 -12 39.501c-11.333 15.333 -31 23 -59 23c-45.333 0 -78.666 -22 -99.999 -66c-16 -33.333 -24 -75.666 -24 -126.999
c0 -56.667 16.667 -105.334 50 -146.001s73 -61 119 -61c21.333 0 41.666 5.16699 60.999 15.5s36.666 24.166 51.999 41.499z" />
    <glyph glyph-name="ograve" unicode="&#xf2;" horiz-adv-x="466" 
d="M203 69l-0.00195312 304.001c0 18.667 -1.33301 31 -4 37c-4.66699 10.667 -15.667 16 -33 16c-23.333 0 -45.666 -10.667 -66.999 -32c-15.333 -15.333 -28.666 -34.333 -39.999 -57h-25l30 125h339l29 -125h-25c-15.333 28.667 -32 50.667 -50 66s-37 23 -57 23
c-17.333 0 -27.833 -4.16699 -31.5 -12.5s-5.5 -21.833 -5.5 -40.5v-304c0 -14.667 4.33301 -26.334 13 -35.001s20 -13 34 -13h9v-21h-171v21h9c10.667 0 19.667 2.33301 27 7c12.667 8 19 21.667 19 41z" />
    <glyph glyph-name="ograve" unicode="&#x442;" horiz-adv-x="466" 
d="M203 69l-0.00195312 304.001c0 18.667 -1.33301 31 -4 37c-4.66699 10.667 -15.667 16 -33 16c-23.333 0 -45.666 -10.667 -66.999 -32c-15.333 -15.333 -28.666 -34.333 -39.999 -57h-25l30 125h339l29 -125h-25c-15.333 28.667 -32 50.667 -50 66s-37 23 -57 23
c-17.333 0 -27.833 -4.16699 -31.5 -12.5s-5.5 -21.833 -5.5 -40.5v-304c0 -14.667 4.33301 -26.334 13 -35.001s20 -13 34 -13h9v-21h-171v21h9c10.667 0 19.667 2.33301 27 7c12.667 8 19 21.667 19 41z" />
    <glyph glyph-name="oacute" unicode="&#xf3;" horiz-adv-x="514" 
d="M280 91l5.00098 0.000976562l94 260c4 11.333 6.66699 20.333 8 27s2.33301 12.334 3 17.001c0 16 -4.83301 27.667 -14.5 35s-20.5 11 -32.5 11v21h154v-21c-19.333 -4 -34.5 -11.833 -45.5 -23.5s-20.5 -28.5 -28.5 -50.5l-176 -487
c-14 -38.667 -31.667 -66.334 -53 -83.001c-15.333 -12 -32.666 -18 -51.999 -18c-25.333 0 -46.333 5.33301 -63 16s-25 25.334 -25 44.001c0 11.333 3.83301 19.833 11.5 25.5s15.5 8.5 23.5 8.5c17.333 0 26.666 -7.16699 27.999 -21.5s16.333 -21.5 45 -21.5
c11.333 0 21 5.16699 29 15.5s15.333 25.166 22 44.499l37 107l-145 377c-10 25.333 -22.333 43.666 -37 54.999c-10.667 8 -22.334 12 -35.001 12h-5v21h169v-21c-26.667 0 -40 -7.33301 -40 -22c0 -6 0.666992 -10.667 2 -14l6 -15z" />
    <glyph glyph-name="oacute" unicode="&#x443;" horiz-adv-x="514" 
d="M280 91l5.00098 0.000976562l94 260c4 11.333 6.66699 20.333 8 27s2.33301 12.334 3 17.001c0 16 -4.83301 27.667 -14.5 35s-20.5 11 -32.5 11v21h154v-21c-19.333 -4 -34.5 -11.833 -45.5 -23.5s-20.5 -28.5 -28.5 -50.5l-176 -487
c-14 -38.667 -31.667 -66.334 -53 -83.001c-15.333 -12 -32.666 -18 -51.999 -18c-25.333 0 -46.333 5.33301 -63 16s-25 25.334 -25 44.001c0 11.333 3.83301 19.833 11.5 25.5s15.5 8.5 23.5 8.5c17.333 0 26.666 -7.16699 27.999 -21.5s16.333 -21.5 45 -21.5
c11.333 0 21 5.16699 29 15.5s15.333 25.166 22 44.499l37 107l-145 377c-10 25.333 -22.333 43.666 -37 54.999c-10.667 8 -22.334 12 -35.001 12h-5v21h169v-21c-26.667 0 -40 -7.33301 -40 -22c0 -6 0.666992 -10.667 2 -14l6 -15z" />
    <glyph glyph-name="ocircumflex" unicode="&#xf4;" horiz-adv-x="668" 
d="M257 609l0.000976562 21.001c20.667 6 37.667 13.667 51 23s23.666 20.333 30.999 33h25v-274h5c12.667 20 28.334 35.167 47.001 45.5s36.667 15.5 54 15.5c47.333 0 85 -28 113 -84c24 -48 36 -102.333 36 -163c0 -66.667 -13.333 -122 -40 -166
c-28.667 -47.333 -67 -71 -115 -71c-22.667 0 -43.334 5.66699 -62.001 17c-13.333 8.66699 -24.333 19 -33 31h-5v-195c0 -14.667 3.33301 -25.667 10 -33c9.33301 -10 27 -15 53 -15v-21h-186v21c25.333 0 42.166 4.16699 50.499 12.5s12.5 24.5 12.5 48.5v182h-6
c-12 -16 -26.5 -28 -43.5 -36s-33.5 -12 -49.5 -12c-47.333 0 -85.166 23.167 -113.499 69.5s-42.5 102.166 -42.5 167.499c0 60.667 12 115 36 163c28 56 65.333 84 112 84c20.667 0 40.667 -5.66699 60 -17s33 -26 41 -44h6v141c0 22.667 -3.5 37.667 -10.5 45
s-16.167 11 -27.5 11h-9zM304.001 118.001v188.001c0 47.333 -11 82.666 -33 105.999c-16 16.667 -34 25 -54 25c-25.333 0 -45.333 -10.667 -60 -32c-24 -34.667 -36 -94.667 -36 -180c0 -64 9 -113.333 27 -148s39.667 -52 65 -52c22 0 42 8 60 24c20.667 18 31 41 31 69z
M364.001 320.002l-0.000976562 -201.999c0 -28 10 -51 30 -69c18 -16 38.333 -24 61 -24c26 0 47.833 17.167 65.5 51.5s26.5 83.166 26.5 146.499c0 74 -8.66699 128.167 -26 162.5s-40.666 51.5 -69.999 51.5c-20.667 0 -39.667 -10 -57 -30
c-20 -23.333 -30 -52.333 -30 -87z" />
    <glyph glyph-name="ocircumflex" unicode="&#x444;" horiz-adv-x="668" 
d="M257 609l0.000976562 21.001c20.667 6 37.667 13.667 51 23s23.666 20.333 30.999 33h25v-274h5c12.667 20 28.334 35.167 47.001 45.5s36.667 15.5 54 15.5c47.333 0 85 -28 113 -84c24 -48 36 -102.333 36 -163c0 -66.667 -13.333 -122 -40 -166
c-28.667 -47.333 -67 -71 -115 -71c-22.667 0 -43.334 5.66699 -62.001 17c-13.333 8.66699 -24.333 19 -33 31h-5v-195c0 -14.667 3.33301 -25.667 10 -33c9.33301 -10 27 -15 53 -15v-21h-186v21c25.333 0 42.166 4.16699 50.499 12.5s12.5 24.5 12.5 48.5v182h-6
c-12 -16 -26.5 -28 -43.5 -36s-33.5 -12 -49.5 -12c-47.333 0 -85.166 23.167 -113.499 69.5s-42.5 102.166 -42.5 167.499c0 60.667 12 115 36 163c28 56 65.333 84 112 84c20.667 0 40.667 -5.66699 60 -17s33 -26 41 -44h6v141c0 22.667 -3.5 37.667 -10.5 45
s-16.167 11 -27.5 11h-9zM304.001 118.001v188.001c0 47.333 -11 82.666 -33 105.999c-16 16.667 -34 25 -54 25c-25.333 0 -45.333 -10.667 -60 -32c-24 -34.667 -36 -94.667 -36 -180c0 -64 9 -113.333 27 -148s39.667 -52 65 -52c22 0 42 8 60 24c20.667 18 31 41 31 69z
M364.001 320.002l-0.000976562 -201.999c0 -28 10 -51 30 -69c18 -16 38.333 -24 61 -24c26 0 47.833 17.167 65.5 51.5s26.5 83.166 26.5 146.499c0 74 -8.66699 128.167 -26 162.5s-40.666 51.5 -69.999 51.5c-20.667 0 -39.667 -10 -57 -30
c-20 -23.333 -30 -52.333 -30 -87z" />
    <glyph glyph-name="otilde" unicode="&#xf5;" horiz-adv-x="511" 
d="M45 462l183.998 -0.000976562v-21c-12.667 0 -22.667 -2 -30 -6s-11 -8.33301 -11 -13s2.33301 -10.667 7 -18l73 -113h5l74 102c5.33301 8 8 14.667 8 20c0 9.33301 -4 16 -12 20s-19 6.66699 -33 8v21h154v-21c-19.333 -2.66699 -35.666 -9 -48.999 -19
c-9.33301 -7.33301 -20.333 -19 -33 -35l-97 -124l123 -188c11.333 -18 23 -31 35 -39s27.667 -13 47 -15v-21h-180v21c11.333 0 21 2 29 6s12 9 12 15c0 2 -1.5 5.83301 -4.5 11.5s-4.5 8.83398 -4.5 9.50098l-92 143h-6l-99 -140l-9 -18c0 -4.66699 0.333008 -8 1 -10
c4.66699 -11.333 19.334 -17 44.001 -17v-21h-160v21c21.333 4 38 9.83301 50 17.5s24.333 20.167 37 37.5l117 160l-97 155c-18 27.333 -45.667 44 -83 50v21z" />
    <glyph glyph-name="otilde" unicode="&#x445;" horiz-adv-x="511" 
d="M45 462l183.998 -0.000976562v-21c-12.667 0 -22.667 -2 -30 -6s-11 -8.33301 -11 -13s2.33301 -10.667 7 -18l73 -113h5l74 102c5.33301 8 8 14.667 8 20c0 9.33301 -4 16 -12 20s-19 6.66699 -33 8v21h154v-21c-19.333 -2.66699 -35.666 -9 -48.999 -19
c-9.33301 -7.33301 -20.333 -19 -33 -35l-97 -124l123 -188c11.333 -18 23 -31 35 -39s27.667 -13 47 -15v-21h-180v21c11.333 0 21 2 29 6s12 9 12 15c0 2 -1.5 5.83301 -4.5 11.5s-4.5 8.83398 -4.5 9.50098l-92 143h-6l-99 -140l-9 -18c0 -4.66699 0.333008 -8 1 -10
c4.66699 -11.333 19.334 -17 44.001 -17v-21h-160v21c21.333 4 38 9.83301 50 17.5s24.333 20.167 37 37.5l117 160l-97 155c-18 27.333 -45.667 44 -83 50v21z" />
    <glyph glyph-name="odieresis" unicode="&#xf6;" horiz-adv-x="529" 
d="M45 462l173.998 -0.000976562v-21h-9c-17.333 0 -29.666 -5.66699 -36.999 -17s-11 -26.333 -11 -45v-301c0 -14.667 3.66699 -25.167 11 -31.5s21.666 -9.5 42.999 -9.5h102c16 0 28 2 36 6c12 6 18 17.333 18 34v315c0 19.333 -6.33301 33 -19 41
c-8 5.33301 -17.333 8 -28 8h-9v21h173v-21h-9c-17.333 0 -29.666 -5.33301 -36.999 -16s-11 -26 -11 -46v-289l1 -17c0 -15.333 5.16699 -26.666 15.5 -33.999s24.5 -11 42.5 -11h19l26 -136h-21c-13.333 40 -33.666 69.333 -60.999 88c-20 13.333 -41.333 20 -64 20h-345
v21h9c18.667 0 31.334 5.33301 38.001 16s10 26 10 46v296c0 20 -3.33301 35.333 -10 46s-19.334 16 -38.001 16h-9v21z" />
    <glyph glyph-name="odieresis" unicode="&#x446;" horiz-adv-x="529" 
d="M45 462l173.998 -0.000976562v-21h-9c-17.333 0 -29.666 -5.66699 -36.999 -17s-11 -26.333 -11 -45v-301c0 -14.667 3.66699 -25.167 11 -31.5s21.666 -9.5 42.999 -9.5h102c16 0 28 2 36 6c12 6 18 17.333 18 34v315c0 19.333 -6.33301 33 -19 41
c-8 5.33301 -17.333 8 -28 8h-9v21h173v-21h-9c-17.333 0 -29.666 -5.33301 -36.999 -16s-11 -26 -11 -46v-289l1 -17c0 -15.333 5.16699 -26.666 15.5 -33.999s24.5 -11 42.5 -11h19l26 -136h-21c-13.333 40 -33.666 69.333 -60.999 88c-20 13.333 -41.333 20 -64 20h-345
v21h9c18.667 0 31.334 5.33301 38.001 16s10 26 10 46v296c0 20 -3.33301 35.333 -10 46s-19.334 16 -38.001 16h-9v21z" />
    <glyph glyph-name="divide" unicode="&#xf7;" horiz-adv-x="509" 
d="M286 462h178v-21h-10c-18.667 0 -31.5 -5 -38.5 -15s-10.5 -25.333 -10.5 -46v-298c0 -20.667 3.5 -36 10.5 -46s19.833 -15 38.5 -15h10v-21h-185v21h16c20 0 33.333 4.83301 40 14.5s10 25.167 10 46.5v112c-22 -5.33301 -46.5 -9.5 -73.5 -12.5
s-58.167 -4.5 -93.5 -4.5c-31.333 0 -53.333 3.33301 -66 10c-22 11.333 -33 34.333 -33 69v137c0 14.667 -4.33301 26.334 -13 35.001s-20.667 13 -36 13h-9v21h176v-21h-9c-15.333 0 -27.333 -4.33301 -36 -13s-13 -20.334 -13 -35.001v-127c0 -20 5 -33.833 15 -41.5
s30 -11.5 60 -11.5c26.667 0 47.667 0.833008 63 2.5s38 6.5 68 14.5v150c0 21.333 -3.33301 36.833 -10 46.5s-20 14.5 -40 14.5h-9v21z" />
    <glyph glyph-name="divide" unicode="&#x447;" horiz-adv-x="509" 
d="M286 462h178v-21h-10c-18.667 0 -31.5 -5 -38.5 -15s-10.5 -25.333 -10.5 -46v-298c0 -20.667 3.5 -36 10.5 -46s19.833 -15 38.5 -15h10v-21h-185v21h16c20 0 33.333 4.83301 40 14.5s10 25.167 10 46.5v112c-22 -5.33301 -46.5 -9.5 -73.5 -12.5
s-58.167 -4.5 -93.5 -4.5c-31.333 0 -53.333 3.33301 -66 10c-22 11.333 -33 34.333 -33 69v137c0 14.667 -4.33301 26.334 -13 35.001s-20.667 13 -36 13h-9v21h176v-21h-9c-15.333 0 -27.333 -4.33301 -36 -13s-13 -20.334 -13 -35.001v-127c0 -20 5 -33.833 15 -41.5
s30 -11.5 60 -11.5c26.667 0 47.667 0.833008 63 2.5s38 6.5 68 14.5v150c0 21.333 -3.33301 36.833 -10 46.5s-20 14.5 -40 14.5h-9v21z" />
    <glyph glyph-name="oslash" unicode="&#xf8;" horiz-adv-x="774" 
d="M45 462l172.001 -0.000976562v-21h-9c-14 0 -25.333 -4.33301 -34 -13s-13 -20.334 -13 -35.001v-306c0 -21.333 4.66699 -35.666 14 -42.999c6 -4.66699 16 -7 30 -7h115c12.667 0 22 4.33301 28 13s9 20 9 34v309c0 14.667 -4.33301 26.334 -13 35.001s-20 13 -34 13
h-9v21h172v-21h-8c-10 0 -19.333 -2.66699 -28 -8c-13.333 -8.66699 -20 -22 -20 -40v-309c0 -17.333 3.5 -29.5 10.5 -36.5s19.833 -10.5 38.5 -10.5h95c21.333 0 35.333 3.5 42 10.5s10 18.5 10 34.5v298c0 20.667 -3.33301 36 -10 46s-19 15 -37 15h-9v21h172v-21h-9
c-18 0 -30.333 -5 -37 -15s-10 -25.333 -10 -46v-298c0 -20.667 3.33301 -36 10 -46s19 -15 37 -15h9v-21h-684v21h8c17.333 0 29.666 5.33301 36.999 16s11 25.667 11 45v311c0 18.667 -6.33301 32 -19 40c-8 5.33301 -17.667 8 -29 8h-8v21z" />
    <glyph glyph-name="oslash" unicode="&#x448;" horiz-adv-x="774" 
d="M45 462l172.001 -0.000976562v-21h-9c-14 0 -25.333 -4.33301 -34 -13s-13 -20.334 -13 -35.001v-306c0 -21.333 4.66699 -35.666 14 -42.999c6 -4.66699 16 -7 30 -7h115c12.667 0 22 4.33301 28 13s9 20 9 34v309c0 14.667 -4.33301 26.334 -13 35.001s-20 13 -34 13
h-9v21h172v-21h-8c-10 0 -19.333 -2.66699 -28 -8c-13.333 -8.66699 -20 -22 -20 -40v-309c0 -17.333 3.5 -29.5 10.5 -36.5s19.833 -10.5 38.5 -10.5h95c21.333 0 35.333 3.5 42 10.5s10 18.5 10 34.5v298c0 20.667 -3.33301 36 -10 46s-19 15 -37 15h-9v21h172v-21h-9
c-18 0 -30.333 -5 -37 -15s-10 -25.333 -10 -46v-298c0 -20.667 3.33301 -36 10 -46s19 -15 37 -15h9v-21h-684v21h8c17.333 0 29.666 5.33301 36.999 16s11 25.667 11 45v311c0 18.667 -6.33301 32 -19 40c-8 5.33301 -17.667 8 -29 8h-8v21z" />
    <glyph glyph-name="ugrave" unicode="&#xf9;" horiz-adv-x="773" 
d="M45 462l173.002 -0.000976562v-21h-10c-14 0 -25.333 -4.33301 -34 -13s-13 -20.334 -13 -35.001v-306c0 -22 4.33301 -36.333 13 -43c6 -4.66699 16.333 -7 31 -7h114c12.667 0 22.167 4.16699 28.5 12.5s9.5 19.833 9.5 34.5v309c0 14.667 -4.33301 26.334 -13 35.001
s-20 13 -34 13h-9v21h172v-21h-9c-14 0 -25.333 -4.33301 -34 -13s-13 -20.334 -13 -35.001v-309c0 -18.667 3.5 -31.167 10.5 -37.5s19.833 -9.5 38.5 -9.5h96c19.333 0 32.666 2.83301 39.999 8.5s11 17.834 11 36.501v311c0 18.667 -6 32 -18 40
c-8 5.33301 -17.667 8 -29 8h-10v21h173v-21h-9c-14 0 -25.333 -4.33301 -34 -13s-13 -20.334 -13 -35.001v-305c0 -40 22 -60 66 -60h15l26 -136h-21c-26.667 72 -71.334 108 -134.001 108h-580v21h9c14 0 25.333 4.33301 34 13s13 20.334 13 35.001v324
c0 14.667 -4.33301 26.334 -13 35.001s-20 13 -34 13h-9v21z" />
    <glyph glyph-name="ugrave" unicode="&#x449;" horiz-adv-x="773" 
d="M45 462l173.002 -0.000976562v-21h-10c-14 0 -25.333 -4.33301 -34 -13s-13 -20.334 -13 -35.001v-306c0 -22 4.33301 -36.333 13 -43c6 -4.66699 16.333 -7 31 -7h114c12.667 0 22.167 4.16699 28.5 12.5s9.5 19.833 9.5 34.5v309c0 14.667 -4.33301 26.334 -13 35.001
s-20 13 -34 13h-9v21h172v-21h-9c-14 0 -25.333 -4.33301 -34 -13s-13 -20.334 -13 -35.001v-309c0 -18.667 3.5 -31.167 10.5 -37.5s19.833 -9.5 38.5 -9.5h96c19.333 0 32.666 2.83301 39.999 8.5s11 17.834 11 36.501v311c0 18.667 -6 32 -18 40
c-8 5.33301 -17.667 8 -29 8h-10v21h173v-21h-9c-14 0 -25.333 -4.33301 -34 -13s-13 -20.334 -13 -35.001v-305c0 -40 22 -60 66 -60h15l26 -136h-21c-26.667 72 -71.334 108 -134.001 108h-580v21h9c14 0 25.333 4.33301 34 13s13 20.334 13 35.001v324
c0 14.667 -4.33301 26.334 -13 35.001s-20 13 -34 13h-9v21z" />
    <glyph glyph-name="uacute" unicode="&#xfa;" horiz-adv-x="555" 
d="M60 462h252.003v-21h-9c-14 0 -25.333 -4.33301 -34 -13s-13 -20.334 -13 -35.001v-130c12.667 2.66699 27.667 5 45 7s32.666 3 45.999 3c58 0 103.667 -15.333 137 -46c30.667 -28 46 -62 46 -102c0 -34.667 -11.667 -63 -35 -85
c-28.667 -26.667 -72.334 -40 -131.001 -40h-225v21h9c17.333 0 29.666 5.33301 36.999 16s11 25.667 11 45v301c0 16.667 -4 27.834 -12 33.501s-17.667 8.5 -29 8.5h-19c-22 0 -37.667 -3 -47 -9c-14 -9.33301 -31 -32 -51 -68h-21zM256.003 226v-146
c0 -14 4.83301 -24.667 14.5 -32s29.167 -11 58.5 -11c33.333 0 59.333 4.33301 78 13c33.333 15.333 50 43.333 50 84c0 33.333 -11.167 58.833 -33.5 76.5s-51.5 26.5 -87.5 26.5c-18 0 -35.167 -1.66699 -51.5 -5s-25.833 -5.33301 -28.5 -6z" />
    <glyph glyph-name="uacute" unicode="&#x44a;" horiz-adv-x="555" 
d="M60 462h252.003v-21h-9c-14 0 -25.333 -4.33301 -34 -13s-13 -20.334 -13 -35.001v-130c12.667 2.66699 27.667 5 45 7s32.666 3 45.999 3c58 0 103.667 -15.333 137 -46c30.667 -28 46 -62 46 -102c0 -34.667 -11.667 -63 -35 -85
c-28.667 -26.667 -72.334 -40 -131.001 -40h-225v21h9c17.333 0 29.666 5.33301 36.999 16s11 25.667 11 45v301c0 16.667 -4 27.834 -12 33.501s-17.667 8.5 -29 8.5h-19c-22 0 -37.667 -3 -47 -9c-14 -9.33301 -31 -32 -51 -68h-21zM256.003 226v-146
c0 -14 4.83301 -24.667 14.5 -32s29.167 -11 58.5 -11c33.333 0 59.333 4.33301 78 13c33.333 15.333 50 43.333 50 84c0 33.333 -11.167 58.833 -33.5 76.5s-51.5 26.5 -87.5 26.5c-18 0 -35.167 -1.66699 -51.5 -5s-25.833 -5.33301 -28.5 -6z" />
    <glyph glyph-name="ucircumflex" unicode="&#xfb;" horiz-adv-x="655" 
d="M554 380v-298c0 -20 3.5 -35.167 10.5 -45.5s19.167 -15.5 36.5 -15.5h9v-21h-172v21h8c18.667 0 31.334 5 38.001 15s10 25.333 10 46v298c0 20.667 -3.33301 36 -10 46s-19.334 15 -38.001 15h-8v21h172v-21h-9c-17.333 0 -29.5 -5 -36.5 -15s-10.5 -25.333 -10.5 -46z
M45 0l-0.000976562 21h9c15.333 0 27 4.33301 35 13s12 20.334 12 35.001v324c0 18.667 -6 32 -18 40c-8 5.33301 -17.667 8 -29 8h-9v21h171v-21h-8c-15.333 0 -27 -4.33301 -35 -13s-12 -20.334 -12 -35.001v-132c16 4 33.333 7.16699 52 9.5s34 3.5 46 3.5
c55.333 0 98.333 -14 129 -42c28.667 -26 43 -60 43 -102c0 -36 -11.667 -65.667 -35 -89c-27.333 -27.333 -66.666 -41 -117.999 -41h-233zM160.999 227l-0.000976562 -147c0 -14.667 4.83301 -25.667 14.5 -33s26.834 -11 51.501 -11c43.333 0 76 8.83301 98 26.5
s33 44.167 33 79.5c0 31.333 -10.167 55 -30.5 71s-47.5 24 -81.5 24c-32 0 -60.333 -3.33301 -85 -10z" />
    <glyph glyph-name="ucircumflex" unicode="&#x44b;" horiz-adv-x="655" 
d="M554 380v-298c0 -20 3.5 -35.167 10.5 -45.5s19.167 -15.5 36.5 -15.5h9v-21h-172v21h8c18.667 0 31.334 5 38.001 15s10 25.333 10 46v298c0 20.667 -3.33301 36 -10 46s-19.334 15 -38.001 15h-8v21h172v-21h-9c-17.333 0 -29.5 -5 -36.5 -15s-10.5 -25.333 -10.5 -46z
M45 0l-0.000976562 21h9c15.333 0 27 4.33301 35 13s12 20.334 12 35.001v324c0 18.667 -6 32 -18 40c-8 5.33301 -17.667 8 -29 8h-9v21h171v-21h-8c-15.333 0 -27 -4.33301 -35 -13s-12 -20.334 -12 -35.001v-132c16 4 33.333 7.16699 52 9.5s34 3.5 46 3.5
c55.333 0 98.333 -14 129 -42c28.667 -26 43 -60 43 -102c0 -36 -11.667 -65.667 -35 -89c-27.333 -27.333 -66.666 -41 -117.999 -41h-233zM160.999 227l-0.000976562 -147c0 -14.667 4.83301 -25.667 14.5 -33s26.834 -11 51.501 -11c43.333 0 76 8.83301 98 26.5
s33 44.167 33 79.5c0 31.333 -10.167 55 -30.5 71s-47.5 24 -81.5 24c-32 0 -60.333 -3.33301 -85 -10z" />
    <glyph glyph-name="udieresis" unicode="&#xfc;" horiz-adv-x="456" 
d="M45 0l-0.000976562 21h9c15.333 0 27 4.33301 35 13s12 20.334 12 35.001v324c0 18.667 -6 32 -18 40c-8 5.33301 -17.667 8 -29 8h-9v21h171v-21h-8c-15.333 0 -27 -4.33301 -35 -13s-12 -20.334 -12 -35.001v-132c16 4 33.333 7.16699 52 9.5s34 3.5 46 3.5
c55.333 0 98.333 -14 129 -42c28.667 -26 43 -60 43 -102c0 -36 -11.667 -65.667 -35 -89c-27.333 -27.333 -66.666 -41 -117.999 -41h-233zM160.999 227l-0.000976562 -147c0 -14.667 4.83301 -25.667 14.5 -33s26.834 -11 51.501 -11c43.333 0 76 8.83301 98 26.5
s33 44.167 33 79.5c0 31.333 -10.167 55 -30.5 71s-47.5 24 -81.5 24c-32 0 -60.333 -3.33301 -85 -10z" />
    <glyph glyph-name="udieresis" unicode="&#x44c;" horiz-adv-x="456" 
d="M45 0l-0.000976562 21h9c15.333 0 27 4.33301 35 13s12 20.334 12 35.001v324c0 18.667 -6 32 -18 40c-8 5.33301 -17.667 8 -29 8h-9v21h171v-21h-8c-15.333 0 -27 -4.33301 -35 -13s-12 -20.334 -12 -35.001v-132c16 4 33.333 7.16699 52 9.5s34 3.5 46 3.5
c55.333 0 98.333 -14 129 -42c28.667 -26 43 -60 43 -102c0 -36 -11.667 -65.667 -35 -89c-27.333 -27.333 -66.666 -41 -117.999 -41h-233zM160.999 227l-0.000976562 -147c0 -14.667 4.83301 -25.667 14.5 -33s26.834 -11 51.501 -11c43.333 0 76 8.83301 98 26.5
s33 44.167 33 79.5c0 31.333 -10.167 55 -30.5 71s-47.5 24 -81.5 24c-32 0 -60.333 -3.33301 -85 -10z" />
    <glyph glyph-name="yacute" unicode="&#xfd;" horiz-adv-x="478" 
d="M80 340l3.00195 97.9971c24 12 45.667 20.833 65 26.5s39.666 8.5 60.999 8.5c62.667 0 115 -23.333 157 -70s63 -101.667 63 -165c0 -75.333 -24.667 -137.333 -74 -186c-42.667 -42 -90.334 -63 -143.001 -63c-28.667 0 -57 6.33301 -85 19
c-34 15.333 -62.333 38 -85 68l20 21c17.333 -18 36 -33.333 56 -46c27.333 -17.333 52.666 -26 75.999 -26c43.333 0 81.333 21.833 114 65.5s49 97.5 49 161.5c-23.333 -18.667 -42.333 -32 -57 -40c-11.333 -6 -21 -9 -29 -9c-8.66699 0 -16.834 0.833008 -24.501 2.5
s-18.5 5.83398 -32.5 12.501s-22.667 10.667 -26 12c-11.333 4.66699 -20.666 7 -27.999 7s-14.5 -2 -21.5 -6s-14.5 -9.66699 -22.5 -17l-13 21c24 22.667 38 35.334 42 38.001c16 12 31.667 18 47 18c11.333 0 25 -4 41 -12c22.667 -11.333 40.334 -18.666 53.001 -21.999
l23 -3c27.333 0 41 19 41 57c0 26 -10 52 -30 78c-24.667 32 -56.667 48 -96 48c-28.667 0 -54.167 -8.83301 -76.5 -26.5s-37.833 -41.167 -46.5 -70.5h-21z" />
    <glyph glyph-name="yacute" unicode="&#x44d;" horiz-adv-x="478" 
d="M80 340l3.00195 97.9971c24 12 45.667 20.833 65 26.5s39.666 8.5 60.999 8.5c62.667 0 115 -23.333 157 -70s63 -101.667 63 -165c0 -75.333 -24.667 -137.333 -74 -186c-42.667 -42 -90.334 -63 -143.001 -63c-28.667 0 -57 6.33301 -85 19
c-34 15.333 -62.333 38 -85 68l20 21c17.333 -18 36 -33.333 56 -46c27.333 -17.333 52.666 -26 75.999 -26c43.333 0 81.333 21.833 114 65.5s49 97.5 49 161.5c-23.333 -18.667 -42.333 -32 -57 -40c-11.333 -6 -21 -9 -29 -9c-8.66699 0 -16.834 0.833008 -24.501 2.5
s-18.5 5.83398 -32.5 12.501s-22.667 10.667 -26 12c-11.333 4.66699 -20.666 7 -27.999 7s-14.5 -2 -21.5 -6s-14.5 -9.66699 -22.5 -17l-13 21c24 22.667 38 35.334 42 38.001c16 12 31.667 18 47 18c11.333 0 25 -4 41 -12c22.667 -11.333 40.334 -18.666 53.001 -21.999
l23 -3c27.333 0 41 19 41 57c0 26 -10 52 -30 78c-24.667 32 -56.667 48 -96 48c-28.667 0 -54.167 -8.83301 -76.5 -26.5s-37.833 -41.167 -46.5 -70.5h-21z" />
    <glyph glyph-name="thorn" unicode="&#xfe;" horiz-adv-x="718" 
d="M45 21l8.99805 -0.000976562c18.667 0 31.834 5.16699 39.501 15.5s11.5 25.5 11.5 45.5v298c0 20.667 -3.66699 36 -11 46s-20.666 15 -39.999 15h-9v21h180v-21h-10c-11.333 -1.33301 -19.666 -3.33301 -24.999 -6c-16.667 -8 -25 -22 -25 -42v-137h102
c6 54 22.667 100.333 50 139c36.667 52 86.667 78 150 78c66.667 0 118.667 -28 156 -84c30.667 -46 46 -98.667 46 -158s-15 -111.666 -45 -156.999c-37.333 -56.667 -89.333 -85 -156 -85c-64.667 0 -116 26 -154 78c-32 44 -48 94.667 -48 152h-101v-150
c0 -19.333 8.33301 -33 25 -41c5.33301 -2.66699 13.666 -5 24.999 -7h10v-21h-180v21zM466.998 436.999c-35.333 0 -64 -14.332 -86 -42.999c-28 -36 -42 -90.333 -42 -163c0 -80.667 17 -138.334 51 -173.001c22 -22 47.667 -33 77 -33c33.333 0 60.666 11.667 81.999 35
c31.333 34.667 47 91.667 47 171c0 65.333 -12.167 116 -36.5 152s-55.166 54 -92.499 54z" />
    <glyph glyph-name="thorn" unicode="&#x44e;" horiz-adv-x="718" 
d="M45 21l8.99805 -0.000976562c18.667 0 31.834 5.16699 39.501 15.5s11.5 25.5 11.5 45.5v298c0 20.667 -3.66699 36 -11 46s-20.666 15 -39.999 15h-9v21h180v-21h-10c-11.333 -1.33301 -19.666 -3.33301 -24.999 -6c-16.667 -8 -25 -22 -25 -42v-137h102
c6 54 22.667 100.333 50 139c36.667 52 86.667 78 150 78c66.667 0 118.667 -28 156 -84c30.667 -46 46 -98.667 46 -158s-15 -111.666 -45 -156.999c-37.333 -56.667 -89.333 -85 -156 -85c-64.667 0 -116 26 -154 78c-32 44 -48 94.667 -48 152h-101v-150
c0 -19.333 8.33301 -33 25 -41c5.33301 -2.66699 13.666 -5 24.999 -7h10v-21h-180v21zM466.998 436.999c-35.333 0 -64 -14.332 -86 -42.999c-28 -36 -42 -90.333 -42 -163c0 -80.667 17 -138.334 51 -173.001c22 -22 47.667 -33 77 -33c33.333 0 60.666 11.667 81.999 35
c31.333 34.667 47 91.667 47 171c0 65.333 -12.167 116 -36.5 152s-55.166 54 -92.499 54z" />
    <glyph glyph-name="ydieresis" unicode="&#xff;" horiz-adv-x="514" 
d="M49 0v21.001c19.333 3.33301 35 10.666 47 21.999c8.66699 8 16.667 19.667 24 35l63 131v5c-26.667 5.33301 -48.667 15.333 -66 30c-27.333 22 -41 52.667 -41 92c0 36.667 10.667 65.667 32 87c26.667 26 68.667 39 126 39h235v-21h-10
c-15.333 0 -27 -4.33301 -35 -13s-12 -20.334 -12 -35.001v-324c0 -18.667 6 -32 18 -40c8 -5.33301 17.667 -8 29 -8h10v-21h-173v21h9c15.333 0 27 4.33301 35 13s12 20.334 12 35.001v140h-102l-98 -209h-103zM352 246.001l-0.00195312 130.001
c0 16 -3.33301 27.333 -10 34c-10.667 10.667 -31 16 -61 16c-51.333 0 -86.166 -6.5 -104.499 -19.5s-27.5 -35.5 -27.5 -67.5c0 -30.667 9.83301 -53.834 29.5 -69.501s45.834 -23.5 78.501 -23.5h95z" />
    <glyph glyph-name="ydieresis" unicode="&#x44f;" horiz-adv-x="514" 
d="M49 0v21.001c19.333 3.33301 35 10.666 47 21.999c8.66699 8 16.667 19.667 24 35l63 131v5c-26.667 5.33301 -48.667 15.333 -66 30c-27.333 22 -41 52.667 -41 92c0 36.667 10.667 65.667 32 87c26.667 26 68.667 39 126 39h235v-21h-10
c-15.333 0 -27 -4.33301 -35 -13s-12 -20.334 -12 -35.001v-324c0 -18.667 6 -32 18 -40c8 -5.33301 17.667 -8 29 -8h10v-21h-173v21h9c15.333 0 27 4.33301 35 13s12 20.334 12 35.001v140h-102l-98 -209h-103zM352 246.001l-0.00195312 130.001
c0 16 -3.33301 27.333 -10 34c-10.667 10.667 -31 16 -61 16c-51.333 0 -86.166 -6.5 -104.499 -19.5s-27.5 -35.5 -27.5 -67.5c0 -30.667 9.83301 -53.834 29.5 -69.501s45.834 -23.5 78.501 -23.5h95z" />
    <glyph glyph-name="endash" unicode="&#x2013;" horiz-adv-x="672" 
d="M70 315v70h532v-70h-532z" />
    <glyph glyph-name="emdash" unicode="&#x2014;" horiz-adv-x="1050" 
d="M56 213v63h938v-63h-938z" />
    <glyph glyph-name="quoteleft" unicode="&#x2018;" 
d="M172 714l13.998 -14c-16.667 -15.333 -29.667 -31 -39 -47s-14.666 -29.333 -15.999 -40v-19c2 -8.66699 5.33301 -14.5 10 -17.5s11.834 -5.16699 21.501 -6.5s17.667 -6.16602 24 -14.499s9.5 -17.833 9.5 -28.5c0 -14.667 -4.66699 -27.334 -14 -38.001
s-21.333 -16 -36 -16c-16.667 0 -30.667 6.66699 -42 20c-13.333 15.333 -20 37.333 -20 66c0 30.667 8.33301 60 25 88c14.667 24.667 35.667 47 63 67z" />
    <glyph glyph-name="quoteright" unicode="&#x2019;" 
d="M108 473l-13.999 14.998c16 14.667 28.5 28.5 37.5 41.5s14.833 27.833 17.5 44.5v19c-2 8.66699 -5.33301 14.5 -10 17.5s-11.834 5.16699 -21.501 6.5s-17.667 6.16602 -24 14.499s-9.5 17.833 -9.5 28.5c0 14.667 4.66699 27.334 14 38.001s21.333 16 36 16
c16.667 0 31.167 -7 43.5 -21s18.5 -35.667 18.5 -65c0 -33.333 -9.66699 -64.666 -29 -93.999c-15.333 -23.333 -35 -43.666 -59 -60.999z" />
    <glyph glyph-name="quotesinglbase" unicode="&#x201a;" 
d="M108 -143l-13.999 14.998c16 14.667 28.5 28.5 37.5 41.5s14.833 27.833 17.5 44.5v19c-2 8.66699 -5.33301 14.5 -10 17.5s-11.834 5.16699 -21.501 6.5s-17.667 6.16602 -24 14.499s-9.5 17.833 -9.5 28.5c0 14.667 4.66699 27.334 14 38.001s21.333 16 36 16
c16.667 0 31.167 -7 43.5 -21s18.5 -35.667 18.5 -65c0 -33.333 -9.66699 -64.666 -29 -93.999c-15.333 -23.333 -35 -43.666 -59 -60.999z" />
    <glyph glyph-name="quotedblleft" unicode="&#x201c;" horiz-adv-x="476" 
d="M367 714l15.002 -13.999c-19.333 -16.667 -34 -34.667 -44 -54c-6.66699 -12.667 -10.334 -23.667 -11.001 -33v-19c2.66699 -14 11.667 -21.667 27 -23c12.667 -2 22.167 -7.33301 28.5 -16s9.5 -18 9.5 -28c0 -14.667 -4.66699 -27.334 -14 -38.001
s-21.333 -16 -36 -16c-16.667 0 -30.667 6.66699 -42 20c-13.333 15.333 -20 37.333 -20 66c0 30 7.16699 57.833 21.5 83.5s36.166 49.5 65.499 71.5zM174.002 714.001l11.999 -13.999c-14.667 -12.667 -26.667 -26.5 -36 -41.5s-15.666 -30.167 -18.999 -45.5v-19
c1.33301 -10 6.33301 -16.667 15 -20c4.66699 -1.33301 11 -2.83301 19 -4.5s15.167 -6.66699 21.5 -15s9.5 -17.5 9.5 -27.5c0 -14.667 -4.66699 -27.334 -14 -38.001s-21.333 -16 -36 -16c-16.667 0 -30.667 6.66699 -42 20c-13.333 15.333 -20 37.333 -20 66
c0 33.333 8.66699 64 26 92c14.667 24 36 45 64 63z" />
    <glyph glyph-name="quotedblright" unicode="&#x201d;" horiz-adv-x="476" 
d="M108 473l-13.999 14.998c16 14.667 28.5 28.5 37.5 41.5s14.833 27.833 17.5 44.5v19c-2 8.66699 -5.33301 14.5 -10 17.5s-11.834 5.16699 -21.501 6.5s-17.667 6.16602 -24 14.499s-9.5 17.833 -9.5 28.5c0 14.667 4.66699 27.334 14 38.001s21.333 16 36 16
c16.667 0 31.167 -7 43.5 -21s18.5 -35.667 18.5 -65c0 -33.333 -9.66699 -64.666 -29 -93.999c-15.333 -23.333 -35 -43.666 -59 -60.999zM301.001 472.998l-10.999 15c16 14.667 28.5 28.5 37.5 41.5s14.833 27.833 17.5 44.5v19c-2 8.66699 -5.33301 14.5 -10 17.5
s-11.834 5.16699 -21.501 6.5s-17.667 6.16602 -24 14.499s-9.5 17.833 -9.5 28.5c0 14.667 4.66699 27.334 14 38.001s21.333 16 36 16c16.667 0 31.167 -7 43.5 -21s18.5 -35.667 18.5 -65c0 -32 -8.66699 -61.833 -26 -89.5s-39 -49.5 -65 -65.5z" />
    <glyph glyph-name="quotedblbase" unicode="&#x201e;" horiz-adv-x="476" 
d="M108 -143l-13.999 14.998c16 14.667 28.5 28.5 37.5 41.5s14.833 27.833 17.5 44.5v19c-2 8.66699 -5.33301 14.5 -10 17.5s-11.834 5.16699 -21.501 6.5s-17.667 6.16602 -24 14.499s-9.5 17.833 -9.5 28.5c0 14.667 4.66699 27.334 14 38.001s21.333 16 36 16
c16.667 0 31.167 -7 43.5 -21s18.5 -35.667 18.5 -65c0 -33.333 -9.66699 -64.666 -29 -93.999c-15.333 -23.333 -35 -43.666 -59 -60.999zM301.001 -143.002l-10.999 15c16 14.667 28.5 28.5 37.5 41.5s14.833 27.833 17.5 44.5v19c-2 8.66699 -5.33301 14.5 -10 17.5
s-11.834 5.16699 -21.501 6.5s-17.667 6.16602 -24 14.499s-9.5 17.833 -9.5 28.5c0 14.667 4.66699 27.334 14 38.001s21.333 16 36 16c16.667 0 31.167 -7 43.5 -21s18.5 -35.667 18.5 -65c0 -32 -8.66699 -61.833 -26 -89.5s-39 -49.5 -65 -65.5z" />
    <glyph glyph-name="dagger" unicode="&#x2020;" horiz-adv-x="590" 
d="M306 -165l-23.0049 0.00390625c0 124 -8 225.333 -24 304c-10 49.333 -25.667 96.666 -47 141.999c16.667 20 29.667 41 39 63c7.33301 17.333 14.666 46.666 21.999 87.999v9l-6 5c-6.66699 0 -19.667 -2.66699 -39 -8s-32.666 -9.83301 -39.999 -13.5
s-17 -7.16699 -29 -10.5s-23.333 -5 -34 -5c-8.66699 0 -17 4 -25 12c-10 10 -15 23.333 -15 40c0 18.667 4.83301 32 14.5 40s20.5 12 32.5 12c12.667 0 28.667 -3.33301 48 -10c30.667 -10.667 56 -18 76 -22c6.66699 -1.33301 11.334 -1.33301 14.001 0l5 5
c2.66699 4 2.66699 11.333 0 22c-6 26.667 -14.167 55.167 -24.5 85.5s-15.5 51.5 -15.5 63.5c0 20 5.33301 34.667 16 44s25.334 14 44.001 14c21.333 0 36.666 -5.33301 45.999 -16s14 -24.667 14 -42c0 -10.667 -2.66699 -24.334 -8 -41.001
c-18.667 -58 -29.667 -94 -33 -108l-2 -12c-0.666992 -4 0 -7.33301 2 -10l5 -5c2.66699 -1.33301 7.33398 -1.33301 14.001 0c22.667 4 47.667 11 75 21c20.667 7.33301 37.334 11 50.001 11c12 0 22.833 -4.5 32.5 -13.5s14.5 -21.833 14.5 -38.5
c0 -15.333 -4.16699 -27.833 -12.5 -37.5s-17.833 -14.5 -28.5 -14.5c-21.333 0 -42.666 5.33301 -63.999 16c-8.66699 4 -22 8.5 -40 13.5s-30.333 7.5 -37 7.5l-7 -5v-9c6.66699 -36.667 11.334 -59.334 14.001 -68.001c9.33301 -28.667 25 -56.334 47 -83.001
c-21.333 -46 -37 -93.333 -47 -142c-16 -77.333 -24 -178.666 -24 -303.999z" />
    <glyph glyph-name="bullet" unicode="&#x2022;" horiz-adv-x="672" 
d="M238 350c0 28.667 10 52.167 30 70.5s42.667 27.5 68 27.5c26 0 48.833 -9 68.5 -27s29.5 -41.667 29.5 -71c0 -26 -9 -48.833 -27 -68.5s-41.667 -29.5 -71 -29.5c-26 0 -48.833 9 -68.5 27s-29.5 41.667 -29.5 71z" />
    <glyph glyph-name="ellipsis" unicode="&#x2026;" horiz-adv-x="798" 
d="M84 35c0 12.667 4.66699 24 14 34s21 15 35 15c12.667 0 24 -4.66699 34 -14s15 -21 15 -35c0 -13.333 -4.83301 -24.833 -14.5 -34.5s-21.167 -14.5 -34.5 -14.5c-12.667 0 -24 4.66699 -34 14s-15 21 -15 35zM350 35c0 12.667 4.66699 24 14 34s21 15 35 15
c12.667 0 24 -4.66699 34 -14s15 -21 15 -35s-4.66699 -25.667 -14 -35s-21 -14 -35 -14c-12.667 0 -24 4.66699 -34 14s-15 21 -15 35zM616 35c0 12.667 4.66699 24 14 34s21 15 35 15c13.333 0 24.833 -5.16699 34.5 -15.5s14.5 -21.5 14.5 -33.5
c0 -13.333 -4.83301 -24.833 -14.5 -34.5s-21.167 -14.5 -34.5 -14.5s-24.833 5.16699 -34.5 15.5s-14.5 21.5 -14.5 33.5z" />
    <glyph glyph-name="perthousand" unicode="&#x2030;" horiz-adv-x="1474" 
d="M126 580c0 43.333 13.668 82.999 41.001 118.999c32.667 42.667 75.667 64 129 64c50 0 91.667 -19.333 125 -58c31.333 -36 47 -77.667 47 -125s-15.667 -89 -47 -125c-33.333 -38.667 -75 -58 -125 -58c-52.667 0 -95.334 21.333 -128.001 64
c-28 36.667 -42 76.334 -42 119.001zM212.001 604.999l0.000976562 -50.001c0 -44.667 7.16699 -78.667 21.5 -102s35.833 -35 64.5 -35c31.333 0 54 16.333 68 49c10.667 24.667 16 54.334 16 89.001v48c0 44 -7.33301 78 -22 102s-35.334 36 -62.001 36
c-27.333 0 -48.5 -12 -63.5 -36s-22.5 -57.667 -22.5 -101zM296.002 -141.002l-40 19l487 963l40 -21zM580.002 136.998c0 48 16.333 90.333 49 127s72.667 55 120 55c49.333 0 90.333 -19.333 123 -58c30.667 -36 46 -77.667 46 -125c0 -46.667 -15.333 -88 -46 -124
c-33.333 -39.333 -74.333 -59 -123 -59c-46.667 0 -86.5 18.5 -119.5 55.5s-49.5 79.833 -49.5 128.5zM666.002 159.998v-49.001c0 -44.667 6.83301 -78.667 20.5 -102s34.5 -35 62.5 -35c55.333 0 83 45.667 83 137v48c0 43.333 -7.5 77.333 -22.5 102s-35.167 37 -60.5 37
c-22 0 -40 -8.66699 -54 -26c-19.333 -23.333 -29 -60.666 -29 -111.999zM1010 136.997c0 48 16.333 90.333 49 127s72.667 55 120 55c49.333 0 90.333 -19.333 123 -58c30.667 -36 46 -77.667 46 -125c0 -46 -15.333 -87.333 -46 -124
c-33.333 -39.333 -74.333 -59 -123 -59c-46.667 0 -86.5 18.5 -119.5 55.5s-49.5 79.833 -49.5 128.5zM1096 159.997v-49.001c0 -44.667 6.83301 -78.667 20.5 -102s34.5 -35 62.5 -35c55.333 0 83 45.667 83 137v48c0 43.333 -7.5 77.333 -22.5 102s-35.167 37 -60.5 37
c-22 0 -40 -8.66699 -54 -26c-19.333 -23.333 -29 -60.666 -29 -111.999z" />
    <glyph glyph-name="guilsinglleft" unicode="&#x2039;" horiz-adv-x="350" 
d="M294 404l-141 -194l136 -193l-26 -17l-207 210l217 210z" />
    <glyph glyph-name="guilsinglright" unicode="&#x203a;" horiz-adv-x="350" 
d="M56 404l21 16l217 -210l-207 -210l-26 17l136 193z" />
    <glyph glyph-name="trademark" unicode="&#x2122;" horiz-adv-x="630" 
d="M150 467v210h-80v37h203v-37h-81v-210h-42zM416 467l-64 177v-177h-42v247h60l65 -184l65 184h60v-247h-42v177l-64 -177h-38z" />
    <glyph glyph-name=".null" horiz-adv-x="0" 
 />
    <glyph glyph-name="nonmarkingreturn" horiz-adv-x="351" 
 />
  </font>
</defs>
</svg>
