<svg id="Слой_1" data-name="Слой 1" xmlns="http://www.w3.org/2000/svg" viewBox="0 0 16 16"><defs><style>.cls-1{fill:#e7fcf5;}.cls-2{font-size:1.71px;font-family:Engula-Regular, Engula;}</style></defs><rect class="cls-1" x="0.5" y="0.5" width="15" height="15"/><path d="M15,1V15H1V1H15m1-1H0V16H16V0Z"/><path d="M3.5,5.47v.12L5.1,4h.29L4.05,5.33,5.54,7.25H5.26L3.88,5.48l-.39.37v1.4H3.27V4H3.5Z"/><path d="M7,4a1.13,1.13,0,0,1,.36.06,1,1,0,0,1,.33.16.89.89,0,0,1,.34.7A1.13,1.13,0,0,1,8,5.28a1.09,1.09,0,0,1-.18.31,1,1,0,0,1-.32.22A1.34,1.34,0,0,1,7,5.89H6.48V7.25H6.26V4ZM7,5.67a1,1,0,0,0,.41-.07.65.65,0,0,0,.25-.17.94.94,0,0,0,.13-.24,1.27,1.27,0,0,0,0-.26.6.6,0,0,0-.06-.27.57.57,0,0,0-.15-.23.75.75,0,0,0-.24-.15A.83.83,0,0,0,7,4.22H6.48V5.67Zm.47.1.9,1.48H8.08L7.17,5.78Z"/><path d="M8.87,7.25l1.37-3.39h0l1.37,3.39h-.25l-1.19-3,.15-.09L9.1,7.25ZM9.53,6H11l.07.22H9.48Z"/><path d="M12.38,4h.23V7.25h-.23Z"/><path d="M5.94,11.93,3.38,9.05,3.44,9v2.85H3.22V8.54h0L5.8,11.45l-.06,0V8.61H6v3.32Z"/><path d="M6.77,10.24a1.75,1.75,0,0,1,.13-.65,1.91,1.91,0,0,1,.36-.53,1.77,1.77,0,0,1,.53-.36,1.64,1.64,0,0,1,1.28,0,1.66,1.66,0,0,1,.53.36A1.66,1.66,0,0,1,10,10.88a1.56,1.56,0,0,1-.36.53,1.49,1.49,0,0,1-.53.35,1.53,1.53,0,0,1-.64.13,1.69,1.69,0,0,1-.64-.12,1.58,1.58,0,0,1-.53-.35,1.66,1.66,0,0,1-.36-.53A1.75,1.75,0,0,1,6.77,10.24Zm.23,0a1.51,1.51,0,0,0,.11.56,1.77,1.77,0,0,0,.31.46,1.37,1.37,0,0,0,.45.3,1.33,1.33,0,0,0,.55.12,1.49,1.49,0,0,0,1-.42,1.38,1.38,0,0,0,.31-.46,1.34,1.34,0,0,0,.12-.56,1.31,1.31,0,0,0-.12-.56,1.33,1.33,0,0,0-.31-.47A1.57,1.57,0,0,0,9,8.9a1.51,1.51,0,0,0-.56-.11,1.47,1.47,0,0,0-.56.11,1.52,1.52,0,0,0-.46.32,1.52,1.52,0,0,0-.41,1Z"/><path d="M10.71,8.61l1.19,3-.12,0,1.17-3h.26L11.83,12,10.45,8.61Z"/><text class="cls-2" transform="translate(2.27 7.78) scale(2.01 1)">________</text><path d="M8.88,8.82c-.13.5-.27,1-.4,1.51s-.26,1-.4,1.5H8c.13-.5.27-1,.4-1.5s.26-1,.4-1.51Z"/></svg>